<?xml version="1.0" encoding="UTF-8" standalone="no"?>
<svg
   preserveAspectRatio="none"
   width="32"
   height="32"
   version="1.1"
   id="svg13"
   sodipodi:docname="uncool.svg"
   inkscape:version="1.4.2 (f4327f4, 2025-05-13)"
   xmlns:inkscape="http://www.inkscape.org/namespaces/inkscape"
   xmlns:sodipodi="http://sodipodi.sourceforge.net/DTD/sodipodi-0.dtd"
   xmlns="http://www.w3.org/2000/svg"
   xmlns:svg="http://www.w3.org/2000/svg">
  <sodipodi:namedview
     id="namedview13"
     pagecolor="#505050"
     bordercolor="#ffffff"
     borderopacity="1"
     inkscape:showpageshadow="0"
     inkscape:pageopacity="0"
     inkscape:pagecheckerboard="1"
     inkscape:deskcolor="#505050"
     inkscape:zoom="7.6676892"
     inkscape:cx="8.1510868"
     inkscape:cy="40.95106"
     inkscape:window-width="1440"
     inkscape:window-height="938"
     inkscape:window-x="-6"
     inkscape:window-y="-6"
     inkscape:window-maximized="1"
     inkscape:current-layer="svg13" />
  <style
     id="style1"><![CDATA[.B{stroke-linejoin:round}.C{stroke-linecap:round}]]></style>
  <defs
     id="defs6">
    <g
       id="A"
       stroke="none">
      <path
         fill="#00f"
         d="M3.3-.2H-.5v32.45h15.4l-2.15-.15q-.25 0-.55-.05-1.55-.15-3.45-1.1-2.5-1.3-3.65-3-2.1-3.1-2.5-7.7-.65-7.65-.55-11.65.141-5.175 1.25-8.8m29.3 0h-2q-1.02 1.952-1.55 3.3-1.35 3.7.05 8.05.85 2.8 1.1 4.05.6 3.3.05 6.8-.35 2.5-1.75 4.8-2.15 3.45-6 5.05l-.15.4H32.6V-.2m-8.05-.25l.05.05.15.45.3 1.4q2.55-1 4.7-1.55.018-.053 0-.1.05-.086.05-.15l-5.25-.1M19.4-.5l-3.9-.05.45 1.35-1.45.15.15 1.5q2.5.6 3.85 2.55-.1.15-.1.35-.05.45-.05.85l1.3.15h.15V6.2q0-.95.5-2.25.15-.4.4-.55-.35-1.7-1.05-3.35-.043-.13-.1-.25-.065-.158-.15-.3M7.35-.6q-.075.2-.15.4-.213.6-.4 1.2l1.85.4h.05l-.3.6q.6.15 1.25.6l1.25.75q.9.85 1.5 2.1h.05q.7.15 1.35.3.6-1.5-.25-2.6.15-.15.25-.3l.25-.25v-.25q-.2-.6-.25-1.1 0-.1 0-.2l-2.05.25-.35-1.85L7.35-.6z"
         id="path1" />
      <path
         fill="#000"
         d="M14.95-2.2l-3.9.1.35 1.55.35 1.85 2.05-.25.7-.1L15.95.8 15.5-.55l-.55-1.65m-.7 29.15q.7-1 1.3-1.95h-7.5q-.1 0-.2 0 .6 1.45 1.3 2.75.3-.05 1-.5 1.3-.85 2.1-1.5 1 .65 2 1.2M10 11.85q-1-.65-2.1.1-1.1.7-1.7 2.2-.65 1.55-.45 3.1.05.15.05.3.25 1.2 1 1.7.05.05.1.05l-.7.4q.2.75.4 1.45l4.7-2.8-.25-1.45-.4.25q0-.05.05-.15.65-1.55.45-3.05-.2-1.55-1.15-2.1M6.6 18.3q-.15-.05-.2-.45-.05-.5.1-1.1.15-.6.4-1 .25-.4.4-.35.2.05.25.5.05.4-.1 1.05-.15.6-.4 1.05-.25.35-.45.3m12.65-5.95q-.6-1.45-2-1.8-1.4-.45-2.7.45-1.3.85-1.75 2.5-.5 1.6.1 3.1.15.35.4.65l-.65-.2-.1 1.55 5.55 1.8q.35-.7.65-1.4l-1.95-.6q.4-.15.8-.45 1.3-.9 1.8-2.5.45-1.65-.15-3.1m-5.2 2.1q.25-.45.4-.4.2.05.25.55.05.45-.1 1.15-.15.65-.4 1.15-.25.4-.45.35-.15-.05-.2-.5-.05-.55.1-1.2.15-.7.4-1.1M12.3 5.4q.05.05.1.05-.6-1.25-1.5-2.1L9.65 2.6Q9 2.15 8.4 2l.3-.6h-.05L6.8 1Q5.05 6.9 5.35 13.35q.05.7.1 1.35 0-.05 0-.15.15-2.4.45-3.7.5-1.8 1.65-3.05 1.6-1.6 4.75-2.4m8.4-2q-.25.15-.4.55-.5 1.3-.5 2.25v.15h-.15l-1.3-.15q.05.8.25 1.6 1.45 1.05 2.2 2.5.55-3.7-.1-6.9z"
         id="path2" />
      <path
         fill="#401d22"
         d="M3.45-.65q-.074.222-.15.45-1.109 3.625-1.25 8.8-.1 4 .55 11.65.4 4.6 2.5 7.7 1.15 1.7 3.65 3 1.9.95 3.45 1.1.3.05.55.05l2.15.15 7.25.5.2-.5.15-.4q3.85-1.6 6-5.05 1.4-2.3 1.75-4.8.55-3.5-.05-6.8-.25-1.25-1.1-4.05-1.4-4.35-.05-8.05.53-1.348 1.55-3.3.059-.074.1-.15h-.9q0 .064-.05.15.018.047 0 .1-2.15.55-4.7 1.55l-.3-1.4-.15-.45-.05-.05-.05-.05-.2-.5-.05-.1q-.4-.8-.9-1.45l-.15-.3q-.25-.35-.4-.4-.45-.1-.45.25-.45-.35-1.15-.45l-.1.1q-.1.2.05.35l.25.2q.35.2.85.8l.45.5.5.7.1.35-3.9-.05q.085.142.15.3.057.12.1.25.7 1.65 1.05 3.35.65 3.2.1 6.9 0 .2-.05.45-.65 4.45-1.35 6.45-.2.7-.5 1.4-.05.1-.1.2-.05.1-.05.2-.3.7-.65 1.4-.15.25-.25.5-.95 2-2.3 4.1-.6.95-1.3 1.95-1-.55-2-1.2-.8.65-2.1 1.5-.7.45-1 .5-.7-1.3-1.3-2.75-.75-1.8-1.2-3.7-.05-.1-.05-.15-.2-.7-.4-1.45v-.05q-.2-1-.4-2.1 0-.15-.05-.3-.2-1.25-.3-2.55-.05-.65-.1-1.35Q5.05 6.9 6.8 1q.188-.6.4-1.2.075-.2.15-.4l-3.9-.05z"
         id="path3" />
      <path
         fill="#fcf1e5"
         d="M6.2 19.7l.7-.4q-.05 0-.1-.05-.75-.5-1-1.7.2 1.1.4 2.1v.05m14.55-8.95q.05-.25.05-.45-.75-1.45-2.2-2.5-.85-.6-1.95-1.1-1.25-.55-2.85-.95-.65-.15-1.35-.3h-.05q-.05 0-.1-.05-3.15.8-4.75 2.4Q6.4 9.05 5.9 10.85q-.3 1.3-.45 3.7 0 .1 0 .15.1 1.3.3 2.55-.2-1.55.45-3.1.6-1.5 1.7-2.2 1.1-.75 2.1-.1.95.55 1.15 2.1.2 1.5-.45 3.05-.05.1-.05.15l.4-.25.25 1.45-4.7 2.8q0 .05.05.15.45 1.9 1.2 3.7.1 0 .2 0h7.5q1.35-2.1 2.3-4.1.1-.25.25-.5l-5.55-1.8.1-1.55.65.2q-.25-.3-.4-.65-.6-1.5-.1-3.1.45-1.65 1.75-2.5 1.3-.9 2.7-.45 1.4.35 2 1.8.6 1.45.15 3.1-.5 1.6-1.8 2.5-.4.3-.8.45l1.95.6q0-.1.05-.2.05-.1.1-.2.3-.7.5-1.4.7-2 1.35-6.45M9.25 8.8l5.2-.25-5.2.25z"
         id="path4" />
      <path
         fill="#fff"
         d="M6.4 17.85q.05.4.2.45.2.05.45-.3.25-.45.4-1.05.15-.65.1-1.05-.05-.45-.25-.5-.15-.05-.4.35-.25.4-.4 1-.15.6-.1 1.1m8.05-3.8q-.15-.05-.4.4-.25.4-.4 1.1-.15.65-.1 1.2.05.45.2.5.2.05.45-.35.25-.5.4-1.15.15-.7.1-1.15-.05-.5-.25-.55z"
         id="path5" />
      <path
         fill="#d58d8d"
         d="M18.4 5.35q0-.2.1-.35-1.35-1.95-3.85-2.55L14.5.95l-.7.1q0 .1 0 .2.05.5.25 1.1v.25l-.25.25q-.1.15-.25.3.85 1.1.25 2.6 1.6.4 2.85.95 1.1.5 1.95 1.1-.2-.8-.25-1.6 0-.4.05-.85z"
         id="path6" />
    </g>
    <path
       id="B"
       stroke="#ff005b"
       stroke-width=".1"
       fill="none"
       d="M30.625-.2H32.6v32.45H22.35m-7.425 0H-.5V-.2h3.8"
       class="B C" />
    <path
       id="C"
       stroke="#000"
       stroke-width=".1"
       fill="none"
       d="M11.4-.55l-.35-1.55-1.8.05m1.8-.05l-.1-.65m4.55 2.2l-.55-1.65-3.9.1m3.9-.1l-.35-1.1m.9 2.75L15.95.8 14.5.95m1.9-3.2l-1.45.05M14.5.95l-.7.1-2.05.25-.35-1.85"
       class="B C" />
    <path
       id="D"
       stroke="#333"
       stroke-width=".3"
       fill="none"
       d="M9.25 8.8l5.2-.25"
       class="B C" />
  </defs>
  <use
     href="#A"
     x="-.631"
     y=".305"
     id="use6" />
  <use
     href="#B"
     x="-.631"
     y=".305"
     id="use7" />
  <use
     href="#C"
     x="-.631"
     y=".305"
     id="use8" />
  <use
     href="#D"
     x="-.631"
     y=".305"
     id="use9" />
  <use
     href="#A"
     id="use10" />
  <use
     href="#B"
     id="use11" />
  <use
     href="#C"
     id="use12" />
  <use
     href="#D"
     id="use13" />
  <path
     style="display:inline;fill:#333333;stroke-width:0.0652087"
     d="m 16.399987,32.67786 -4.760235,-0.334348 1.679124,-0.0174 c 1.044919,-0.01083 1.679124,-0.04162 1.679124,-0.08151 0,-0.03526 -0.177901,-0.06411 -0.395335,-0.06411 -0.663879,0 -2.276988,-0.130082 -2.897704,-0.233674 C 9.1987766,31.528562 6.3150199,29.720249 5.0113697,27.749477 3.6068124,25.62616 2.8815464,23.223775 2.579175,19.693026 1.9946418,12.867514 1.937582,7.5087988 2.4134849,4.1324028 2.6335054,2.5714202 3.1384513,0.19005394 3.3206671,-0.14594319 3.3549362,-0.20913354 3.399978,-0.34153054 3.42076,-0.44015869 L 3.458546,-0.6194826 h 0.9339159 c 0.5136538,0 1.3750762,0.0190949 1.9142721,0.0424331 l 0.9803561,0.0424331 -0.191095,0.52361277 C 6.4502248,1.7584475 5.7933516,4.7716267 5.5156753,7.2381651 5.1512095,10.475635 5.2214098,14.069775 5.7099065,17.182491 c 0.4190647,2.670293 1.332445,6.0272 2.1681562,7.968531 0.5814008,1.350575 1.2030429,2.595278 1.2961609,2.595278 0.2323673,0 1.4205824,-0.733187 2.6069584,-1.608621 l 0.467475,-0.344951 0.680296,0.416506 c 0.374163,0.229079 0.828878,0.491798 1.010478,0.583822 l 0.330181,0.167316 0.886695,-1.327476 c 1.111736,-1.664389 1.830196,-2.906096 2.644512,-4.570488 1.547183,-3.162306 2.061312,-4.775564 2.670407,-8.379317 0.95593,-5.6558187 0.746421,-8.9676417 -0.799105,-12.63194652 l -0.225962,-0.53573376 1.60107,0.041033 c 1.369372,0.0350949 1.593339,0.0276936 1.547654,-0.0511445 -0.32395,-0.55903282 -1.218666,-1.57643362 -1.748527,-1.98828872 -0.288188,-0.2240042 -0.374178,-0.329076 -0.358648,-0.4382345 0.02196,-0.1544043 0.179345,-0.1809927 0.529212,-0.089408 0.164938,0.043176 0.176302,0.035803 0.116642,-0.075673 -0.04659,-0.087053 -0.04279,-0.1544289 0.01288,-0.2282584 0.0662,-0.087788 0.126498,-0.093924 0.372423,-0.037899 0.161392,0.036767 0.416152,0.1386042 0.566136,0.2263044 0.267259,0.1562759 0.273522,0.1568519 0.314135,0.028891 0.07154,-0.2254131 0.375722,-0.1692779 0.617559,0.1139688 0.344815,0.403856 0.89933,1.3085006 1.269068,2.07037604 0.389081,0.80173542 0.436453,0.93903891 0.596192,1.7280304 0.06172,0.30485066 0.131998,0.57691566 0.156171,0.60458876 0.02417,0.027673 0.555368,-0.1363968 1.180434,-0.3646001 0.933837,-0.34093139 1.703548,-0.58820491 3.500299,-1.12448839 0.04483,-0.01338089 0.08151,-0.06926572 0.08151,-0.12418846 0,-0.0785322 0.08322,-0.0998596 0.389639,-0.0998596 0.460613,0 0.480172,-0.12904768 -0.182838,1.20636085 -1.198096,2.413156 -1.544003,3.5906151 -1.618737,5.5101347 -0.06502,1.6699203 0.118812,2.8675726 0.780692,5.086279 1.149698,3.85393 1.325156,4.921495 1.264642,7.694626 -0.0387,1.773356 -0.173983,2.889383 -0.504603,4.162701 -0.920919,3.546737 -3.42419,6.548413 -6.814176,8.170887 l -0.653577,0.312807 -0.159277,0.425902 -0.159276,0.425902 h -0.272323 c -0.236095,0 -0.277766,0.02169 -0.313238,0.163022 -0.03189,0.127076 -0.08018,0.161258 -0.218998,0.155023 -0.09794,-0.0044 -2.320187,-0.158454 -4.938316,-0.342345 z"
     id="path13" />
</svg>
