<svg xmlns="http://www.w3.org/2000/svg" width="871" height="1186" style="shape-rendering:geometricPrecision;text-rendering:geometricPrecision;image-rendering:optimizeQuality;fill-rule:evenodd;clip-rule:evenodd"><path style="opacity:.824" d="M624.5 22.5c5.528-1.43 8.862.57 10 6-.831 1.973-.998 3.973-.5 6a111.937 111.937 0 0 1 11 26c8.295 26.73 12.295 54.063 12 82-2.411 16.322-9.245 30.489-20.5 42.5a18.778 18.778 0 0 1 5.5 4.5 143.738 143.738 0 0 0 14 18c7.042 12.456 11.708 25.789 14 40a1806.285 1806.285 0 0 1 5 44c1.24 11.646 6.073 21.48 14.5 29.5a179.617 179.617 0 0 0 15 10 27.503 27.503 0 0 0 11.5 2.5 716.027 716.027 0 0 0 22.5-2c1.538.173 3.038.506 4.5 1 2.167-2.01 4.667-3.344 7.5-4 1.874-.11 3.374.556 4.5 2a16.242 16.242 0 0 1 0 8c-15.963 34.066-41.796 45.232-77.5 33.5-3.5-2.167-6.333-5-8.5-8.5-1.106-3.492-.106-6.158 3-8 15.858 11.525 32.692 13.025 50.5 4.5 7.351-5.018 13.351-11.352 18-19-4.322 1.805-8.989 2.805-14 3-11.287 1.908-21.954.242-32-5-10.05-5.929-18.217-13.762-24.5-23.5l-4-10a929.93 929.93 0 0 1-7-54 136.442 136.442 0 0 0-10-33 312.333 312.333 0 0 0-18.5-23.5 65.765 65.765 0 0 0-9-2.5 22.818 22.818 0 0 0-5.5-6c-.839-2.64-.339-4.973 1.5-7 8.129-1.138 14.295-5.138 18.5-12 6.722-10.165 10.222-21.331 10.5-33.5A327.757 327.757 0 0 0 630 52.5l-6-12-47 51a114.425 114.425 0 0 1-19 17c-5.455 9.42-12.622 17.254-21.5 23.5l23 11c15.371 15.046 26.204 32.879 32.5 53.5 3.871 14.356.371 26.523-10.5 36.5a38.623 38.623 0 0 1-13 5c-29.836 3.833-58.502-.167-86-12a102.264 102.264 0 0 0-11-8 426.89 426.89 0 0 0-32-28.5 96.054 96.054 0 0 1-31.5 1 315.977 315.977 0 0 1-21.5 1.5 183.51 183.51 0 0 1-29 12 760.577 760.577 0 0 1-61 12.5c.117 1.984-.55 3.65-2 5-23.048 20.094-36.048 45.428-39 76 .802 15.214 5.302 29.214 13.5 42a272.048 272.048 0 0 0 31.5 36.5c6.325 3.248 12.992 4.915 20 5-8.423-12.266-13.09-25.933-14-41 1.516-24.92 7.349-48.753 17.5-71.5 2.722-5.071 6.389-6.071 11-3a249.91 249.91 0 0 0 4 49c8.495 21.169 20.995 39.669 37.5 55.5 9.374 5.852 19.041 10.852 29 15-16.277-19.135-25.777-41.302-28.5-66.5a192.238 192.238 0 0 1 1-54c1.111-6.421 4.944-8.754 11.5-7-.286 26.315 8.214 49.315 25.5 69 15.359 16.37 32.192 30.87 50.5 43.5 2.877 1.946 5.877 3.279 9 4-8.039-11.926-12.873-25.093-14.5-39.5a133.15 133.15 0 0 1 1-43c1.733-6.061 4.733-11.395 9-16 1.233 26.63 11.733 48.797 31.5 66.5 17.481 14.25 36.481 26.25 57 36a701.384 701.384 0 0 0 38.5 10.5c.617.949.451 1.782-.5 2.5-11.106 5.479-22.439 5.813-34 1-6.365-2.52-12.698-5.02-19-7.5a801.103 801.103 0 0 1 9.5 58c2.055 33.614-2.612 66.281-14 98-5.665 13.161-14.498 23.661-26.5 31.5 10.181.453 19.514-2.213 28-8 14.167-8.833 25.667-20.333 34.5-34.5a237.435 237.435 0 0 0 10-50c3.333-2.667 6.667-2.667 10 0 .216 15.263-1.784 30.263-6 45a67.706 67.706 0 0 1-9 20c-1.237 7.033-3.237 13.699-6 20a78.654 78.654 0 0 0 16-13c18.181-24.039 29.514-51.039 34-81 .798-8.713.464-17.38-1-26-8.896-42.024-22.563-82.357-41-121-.903-3.533-.57-6.867 1-10 12.186 11.681 20.852 25.681 26 42a643.985 643.985 0 0 1 26 91c2.316 27.419-2.684 53.419-15 78a205.276 205.276 0 0 1-26.5 40.5 465.5 465.5 0 0 1-34 23c-7.5 1.833-10.333-1-8.5-8.5 4.024-4.387 6.691-9.387 8-15-13.99 13.721-30.823 20.054-50.5 19-1.625 8.823-6.958 12.823-16 12-.009 1.808.491 3.475 1.5 5 8.829 5.663 12.162 13.663 10 24-6.932 11.401-10.599 23.734-11 37-2.58 5.317-5.913 5.983-10 2a14.378 14.378 0 0 1-1.5-6.5 244.105 244.105 0 0 1 4-21.5 19.936 19.936 0 0 1-9-2.5 93.285 93.285 0 0 1-12-11 28.931 28.931 0 0 1-4-1.5c-3.137 5.6-6.304 11.266-9.5 17-6.41 4.82-13.244 5.32-20.5 1.5l-8-4a77.742 77.742 0 0 0-11-10c-2.707-.328-5.374.005-8 1a297.089 297.089 0 0 0-17 18c-4.576 1.476-9.243 1.81-14 1a17.842 17.842 0 0 1-5.5-4.5 309.981 309.981 0 0 1 2 35c-3.843 4.229-7.177 3.895-10-1a290.57 290.57 0 0 1-3-49 14.444 14.444 0 0 1 2.5-5.5c-6.845-1.497-13.012-4.331-18.5-8.5-2.121-4.497-1.788-8.83 1-13l11-11c.741-3.062.575-6.062-.5-9a222.15 222.15 0 0 1-12-2.5 235.475 235.475 0 0 1-48.5-35.5 64.735 64.735 0 0 1-6-9 97.087 97.087 0 0 0 3 22 185.87 185.87 0 0 1 5.5 18c-.579 6.736-3.912 8.569-10 5.5-26.676-27.517-43.176-60.35-49.5-98.5-4.352-45.737 5.148-88.404 28.5-128-22.732-33.798-23.899-68.465-3.5-104 6.709-11.371 14.875-21.538 24.5-30.5-16.941-.108-25.941-8.608-27-25.5.832-10.336 4.499-19.503 11-27.5-11.309-13.121-18.475-28.288-21.5-45.5-15.62 25.661-15.287 50.994 1 76 1.393 3.702.226 5.702-3.5 6-6.9-2.397-11.733-7.064-14.5-14-10.909-32.856-5.076-62.356 17.5-88.5 3.169-.978 6.003-.478 8.5 1.5 1.222 16.225 5.556 31.558 13 46a37.138 37.138 0 0 0 7.5 9c13.163-12.083 28.496-20.25 46-24.5-20.797-9.964-31.797-26.464-33-49.5a31.406 31.406 0 0 1-3.5-7 223.776 223.776 0 0 1-22-27c-20.44 23.865-37.107 50.198-50 79-6.924 16.224-8.257 32.891-4 50a131.318 131.318 0 0 0 10 27 51.057 51.057 0 0 0 8 9c4.517-3.742 9.684-4.909 15.5-3.5.776 1.77.61 3.603-.5 5.5a593.52 593.52 0 0 0-33 30c-9.463 10.928-15.129 23.595-17 38a237.588 237.588 0 0 1-3.5 38.5c-2.221 18.556-12.554 28.556-31 30l-25 1c12.545 6.449 25.545 7.782 39 4a95.638 95.638 0 0 0 20-12c24.251-13.747 26.918-10.747 8 9-24.841 19.828-51.174 21.828-79 6-13.473-7.761-20.64-19.261-21.5-34.5 2.968-2.491 6.135-2.657 9.5-.5 11.86 13.844 26.86 19.178 45 16 6.321-.409 12.154-2.243 17.5-5.5a48.727 48.727 0 0 0 6-15 248.843 248.843 0 0 0 4-42c2.044-13.814 7.378-26.147 16-37a203.43 203.43 0 0 1 20.5-21 90.021 90.021 0 0 1-8.5-10c-13.757-24.756-17.091-50.756-10-78a198.532 198.532 0 0 1 19-42A520.216 520.216 0 0 1 256.5 35c2.959-2.33 6.293-2.996 10-2A327.91 327.91 0 0 1 286 56.5a120.57 120.57 0 0 0 9.5 9c12.788-11.666 27.788-15.833 45-12.5 17.11 2.808 30.943 10.975 41.5 24.5 5.484 9.604 7.984 19.937 7.5 31a225.842 225.842 0 0 1 45-1.5c4.052.627 7.718 2.127 11 4.5 12.892-22.462 31.225-38.962 55-49.5 19.14-8.054 37.807-7.054 56 3 6.537 5.243 9.704 12.076 9.5 20.5a5158.316 5158.316 0 0 0 58.5-63zm-301 41c18.848-.986 34.681 5.347 47.5 19a36.168 36.168 0 0 1 4 7 184.129 184.129 0 0 1 5.5 24c-5.789 23.351-7.956 47.018-6.5 71a110.457 110.457 0 0 1-20.5 8.5 3087.685 3087.685 0 0 1-48 11 125.686 125.686 0 0 1-30-1c-6.47-4.126-8.637-9.959-6.5-17.5 6.263-17.265 17.763-29.765 34.5-37.5 11.522-6.297 23.856-9.297 37-9 2.787-2.167 3.62-5.001 2.5-8.5a230.908 230.908 0 0 0-26.5-18.5c-9.235-7.139-14.568-16.473-16-28 .991-9.304 5.991-15.304 15-18 2.81-.782 5.477-1.616 8-2.5zm199 4c10.488.108 20.154 2.941 29 8.5 2.592 3.81 3.425 7.976 2.5 12.5-6.936 22.437-21.769 36.437-44.5 42-2.868 3.495-2.535 6.662 1 9.5 15.979.66 30.646 5.327 44 14 14.05 15.097 23.384 32.764 28 53-.558 9.534-5.224 15.867-14 19-25.224 3.726-49.89 1.393-74-7a129.47 129.47 0 0 1-18-12L449 181.5a62.065 62.065 0 0 0-1.5-10.5l1.5-1.5a294.978 294.978 0 0 0 2-49c13.467-20.803 31.3-36.636 53.5-47.5 5.935-2.477 11.935-4.31 18-5.5zm-120 50c9.006-.166 18.006 0 27 .5 8.966.888 12.633 5.888 11 15a266.476 266.476 0 0 1-4 38.5c.072 2.06.405 4.06 1 6a74.468 74.468 0 0 1-16.5 3 200.243 200.243 0 0 0-35.5 0 61.011 61.011 0 0 0-2-20 373.3 373.3 0 0 0 6.5-38 9.454 9.454 0 0 1 1.5-2.5 90.298 90.298 0 0 0 11-2.5zm107 442c1.058-7.352-1.442-13.019-7.5-17a25.238 25.238 0 0 1 0-10 64.783 64.783 0 0 1 8-11c2.086-4.167 1.753-8.167-1-12-5.131-4.589-7.131-10.256-6-17a72.85 72.85 0 0 0 8-14c1.447-7.886-1.72-11.053-9.5-9.5a93.285 93.285 0 0 0-12 11 56.64 56.64 0 0 1-7 2.5 133.093 133.093 0 0 0-14-6.5c-3.493-1.004-6.659-.504-9.5 1.5-.667 1.667-.667 3.333 0 5 4.141 3.646 8.641 6.646 13.5 9a19.95 19.95 0 0 0-2.5 8 1051.701 1051.701 0 0 1-8 52 104.416 104.416 0 0 0-4.5-8.5c5.233-9.497 7.4-19.664 6.5-30.5a6.978 6.978 0 0 0-2.5-3.5c-7.838-1.494-14.005 1.006-18.5 7.5-1.563-3.228-4.063-5.395-7.5-6.5-23.342-5.004-39.009 3.496-47 25.5a207.603 207.603 0 0 1-1-45 43.725 43.725 0 0 0 5.5-3c3.469 6.653 8.969 10.153 16.5 10.5 9.147 1.045 18.147.379 27-2a141.407 141.407 0 0 0 16.5-11.5c4.079-7.465 5.912-15.465 5.5-24a440.302 440.302 0 0 0 33-5.5 905.577 905.577 0 0 0 37-16c3.955-2.119 6.622-5.285 8-9.5-1.143-4.753-4.143-6.253-9-4.5-3.831 3.419-8.165 6.086-13 8a203.307 203.307 0 0 1-36 13 428.316 428.316 0 0 1-104 4 216.275 216.275 0 0 1-52-15c-1.735-.651-3.402-.485-5 .5a173.663 173.663 0 0 1 1-42 86.62 86.62 0 0 0 20-1.5c1.652-1.47 2.652-3.303 3-5.5a340.491 340.491 0 0 0-14.5-17c-7.281-12.407-9.948-25.74-8-40 .99-9.62 2.99-18.954 6-28 1.973 18.594 8.64 35.261 20 50a133.857 133.857 0 0 0 29.5 31.5 516.328 516.328 0 0 1 27 14c8.255 3.996 16.588 4.329 25 1 1.102-2.401 1.269-4.901.5-7.5-25.38-22.102-38.38-50.102-39-84 5.346 12.024 12.68 22.69 22 32 18.722 19.761 39.889 36.261 63.5 49.5 13.334 7.061 26.667 7.228 40 .5a3.647 3.647 0 0 0-1-1.5l-10-3c1.771-.535 2.104-1.369 1-2.5a37.138 37.138 0 0 0-4.5 2c-13.706-10.719-22.372-24.719-26-42a71.79 71.79 0 0 1-2-19c5.64 10.313 12.806 19.479 21.5 27.5a329.417 329.417 0 0 0 40 27.5l1 5a1212.583 1212.583 0 0 0 8.5 65c1.3 30.598-3.367 60.264-14 89-4.133 9.3-10.3 16.967-18.5 23zm-240-198a2.428 2.428 0 0 1 2 .5 130.617 130.617 0 0 0 23 24c3.974 2.602 8.307 4.102 13 4.5-4.764 37.022-1.598 73.356 9.5 109 9.917 28.03 26.751 50.863 50.5 68.5-10.589.898-20.589-1.102-30-6a223.638 223.638 0 0 1-39.5-31.5c-17.534-24.902-21.701-51.902-12.5-81 .439-6.065-2.228-8.232-8-6.5a6.978 6.978 0 0 0-2.5 3.5c-6.251 20.278-7.085 40.778-2.5 61.5a615.006 615.006 0 0 1-1 10.5c.927 9.366 1.761 18.7 2.5 28-9.026-11.717-15.692-24.717-20-39-9.925-24.584-12.592-49.918-8-76a194.824 194.824 0 0 1 12-46c4.117-7.9 7.951-15.9 11.5-24zm48 84c22.602 9.525 46.102 15.525 70.5 18a57.078 57.078 0 0 0 2.5 12.5l-6 3a913.24 913.24 0 0 0-15.5 3.5 40.897 40.897 0 0 1-9.5-2.5 114.996 114.996 0 0 0-8-12c-6.833-1.167-9.667 1.667-8.5 8.5 5.62 10.251 8.787 21.251 9.5 33-6.495.994-10.662 4.661-12.5 11-7.269-11.795-12.603-24.462-16-38a358.105 358.105 0 0 1-6.5-37zm123 16h7c-.221 5.531-1.554 10.698-4 15.5-11.213 10.576-24.046 13.076-38.5 7.5a117.889 117.889 0 0 1-5.5-22c13.844.329 27.51-.004 41-1zm-79 31a53.805 53.805 0 0 0 14 1 566.984 566.984 0 0 0 3 64.5l-1 2.5a77.369 77.369 0 0 1-14.5-11c.095-5.59-.905-10.923-3-16a117.312 117.312 0 0 1-8.5-8 9.201 9.201 0 0 1 2-4.5c4.164-.823 7.331-2.99 9.5-6.5.909-7.458.409-14.791-1.5-22zm3 87h13c-.166 5.676.001 11.343.5 17 1.171 1.393 2.671 2.227 4.5 2.5a99.99 99.99 0 0 0 24.5 2.5 322.31 322.31 0 0 0 45.5-5c3.947 2.273 7.947 2.439 12 .5a30.382 30.382 0 0 0 4.5-11.5c4.05-30.079 8.55-60.079 13.5-90 2.732-2.046 5.732-2.88 9-2.5-1.373 8.95 1.294 16.617 8 23-9.979 10.043-12.146 21.543-6.5 34.5a13.92 13.92 0 0 0 4 3c.667 1.333.667 2.667 0 4a98.88 98.88 0 0 0-5 10c-3.509-1.266-7.009-1.099-10.5.5-3.46 2.866-3.793 6.032-1 9.5a19.887 19.887 0 0 1 4 3.5 74.513 74.513 0 0 1 12 2c-3.476 1.254-7.142 1.921-11 2a15.83 15.83 0 0 0-3.5 5.5c-.667 4-.667 8 0 12a110.872 110.872 0 0 0 11 14c.825 2.201.325 4.034-1.5 5.5-2.53 1.422-5.197 1.755-8 1a129.038 129.038 0 0 0-15-12c-4.576-1.476-9.243-1.81-14-1-2.5 1.167-4.333 3-5.5 5.5a73.877 73.877 0 0 1-8 15c-4.15-1.829-8.316-3.663-12.5-5.5-9.997-13.065-21.997-15.065-36-6a175.268 175.268 0 0 0-11 14c-1.525 1.009-3.192 1.509-5 1.5.17-1.322-.163-2.489-1-3.5 2.251-5.094 2.418-10.26.5-15.5a11.532 11.532 0 0 0-4.5-3.5 225.44 225.44 0 0 1-20-7.5 146.925 146.925 0 0 0 10.5-10 45.63 45.63 0 0 0 2.5-15zm87-55a18.991 18.991 0 0 1-1.5 8 46.668 46.668 0 0 0-5.5 10.5c.644 3.305 2.144 6.138 4.5 8.5 1.15 2.254 1.484 4.587 1 7-2.167-3.5-5-6.333-8.5-8.5a16.242 16.242 0 0 0-8 0c-11.434 5.931-21.601 4.431-30.5-4.5-3.052-9.443-.219-16.943 8.5-22.5a58.552 58.552 0 0 1 20-2c3.182 3.198 5.182 7.031 6 11.5 3.495 2.868 6.662 2.535 9.5-1 1.026-2.739 2.526-5.072 4.5-7zm-63 18c9.93 21.978 25.93 27.978 48 18a179.06 179.06 0 0 0 10 12.5c3.677 2.31 7.511 2.81 11.5 1.5.45 3.688.283 7.354-.5 11a1798.833 1798.833 0 0 1-55 5 354.474 354.474 0 0 0-14-2 21.127 21.127 0 0 1 1-9c5.602-.21 11.269-.377 17-.5 5.296-3.766 5.296-7.433 0-11a132.136 132.136 0 0 1-15-1.5 109.936 109.936 0 0 1-3-24zm-27 78c1.208.734 2.541 1.067 4 1-.958 10.195-2.292 9.862-4-1z"/><path style="opacity:.807" d="M629.5 91.5c3.152-.541 5.652.459 7.5 3a342.33 342.33 0 0 1 0 37c-.491 9.965-3.158 19.298-8 28-5.42 9.08-11.92 17.247-19.5 24.5-6.99 2.005-9.824-.495-8.5-7.5 11.599-11.202 19.599-24.536 24-40a100.893 100.893 0 0 0 1-19c-12.217 15.553-26.883 28.22-44 38-5.023-1.108-6.69-4.108-5-9a279.999 279.999 0 0 0 37-32 222.655 222.655 0 0 0 15.5-23z"/><path style="opacity:.789" d="M543.5 247.5c1.811 1.885 2.978 4.219 3.5 7a478.263 478.263 0 0 0 20 78 118.547 118.547 0 0 0 13 26 316.515 316.515 0 0 1 17.5 24.5c-2.413.484-4.746.15-7-1-16.786-12.466-28.62-28.632-35.5-48.5a428.054 428.054 0 0 1-15-55c-1.191-10.636-.025-20.969 3.5-31z"/><path style="opacity:.804" d="M206.5 358.5a81.883 81.883 0 0 1 18 1 98.847 98.847 0 0 1-9 7.5c-27.54 9.536-43.373 28.703-47.5 57.5-3.819 23.066 1.848 43.399 17 61 1.202 2.177 1.702 4.511 1.5 7-12.246-2.069-20.413-9.069-24.5-21-11.487-32.962-7.154-63.628 13-92 9.137-9.144 19.637-16.144 31.5-21z"/><path style="opacity:.807" d="M648.5 358.5c31.068 14.943 49.568 39.609 55.5 74 5.283 33.205-5.883 59.038-33.5 77.5-5.701 3.719-10.868 3.219-15.5-1.5-.667-1.667-.667-3.333 0-5 21.413-8.082 34.079-23.415 38-46 1.96-17.576-1.04-34.242-9-50a351.942 351.942 0 0 0-14-21 241.166 241.166 0 0 1-19-18c-2.006-3.036-2.84-6.369-2.5-10z"/><path style="opacity:.806" d="M377.5 413.5a18.453 18.453 0 0 1 6 .5 410.023 410.023 0 0 0 25 11 77.487 77.487 0 0 0 23-1 293.543 293.543 0 0 0 14.5-7.5c3.311.313 4.811 2.147 4.5 5.5-.369 3.39-2.035 6.057-5 8l-10 5c-22.215 6.156-41.381 1.322-57.5-14.5a24.935 24.935 0 0 1-.5-7z"/><path style="opacity:.807" d="M207.5 487.5c5.066-.592 7.566 1.742 7.5 7 4.855 19.726 2.855 38.726-6 57a148.079 148.079 0 0 1-13 25 1519.249 1519.249 0 0 1-30 43c-21.363 24.578-46.196 44.744-74.5 60.5-16.977 12.42-28.144 28.92-33.5 49.5-8.463 27.862-7.13 55.195 4 82a1619.084 1619.084 0 0 1 36.5 67c-21.96-18.076-38.46-40.743-49.5-68-11.217-35.243-9.55-69.91 5-104 6.256-11.93 14.423-22.43 24.5-31.5a410.504 410.504 0 0 0 62-45 400.968 400.968 0 0 0 41.5-53.5c14.013-20.038 22.513-42.205 25.5-66.5-.854-7.677-.854-15.177 0-22.5z"/><path style="opacity:.811" d="M662.5 521.5c-3.713 46.072 9.453 87.739 39.5 125a1652.628 1652.628 0 0 0 72.5 64.5c19.59 21.999 36.09 46.165 49.5 72.5 18.052 42.563 17.718 84.896-1 127-10.495 21.494-26.995 36.327-49.5 44.5-5.627 1.625-11.294 1.792-17 .5a45.055 45.055 0 0 1 10-9.5c21.593-8.262 37.427-22.762 47.5-43.5 11.182-24.944 14.515-50.944 10-78-2.974-18.592-9.308-35.925-19-52-12.531-21.205-27.364-40.705-44.5-58.5a1289.617 1289.617 0 0 1-64.5-56.5c-32.235-37.371-46.901-80.704-44-130 2.446-3.97 5.946-5.97 10.5-6z"/><path style="opacity:.206" d="M690.5 524.5c.904.709 1.237 1.709 1 3-3.505-.194-3.838-1.194-1-3z"/><path style="opacity:.714" d="M415.5 528.5c7.45.616 10.617 4.616 9.5 12-2.161 3.624-5.328 4.791-9.5 3.5-7.901-5.211-7.901-10.377 0-15.5z"/><path style="opacity:.808" d="M309.5 563.5c4.308-.765 7.142.902 8.5 5-.507 48.499-17.673 89.999-51.5 124.5a297.461 297.461 0 0 1-32 26c-6.99 2.005-9.824-.495-8.5-7.5a385.527 385.527 0 0 0 43-38c24.205-30.778 37.039-65.778 38.5-105-.063-2.014.603-3.681 2-5z"/><path style="opacity:.809" d="M550.5 590.5a18.453 18.453 0 0 1 6 .5c-.717 28.067 5.116 54.901 17.5 80.5 10.219 18.552 24.719 32.719 43.5 42.5 5.353-.106 10.02 1.561 14 5-.569 2.903-2.235 4.903-5 6-9.181 1.495-17.514-.505-25-6-39.709-30.602-57.876-71.102-54.5-121.5.133-2.904 1.3-5.238 3.5-7z"/><path style="opacity:.821" d="M323.5 946.5c.342.838 1.008 1.172 2 1 0 .667.333 1 1 1 3.536 4.417 6.036 9.417 7.5 15a218.391 218.391 0 0 0 11 42c4.709 6.27 10.876 8.44 18.5 6.5 10.681-.42 19.181-4.92 25.5-13.5a229.73 229.73 0 0 0 12-26 28.073 28.073 0 0 1 8.5-7.5c9.609-2.663 19.276-2.997 29-1a367.098 367.098 0 0 0 47 20.5c5.063-1.562 8.23-4.896 9.5-10a569.413 569.413 0 0 1-2-30c.185-7.543 3.352-13.377 9.5-17.5a446.448 446.448 0 0 1 22-9c11.789-2.728 23.122-1.395 34 4l15 11c4.139 2.067 8.473 2.734 13 2l1.5-1.5c2.471-8.201 3.805-16.535 4-25-3.104-4.94-4.104-10.274-3-16 2.553-5.126 6.386-6.293 11.5-3.5 6.303 6.016 13.303 10.683 21 14-12.76-9.425-24.26-20.258-34.5-32.5-2.124-3.167-2.624-6.5-1.5-10 2.265-1.147 4.598-1.314 7-.5a51.24 51.24 0 0 1 12 12c.949.617 1.782.451 2.5-.5 2.112-10.65 2.445-21.316 1-32-1.935-6.198-5.935-8.198-12-6-.034 5.256.799 10.422 2.5 15.5-.921 5.224-4.088 7.391-9.5 6.5-4.85-.76-9.683-1.26-14.5-1.5a131.994 131.994 0 0 1 9 16.5c-.376 3.71-2.376 5.71-6 6-2.412.094-4.245-.906-5.5-3a112.595 112.595 0 0 0-21-29 129.47 129.47 0 0 1-12-18 907.385 907.385 0 0 1-54-135c-1.35-5.273-.35-9.939 3-14l1 5a72.194 72.194 0 0 1 10 17 1060.701 1060.701 0 0 0 47 114c5.106-.497 9.939-1.997 14.5-4.5 16.749-15.078 30.916-32.245 42.5-51.5a104.267 104.267 0 0 0 9-24c4.426-2.632 7.426-1.299 9 4-.65 9.996-3.65 19.329-9 28a314.68 314.68 0 0 1-42.5 51.5c-5.417 3.874-11.417 6.374-18 7.5a69.21 69.21 0 0 0 15 19c5.864-1.316 11.697-1.316 17.5 0-2.534-17.801 4.966-24.968 22.5-21.5 19.228 7.67 31.895 1.836 38-17.5a28.931 28.931 0 0 1-1.5-4c-11.48-6.621-15.48-16.288-12-29 4.636-11.638 12.469-20.471 23.5-26.5a69.365 69.365 0 0 0 13-15 974.212 974.212 0 0 0-12 2 100.2 100.2 0 0 1-20 0c-5.333-3.667-5.333-7.333 0-11 5.307.359 10.641.359 16 0a389.065 389.065 0 0 0 21.5-5.5c5.739.239 8.572 3.239 8.5 9a23.762 23.762 0 0 1-3.5 11 78.664 78.664 0 0 1-9 12 325.89 325.89 0 0 0-23 20c-3.705 4.743-5.039 10.076-4 16l11 11c3.637 8.638 2.97 16.972-2 25-4.677 7.016-10.844 12.183-18.5 15.5a84.902 84.902 0 0 1-13 .5c1.609 14.479.776 28.813-2.5 43a10.756 10.756 0 0 0-2.5 3 333.907 333.907 0 0 1 28.5 25l8 10c3.14 7.38.64 11.38-7.5 12l-6-1.5a569.07 569.07 0 0 1-33.5-20.5c-.245 11.996-2.578 23.663-7 35-3.696 3.764-8.196 5.764-13.5 6a53.89 53.89 0 0 1-14-3.5l-20-13a107.518 107.518 0 0 0-14-3.5 161.108 161.108 0 0 0-23 7.5c-6.605 2.767-9.272 7.767-8 15a127.958 127.958 0 0 1 1.5 28.5 23.663 23.663 0 0 1-2.5 6c1.306 1.412 2.14 3.079 2.5 5a396.157 396.157 0 0 0 11 65 101.027 101.027 0 0 0 7 21c.667 2.67.667 5.33 0 8-3.607 2.77-6.94 2.44-10-1a330.294 330.294 0 0 1-15.5-60c-1.66-9.6-2.66-19.27-3-29-4.837 1.817-9.837 2.317-15 1.5a142.262 142.262 0 0 1-27.5-11.5 766.066 766.066 0 0 0 1 106 14.398 14.398 0 0 0 5.5 2.5 296.04 296.04 0 0 1 33 2.5c6.472-1.62 12.805-1.29 19 1 .048 3.86-1.952 6.69-6 8.5a54.621 54.621 0 0 1-13 1.5 466.547 466.547 0 0 0-37-2.5c-5.219-1.21-9.386-4.04-12.5-8.5a586.261 586.261 0 0 0-2-27c-.301 9.69-.968 19.36-2 29-4.052 5.62-9.552 9.12-16.5 10.5-13.252 2.95-25.752 1.12-37.5-5.5a141.927 141.927 0 0 0-22 27c-1.47 10.89 3.03 18.06 13.5 21.5a202.905 202.905 0 0 0 29 5.5c9.666-.5 17.333-4.67 23-12.5 2.851-1.29 5.851-1.79 9-1.5 1.196 6.98-1.137 12.48-7 16.5-7.394 6.02-15.894 8.85-25.5 8.5a151.448 151.448 0 0 1-35.5-6.5c-19.323-10.63-23.49-25.46-12.5-44.5l17.5-19.5c-3.932-2.36-5.932-5.86-6-10.5a512.964 512.964 0 0 0 2-63c-10.163 2.29-19.83 1.13-29-3.5-3.687-3.21-6.521-7.04-8.5-11.5a270.875 270.875 0 0 1-10-40 35.145 35.145 0 0 0-5-10c-7.686 7.759-16.853 12.759-27.5 15-18.745-1.243-29.245-11.243-31.5-30a554.505 554.505 0 0 1 2-33c-4.953-7.616-11.953-11.95-21-13a196.777 196.777 0 0 0-28.5 6c-3.13-.148-5.63-1.482-7.5-4-1.01-5.564-.343-10.898 2-16a183.074 183.074 0 0 1 18.5-13.5 38.929 38.929 0 0 0 5-5.5c-4.185-5.391-6.185-11.558-6-18.5a78.353 78.353 0 0 1 4-20.5l-1-1c-21.895 10.483-31.062 3.816-27.5-20l6-16c.652-3.094.318-6.094-1-9-5.982-13.316-15.816-22.483-29.5-27.5-1.978-2.497-2.478-5.331-1.5-8.5 8.679-5.898 18.179-10.065 28.5-12.5l14-8c7.603-2.067 9.77.433 6.5 7.5-8.853 8.511-19.353 14.011-31.5 16.5 12.164 7.501 20.664 18.001 25.5 31.5a49.226 49.226 0 0 1 0 14c-4.12 7.855-6.287 16.188-6.5 25 5.778-.382 11.111-2.215 16-5.5 9.97-2.121 17.804 1.046 23.5 9.5a53.212 53.212 0 0 1 6 11l7.5-9c-6.287-4.452-11.787-9.786-16.5-16a610.588 610.588 0 0 1-16-29c-4.779-11.562-7.113-23.562-7-36 3-2.667 6-2.667 9 0 3.272 19.487 10.272 37.487 21 54 4.409 7.41 10.409 13.077 18 17a725.506 725.506 0 0 0 66-90 498.217 498.217 0 0 0 17-40c1.848-2.541 4.348-3.541 7.5-3a40.423 40.423 0 0 1 .5 14c-8.878 25.83-21.545 49.497-38 71a2829.433 2829.433 0 0 1-70.5 88.5c-9.072 1.273-11.405-2.227-7-10.5-1.446-5.558-3.946-10.558-7.5-15-4.364 9.622-4.864 19.289-1.5 29a41.73 41.73 0 0 1 9-1c.764 4.64-.403 8.64-3.5 12a125.256 125.256 0 0 1-25.5 20.5 115.29 115.29 0 0 1 30-2c10.962 3.056 19.129 9.556 24.5 19.5a91.162 91.162 0 0 1-2.5 31c.786 7.875 3.786 14.708 9 20.5 4.94 3.104 10.274 4.104 16 3l19-13c3.267-1.82 6.6-1.986 10-.5zm102 27h3c.112 24.847.778 49.68 2 74.5-.26 14.9-1.26 29.73-3 44.5-9.6 5.62-19.6 6.45-30 2.5a404.877 404.877 0 0 1-16.5-9.5c.155-16.83.655-33.66 1.5-50.5-.08-4.36-.414-8.69-1-13 6.408-5.07 12.241-10.91 17.5-17.5a160.723 160.723 0 0 0 12-26l2.5-2.5a289.674 289.674 0 0 1 12-2.5zm14 4c1.331 7.47 1.998 15.304 2 23.5l-.5 23.5a799.19 799.19 0 0 1-1.5-47z"/><path style="opacity:.82" d="M138.5 723.5c8.623.213 11.456 4.547 8.5 13-12.545 63.52-4.878 124.52 23 183 9.206 16.548 20.706 31.381 34.5 44.5a536.071 536.071 0 0 1 42 36c-37.848-12.826-66.348-36.993-85.5-72.5-16.519-32.733-26.519-67.4-30-104a924.965 924.965 0 0 1-2-52c-9.135 35.952-10.969 71.952-5.5 108-2.253-.753-4.087-2.086-5.5-4-9.961-35.964-9.961-71.964 0-108 3.365-16.39 10.198-31.057 20.5-44z"/><path style="opacity:.804" d="M717.5 783.5c10.626 2.722 18.792 8.722 24.5 18 8.498 14.671 14.498 30.337 18 47 5.474 18.646 7.474 37.646 6 57-.989 12.637-5.322 23.97-13 34-2.018-2.022-2.852-4.522-2.5-7.5a232.16 232.16 0 0 0 5-38.5c-2.076-25.883-7.91-50.883-17.5-75a441.184 441.184 0 0 0-19-30 42.47 42.47 0 0 1-1.5-5z"/><path style="opacity:.817" d="M705.5 801.5c3.732.45 6.898 2.117 9.5 5 18.636 37.766 22.636 77.099 12 118-11.948 39.727-36.114 69.56-72.5 89.5a143.818 143.818 0 0 1-41 11c-16.733.96-33.4.62-50-1-2.347-1.19-3.18-3.02-2.5-5.5 1.833-1.17 3.667-2.33 5.5-3.5 58.203 7.8 103.37-12.37 135.5-60.5 22.423-42.279 25.423-85.946 9-131a68.874 68.874 0 0 0-6-15c-.703-2.429-.537-4.762.5-7z"/><path style="opacity:.807" d="M326.5 948.5c-.667 0-1-.333-1-1-.342-.838-1.008-1.172-2-1-19.15-16.318-35.65-34.984-49.5-56-5.096-7.954-7.763-16.62-8-26a32.364 32.364 0 0 0 5.5-4c1.094 1.368.76 2.535-1 3.5l13.5 21.5a350.308 350.308 0 0 1 22 28c18.136 22.904 41.802 35.904 71 39 13.536-.926 26.369-4.426 38.5-10.5l47-39c23.209-17.409 49.209-28.409 78-33a107.127 107.127 0 0 1 27.5 1.5c1.811.924 1.645 1.757-.5 2.5l-15 5c-21.111 2.926-41.111 9.26-60 19a512.082 512.082 0 0 0-32 21 572.515 572.515 0 0 0-30 27c-25.63 17.994-53.297 21.994-83 12-7.022-3.179-14.022-6.345-21-9.5z"/><path style="opacity:.813" d="M513.5 1114.5c12.258-1.33 20.758 4 25.5 16 1.082 20.27-8.418 32.43-28.5 36.5-19.848 2.79-38.182-1.21-55-12-11.261-8.78-16.095-20.28-14.5-34.5 3.206-1.62 5.872-.96 8 2a152.653 152.653 0 0 0 8 18c16.082 13.8 34.582 18.63 55.5 14.5 8.805-2.96 14.139-8.96 16-18-1.597-5.94-5.097-10.44-10.5-13.5-2.079-2.82-3.579-5.82-4.5-9z"/></svg>