<?xml version="1.0" encoding="UTF-8"?>
<svg version="1.1" xmlns="http://www.w3.org/2000/svg" width="871" height="1263">
<path d="M0 0 C2.84477736 2.82375684 4.37579197 6.40594284 6.03125 10.015625 C7.40864817 12.74677399 7.40864817 12.74677399 10.1484375 14.04296875 C13.44251634 16.11232597 13.58368534 17.78113613 14.4609375 21.51171875 C16.11331191 27.5282272 18.51363347 32.23051997 21.77734375 37.515625 C25.25236427 43.39238757 28.20321255 49.70847282 30.50390625 56.140625 C31.507649 58.68346527 31.507649 58.68346527 33.46508789 60.88574219 C35.53780853 63.51320847 37.0578146 66.06062903 38.6015625 69.0234375 C39.39433594 70.54227539 39.39433594 70.54227539 40.203125 72.09179688 C40.74195313 73.13787109 41.28078125 74.18394531 41.8359375 75.26171875 C42.39023438 76.31939453 42.94453125 77.37707031 43.515625 78.46679688 C47.5859375 86.31167257 47.5859375 86.31167257 47.5859375 88.57421875 C52.60953597 87.09530892 56.92926103 84.94828762 61.4609375 82.38671875 C62.16694092 81.98960693 62.87294434 81.59249512 63.6003418 81.18334961 C68.20065848 78.53236467 72.27514814 75.69198511 76.10546875 71.984375 C77.5859375 70.57421875 77.5859375 70.57421875 80.5859375 68.57421875 C84.3370181 61.68356228 85.9283701 53.784206 87.6484375 46.19921875 C88.62548655 41.99039205 89.60507131 37.78215745 90.5859375 33.57421875 C90.96697632 31.91821655 90.96697632 31.91821655 91.35571289 30.22875977 C91.60957764 29.16069092 91.86344238 28.09262207 92.125 26.9921875 C92.46265381 25.55008911 92.46265381 25.55008911 92.80712891 24.07885742 C93.99719288 20.25162661 95.18651516 18.70873975 98.5859375 16.57421875 C101.72939061 16.57421875 103.60536972 16.96221705 106.26953125 18.625 C108.40144602 21.78175214 107.79206094 25.11558336 107.5234375 28.76171875 C107.43618408 30.02532227 107.43618408 30.02532227 107.34716797 31.31445312 C104.82918453 63.35301731 95.06237582 95.50257144 80.30078125 124.046875 C77.97176609 128.83753717 75.92210995 133.73647196 73.8359375 138.63671875 C69.60983689 148.5114649 64.84623286 157.96291093 59.74121094 167.40576172 C57.95355297 170.76120932 56.26805446 174.16496984 54.5859375 177.57421875 C51.80915699 183.17913737 48.9476034 188.73231156 46.0234375 194.26171875 C45.18091529 195.86063794 44.33847124 197.45959831 43.49609375 199.05859375 C41.93678281 202.01748402 40.37347262 204.97411154 38.80419922 207.92773438 C31.58894693 221.51453122 24.57474181 234.99018147 19.19921875 249.4375 C18.16000395 252.21924957 16.98099064 254.81850168 15.59765625 257.4453125 C13.15110861 262.21704775 11.61832321 267.19788934 10.0859375 272.32421875 C9.78478027 273.32267822 9.48362305 274.3211377 9.17333984 275.34985352 C-2.33240136 314.48732232 -1.98965153 355.30849691 17.69946289 391.73095703 C23.4067889 402.00393085 29.27771243 411.6051435 37.38671875 420.1953125 C39.6730623 422.66846209 41.75668576 425.23791588 43.8359375 427.88671875 C46.56799988 431.35600431 49.41638079 434.49270528 52.5859375 437.57421875 C53.93121144 439.23126238 55.26617302 440.896787 56.5859375 442.57421875 C53.25018022 426.0097375 53.25018022 426.0097375 48.61767578 409.80004883 C43.26964476 393.07890971 41.57353303 374.07785314 40.5859375 356.57421875 C40.54597656 355.87570801 40.50601563 355.17719727 40.46484375 354.45751953 C39.24276968 328.98338563 44.0160721 302.52989578 53.62597656 278.95507812 C54.78380478 276.08347569 55.89889477 273.19642195 57.015625 270.30859375 C57.89233753 268.0634537 58.76994366 265.81866239 59.6484375 263.57421875 C60.05989014 262.51106445 60.47134277 261.44791016 60.89526367 260.35253906 C62.97462708 255.10961122 65.17376797 250.35426748 68.28442383 245.65283203 C71.00815967 241.3028251 73.14341102 236.61638312 75.3984375 232.01171875 C78.73413851 225.24852249 82.1055998 218.53793415 85.7734375 211.94921875 C89.56022222 204.96856967 92.52696398 197.71764176 95.44213867 190.33544922 C95.79381104 189.44615723 96.1454834 188.55686523 96.5078125 187.640625 C96.81299805 186.85631104 97.11818359 186.07199707 97.43261719 185.26391602 C98.38876404 183.03405364 99.42509149 180.92436725 100.53833008 178.7722168 C102.57876559 174.73375265 104.0519975 170.64377276 105.42578125 166.33984375 C105.67461563 165.5805658 105.92345001 164.82128784 106.17982483 164.03900146 C106.96691441 161.63594512 107.74600276 159.23041439 108.5234375 156.82421875 C114.24109346 139.16353307 114.24109346 139.16353307 117.14453125 132.47265625 C120.29815197 125.16196134 122.46153412 117.57419861 124.7109375 109.94921875 C125.14393805 108.49852073 125.57752935 107.0479989 126.01171875 105.59765625 C127.51952242 100.55427578 129.01436134 95.5070945 130.50708008 90.45922852 C130.76900146 89.57807373 131.03092285 88.69691895 131.30078125 87.7890625 C131.51855225 87.05292725 131.73632324 86.31679199 131.96069336 85.55834961 C132.78438819 82.94446133 133.77172963 80.40821053 134.765625 77.85546875 C136.23388625 73.77230412 137.40553125 69.59384338 138.62109375 65.4296875 C139.5859375 62.57421875 139.5859375 62.57421875 141.5859375 59.57421875 C144.0859375 59.26171875 144.0859375 59.26171875 146.5859375 59.57421875 C148.5859375 61.57421875 148.5859375 61.57421875 148.89575195 64.47680664 C148.73024502 69.86823631 147.08153808 74.9729347 145.62890625 80.1328125 C145.32527664 81.23593277 145.02164703 82.33905304 144.70881653 83.4756012 C144.06651636 85.80236449 143.41991378 88.12794386 142.76928711 90.45239258 C141.778498 93.99363172 140.80120719 97.53837904 139.82617188 101.08398438 C139.19870807 103.35047966 138.57047804 105.61676299 137.94140625 107.8828125 C137.6506572 108.93512558 137.35990814 109.98743866 137.06034851 111.07164001 C135.67185556 116.01880304 134.16460547 120.82890067 132.30134583 125.61595154 C130.93001839 129.36964779 129.94788579 133.23634368 128.9140625 137.09375 C128.409114 138.94082626 127.90389658 140.78782902 127.3984375 142.63476562 C126.62093263 145.49185306 125.84594199 148.34955874 125.07617188 151.20874023 C121.74954773 163.53637553 118.01297744 175.54464594 113.40533447 187.45571899 C112.63739073 189.44118963 111.88148083 191.43071831 111.13037109 193.42260742 C106.17775846 206.4886755 101.07098347 219.3107746 94.55517578 231.67626953 C92.35365012 235.98726714 90.37374688 240.41150642 88.37426758 244.8190918 C88.0677124 245.48336182 87.76115723 246.14763184 87.4453125 246.83203125 C87.18202148 247.41098145 86.91873047 247.98993164 86.64746094 248.58642578 C85.5859375 250.57421875 85.5859375 250.57421875 83.65991211 253.39819336 C75.82325449 265.39902666 74.04673097 278.72764064 72.2734375 292.63671875 C72.0218476 294.47353616 71.76859916 296.31012718 71.51367188 298.14648438 C65.26154517 343.9304426 67.84679489 388.87298235 83.5859375 432.57421875 C83.64539551 431.68005249 83.64539551 431.68005249 83.70605469 430.76782227 C88.21209534 365.38666609 88.21209534 365.38666609 100.56298828 351.32299805 C102.79162187 348.29473525 103.38000889 346.29366725 104.04296875 342.62109375 C104.2649292 341.45602295 104.48688965 340.29095215 104.71557617 339.09057617 C104.94092041 337.84767822 105.16626465 336.60478027 105.3984375 335.32421875 C105.90451737 332.70928087 106.4150751 330.09601796 106.9375 327.484375 C107.06930161 326.82419876 107.20110321 326.16402252 107.3368988 325.48384094 C108.69189578 318.82977524 110.42040959 312.29392574 112.2734375 305.76171875 C112.70136597 304.24433105 112.70136597 304.24433105 113.13793945 302.69628906 C114.53018084 297.8733271 116.06183701 293.16722242 117.87817383 288.48852539 C118.62605762 286.46570484 119.25805902 284.43194333 119.8671875 282.36328125 C120.06957031 281.67621094 120.27195312 280.98914063 120.48046875 280.28125 C120.89040298 278.87160518 121.29386635 277.46006523 121.69140625 276.046875 C123.25631413 270.79396766 123.25631413 270.79396766 126.5859375 268.57421875 C131.12647804 269.11475929 131.12647804 269.11475929 132.5859375 270.57421875 C133.01515183 277.19822022 131.75651024 282.8778961 130.06640625 289.2578125 C129.80716873 290.27158463 129.54793121 291.28535675 129.28083801 292.32984924 C128.45405471 295.55954077 127.61488213 298.78581861 126.7734375 302.01171875 C123.49063039 314.65009378 120.25146298 327.19580871 118.16479492 340.09350586 C117.69157513 342.93901177 117.13559178 345.71527489 116.46875 348.51953125 C109.69721088 377.86286744 110.99204819 414.20371751 120.5859375 442.57421875 C120.97636837 443.85916419 121.36153452 445.14571784 121.7421875 446.43359375 C125.56144714 459.2920261 130.35832646 471.20730474 137.5859375 482.57421875 C138.32676651 483.81097743 139.06483432 485.04939247 139.80078125 486.2890625 C145.76478661 496.23067079 152.36490181 505.35318306 160.5859375 513.57421875 C158.83622267 509.59492663 157.08611335 505.61580812 155.3359375 501.63671875 C154.84480469 500.51974609 154.35367188 499.40277344 153.84765625 498.25195312 C153.36425781 497.15302734 152.88085938 496.05410156 152.3828125 494.921875 C151.90690674 493.837854 151.43100098 492.75383301 150.94067383 491.63696289 C150.10198239 489.74087638 149.25456515 487.84859131 148.39331055 485.96264648 C136.86773872 460.70289888 140.24460112 427.38522029 149.61474609 401.76074219 C154.17438172 389.92509228 159.3296883 378.47995298 165.55322266 367.4296875 C167.53836642 363.86299894 169.43014678 360.24622439 171.3359375 356.63671875 C171.70082275 355.95037354 172.06570801 355.26402832 172.44165039 354.55688477 C174.59410055 350.49892228 176.67013706 346.41376991 178.67114258 342.27880859 C180.51374965 338.84537317 182.45733679 336.99744402 186.0859375 335.63671875 C189.23344236 335.55803113 190.31960764 336.47576518 192.5859375 338.57421875 C192.12897254 343.32665429 191.51745933 345.88267274 188.5859375 349.57421875 C182.37512224 361.58025569 184.44577944 370.79537097 186.5234375 383.63671875 C187.96770416 392.60462224 189.36218339 401.5731852 190.5859375 410.57421875 C191.6996875 410.53941406 192.8134375 410.50460937 193.9609375 410.46875 C197.5859375 410.57421875 197.5859375 410.57421875 199.5859375 412.26171875 C200.5859375 414.57421875 200.5859375 414.57421875 200.5859375 417.13671875 C199.26518006 420.35606501 197.65919542 421.07506854 194.5859375 422.57421875 C193.9259375 422.90421875 193.2659375 423.23421875 192.5859375 423.57421875 C192.72663507 427.53275176 192.87444798 431.49098984 193.0234375 435.44921875 C193.06275391 436.5578125 193.10207031 437.66640625 193.14257812 438.80859375 C193.39577969 445.43078865 193.82695699 451.9901792 194.5859375 458.57421875 C195.7203125 458.88359375 196.8546875 459.19296875 198.0234375 459.51171875 C201.5859375 460.57421875 201.5859375 460.57421875 202.5859375 461.57421875 C202.7734375 464.51171875 202.7734375 464.51171875 202.5859375 467.57421875 C200.5859375 469.57421875 200.5859375 469.57421875 198.640625 469.76953125 C196.62239583 469.70442708 194.60416667 469.63932292 192.5859375 469.57421875 C192.6478125 470.72921875 192.7096875 471.88421875 192.7734375 473.07421875 C192.80854712 480.36531692 191.02738021 487.4627989 189.5859375 494.57421875 C190.48675049 494.3311499 191.38756348 494.08808105 192.31567383 493.83764648 C199.00178827 492.04282339 205.69271307 490.28344347 212.41015625 488.609375 C214.37454442 488.11641986 216.33877119 487.62282556 218.30297852 487.12915039 C219.62125538 486.79970368 220.94027747 486.47322536 222.26000977 486.1496582 C231.04576995 483.99078493 239.34890465 481.35454517 247.5859375 477.57421875 C248.23473877 477.28087646 248.88354004 476.98753418 249.55200195 476.68530273 C258.37766822 472.54783039 266.39533192 467.16134393 274.3984375 461.63671875 C275.35274658 460.98082764 276.30705566 460.32493652 277.2902832 459.64916992 C282.98861938 455.64684361 288.2223449 451.37572684 293.30957031 446.61962891 C295.61768326 444.54569387 298.01654904 442.71284039 300.5234375 440.88671875 C306.53137812 436.16551817 310.87618501 430.2671203 315.39648438 424.171875 C316.4156898 422.80289301 317.45939809 421.45221246 318.5078125 420.10546875 C324.11394784 412.88965099 326.51185114 405.76878494 328.6484375 396.94921875 C328.90431641 395.93214844 329.16019531 394.91507813 329.42382812 393.8671875 C330.97735515 387.56521927 332.19786405 381.28201502 333.15405273 374.86181641 C333.5859375 372.57421875 333.5859375 372.57421875 334.5859375 371.57421875 C335.7640862 364.64637254 335.73507682 357.77419037 335.7109375 350.76171875 C335.71480469 349.64990234 335.71867187 348.53808594 335.72265625 347.39257812 C336.59719089 335.8229181 336.59719089 335.8229181 333.5859375 325.57421875 C333.1157175 322.95676901 332.69976772 320.34930891 332.31640625 317.71875 C332.19526459 316.91317657 332.07412292 316.10760315 331.9493103 315.27761841 C331.5539678 312.64781358 331.16372217 310.01727851 330.7734375 307.38671875 C328.949203 295.19485528 327.12245828 283.02159328 324.6159668 270.9465332 C323.74410661 266.53672958 323.33836852 263.00477453 324.5859375 258.57421875 C325.2459375 257.91421875 325.9059375 257.25421875 326.5859375 256.57421875 C329.7109375 256.94921875 329.7109375 256.94921875 332.5859375 257.57421875 C337.24716387 269.16438122 339.002686 281.4586538 341.1484375 293.69921875 C341.34670135 294.8171582 341.54496521 295.93509766 341.74923706 297.08691406 C347.47265047 329.42047199 351.93326628 360.20710468 343.96630859 392.58178711 C343.46092325 394.89098999 343.46092325 394.89098999 343.5859375 398.57421875 C344.1428125 397.89359375 344.6996875 397.21296875 345.2734375 396.51171875 C347.5859375 394.57421875 347.5859375 394.57421875 350.2109375 394.69921875 C352.5859375 395.57421875 352.5859375 395.57421875 354.5859375 397.57421875 C354.91927083 402.90755208 354.91927083 402.90755208 353.5859375 405.57421875 C352.9259375 405.57421875 352.2659375 405.57421875 351.5859375 405.57421875 C351.31426758 406.28739258 351.04259766 407.00056641 350.76269531 407.73535156 C348.66802575 412.78863323 345.94201233 417.52017925 343.3359375 422.32421875 C342.77519531 423.3709375 342.21445312 424.41765625 341.63671875 425.49609375 C338.67027496 430.97682131 335.55693652 436.21814888 332.03710938 441.35839844 C328.87079409 446.19310193 326.26900856 451.36795199 323.5546875 456.46484375 C321.18443393 460.85717805 318.78801615 464.7267599 315.5859375 468.57421875 C313.66146558 471.37492702 311.81845343 474.22880261 309.9609375 477.07421875 C304.82268278 484.8584972 299.44851357 492.31774348 293.5859375 499.57421875 C292.97234375 500.3425 292.35875 501.11078125 291.7265625 501.90234375 C288.10700224 506.25245746 284.15797167 509.67766913 279.6015625 513.03125 C277.76548034 514.43677801 276.17514317 515.89951784 274.5859375 517.57421875 C291.18501571 516.82207302 306.73353998 513.34446848 322.5859375 508.57421875 C323.28734863 508.36506836 323.98875977 508.15591797 324.71142578 507.94042969 C331.59786781 505.86033682 337.92809559 503.73288447 343.8671875 499.578125 C346.69741448 497.92501515 349.34886137 497.77653601 352.5859375 497.57421875 C352.5859375 496.91421875 352.5859375 496.25421875 352.5859375 495.57421875 C354.14441406 494.73890625 354.14441406 494.73890625 355.734375 493.88671875 C363.99753675 489.39235282 371.42053408 484.71254074 378.5859375 478.57421875 C379.36066406 477.98125 380.13539063 477.38828125 380.93359375 476.77734375 C387.71949424 471.53321664 393.75931153 465.61440484 399.8359375 459.57421875 C400.68784668 458.73149414 401.53975586 457.88876953 402.41748047 457.02050781 C407.58871336 451.82399019 412.22114549 446.45977539 416.5859375 440.57421875 C417.41348101 439.50605966 418.24154878 438.43830638 419.0703125 437.37109375 C440.60229896 408.41428437 445.03992647 380.26100323 445.02172852 345.01416016 C445.02530091 341.79947926 445.05259569 338.58562636 445.08203125 335.37109375 C445.07384872 334.40330994 445.0656662 333.43552612 445.05723572 332.43841553 C445.12318423 326.41986086 445.95243167 321.52017871 449.5859375 316.57421875 C452.5859375 314.57421875 452.5859375 314.57421875 455.6171875 314.640625 C458.5859375 315.57421875 458.5859375 315.57421875 460.0546875 317.6640625 C460.395 318.60378906 460.7353125 319.54351563 461.0859375 320.51171875 C461.48554687 321.58679688 461.88515625 322.661875 462.296875 323.76953125 C462.73089878 325.03628297 463.16024518 326.30464299 463.5859375 327.57421875 C463.83375977 328.30608398 464.08158203 329.03794922 464.33691406 329.79199219 C465.3888867 332.91141043 466.43612122 336.03158208 467.44335938 339.16577148 C468.50599821 342.45886012 469.59935696 345.60409258 471.01953125 348.765625 C473.48242156 354.35418472 474.91249177 360.3238031 476.5234375 366.19921875 C476.78764496 367.15714828 476.78764496 367.15714828 477.05718994 368.13442993 C479.97663585 378.76026411 482.345143 389.41886227 484.17871094 400.28662109 C484.61076314 402.71367691 485.11531166 405.11938226 485.625 407.53125 C489.00756534 424.38056198 488.89305371 442.75837363 485.5859375 459.57421875 C485.29824203 461.34943451 485.01624712 463.12557853 484.73828125 464.90234375 C480.46969479 491.69736468 480.46969479 491.69736468 474.5859375 502.57421875 C488.08835043 494.83916813 501.4623025 486.5267209 512.5859375 475.57421875 C513.215 475.01734375 513.8440625 474.46046875 514.4921875 473.88671875 C528.81890282 460.81673285 536.12318155 434.51518864 537.5859375 415.57421875 C537.74507332 411.57319215 537.77647469 407.57814666 537.7734375 403.57421875 C537.77263184 402.47150635 537.77182617 401.36879395 537.77099609 400.23266602 C537.69121806 389.52598419 536.84114383 379.30568135 534.15283203 368.9074707 C533.48165094 366.1449911 532.91835737 363.36938929 532.359375 360.58203125 C527.79041078 337.94534085 521.63095065 316.11721695 512.55957031 294.85644531 C511.62325914 292.66170186 510.70952979 290.45856627 509.796875 288.25390625 C502.58659453 271.1663962 493.61942309 254.67950609 483.65234375 239.05078125 C480.04443087 233.17026844 477.01611192 226.9342073 473.88427734 220.79223633 C471.75794217 216.64117407 469.63914255 212.55529865 467.10546875 208.63671875 C463.77892691 203.45393346 461.16713245 197.91046082 458.4609375 192.38671875 C457.41852371 190.26731478 456.37431538 188.1487923 455.328125 186.03125 C454.8729248 185.1028833 454.41772461 184.1745166 453.94873047 183.21801758 C453.0498901 181.47428014 452.09352074 179.75887043 451.0793457 178.07958984 C449.5162869 175.45737153 448.2242761 172.80443495 446.94921875 170.03125 C446.4586499 168.96745117 445.96808105 167.90365234 445.46264648 166.80761719 C444.94645752 165.6787207 444.43026855 164.54982422 443.8984375 163.38671875 C443.360979 162.21270508 442.82352051 161.03869141 442.26977539 159.82910156 C441.19372128 157.47542468 440.11906829 155.12110666 439.04589844 152.76611328 C437.84576342 150.14227295 436.6314293 147.52624833 435.40625 144.9140625 C430.42171564 134.16022708 426.35840157 123.08710945 422.35327148 111.94042969 C421.90798096 110.70196289 421.46269043 109.46349609 421.00390625 108.1875 C420.60969482 107.08188721 420.2154834 105.97627441 419.80932617 104.8371582 C418.96595084 102.58776461 418.0572998 100.36213979 417.09692383 98.16015625 C415.49142998 94.34992945 414.21149324 90.53174637 412.9921875 86.5859375 C412.75939087 85.8426973 412.52659424 85.09945709 412.28674316 84.33369446 C411.54970026 81.97742759 410.81780173 79.61959857 410.0859375 77.26171875 C409.59537647 75.69195588 409.10449363 74.12229355 408.61328125 72.55273438 C406.41694303 65.52390537 404.23435679 58.49239099 402.15869141 51.42675781 C401.65832108 49.80833923 401.06679336 48.21867572 400.4609375 46.63671875 C398.32476686 39.1601215 397.58617663 30.9205719 400.5859375 23.57421875 C402.67263966 20.97612761 403.21847797 20.61921379 406.6484375 20.19921875 C408.1025 20.38484375 408.1025 20.38484375 409.5859375 20.57421875 C411.5859375 23.57421875 411.5859375 23.57421875 411.0234375 27.51171875 C409.91290242 35.92199055 413.10000696 43.56985611 416.27734375 51.234375 C418.68728105 57.14863819 420.87654287 63.11724312 422.953125 69.15625 C423.23987595 69.98876282 423.52662689 70.82127563 423.82206726 71.67901611 C424.9975296 75.1008108 426.16834069 78.52412496 427.33056641 81.95043945 C431.24920206 93.47836509 435.63934531 104.61131284 440.722229 115.67526245 C441.87916571 118.2189126 442.97306001 120.78682291 444.0546875 123.36328125 C444.39371094 124.17039551 444.73273438 124.97750977 445.08203125 125.80908203 C445.57896484 126.99219971 445.57896484 126.99219971 446.0859375 128.19921875 C449.02507246 135.12372919 452.13234023 141.90985579 455.56201172 148.60449219 C458.62293623 154.58065516 461.47215991 160.64886273 464.265625 166.75439453 C466.5649164 171.69508273 469.18067418 176.32523438 472.02441406 180.97216797 C475.27133836 186.38269316 478.18859388 191.98140489 481.17382812 197.5390625 C483.74178573 202.28961796 486.3835694 206.93824739 489.28442383 211.49267578 C491.94087876 215.74120978 494.4072489 220.10250328 496.8984375 224.44921875 C497.72311523 225.87234375 497.72311523 225.87234375 498.56445312 227.32421875 C499.08330078 228.22914063 499.60214844 229.1340625 500.13671875 230.06640625 C500.60762939 230.8847998 501.07854004 231.70319336 501.5637207 232.54638672 C502.5859375 234.57421875 502.5859375 234.57421875 502.5859375 236.57421875 C503.2459375 236.57421875 503.9059375 236.57421875 504.5859375 236.57421875 C504.98385498 237.31994141 505.38177246 238.06566406 505.79174805 238.83398438 C507.28983585 241.63824809 508.79045621 244.44113801 510.29272461 247.24316406 C510.93857663 248.44901174 511.58345868 249.65537952 512.22729492 250.86230469 C516.49457357 258.92329764 516.49457357 258.92329764 521.21875 266.71875 C524.2706309 271.4772955 526.48422037 276.6049195 528.7734375 281.76171875 C529.21107422 282.73302734 529.64871094 283.70433594 530.09960938 284.70507812 C531.27483704 287.32287533 532.44537725 289.94113155 533.5859375 292.57421875 C534.14921753 293.874198 534.14921753 293.874198 534.72387695 295.20043945 C535.5859375 297.57421875 535.5859375 297.57421875 535.5859375 300.57421875 C536.2459375 300.57421875 536.9059375 300.57421875 537.5859375 300.57421875 C554.53176017 354.62452955 570.18050018 412.59382297 542.5859375 465.94921875 C539.41760506 471.7830356 535.56190908 476.22396815 530.5859375 480.57421875 C529.82667969 481.35925781 529.06742188 482.14429688 528.28515625 482.953125 C525.23489751 485.91509839 522.02304819 488.39661246 518.5859375 490.88671875 C517.92513184 491.3667334 517.26432617 491.84674805 516.58349609 492.34130859 C507.58120233 498.80975127 498.16210144 504.35284352 488.3984375 509.57421875 C487.65480957 509.9727002 486.91118164 510.37118164 486.14501953 510.78173828 C480.83276658 513.57421875 480.83276658 513.57421875 478.5859375 513.57421875 C478.5859375 514.23421875 478.5859375 514.89421875 478.5859375 515.57421875 C469.85382982 520.42779721 469.85382982 520.42779721 465.5859375 519.57421875 C463.0811264 517.69561042 462.59893125 516.61320001 461.5859375 513.57421875 C461.2559375 513.90421875 460.9259375 514.23421875 460.5859375 514.57421875 C458.24649014 514.2869182 455.9120232 513.95485096 453.5859375 513.57421875 C453.2559375 511.26421875 452.9259375 508.95421875 452.5859375 506.57421875 C453.6584375 505.95546875 454.7309375 505.33671875 455.8359375 504.69921875 C462.58133264 499.85461404 463.92246054 491.08323955 465.26171875 483.31445312 C465.48408203 481.92709961 465.48408203 481.92709961 465.7109375 480.51171875 C466.02434042 478.64554683 466.33942628 476.77965671 466.65625 474.9140625 C466.80739258 474.00897949 466.95853516 473.10389648 467.11425781 472.17138672 C467.54487884 469.80029642 468.07036294 467.48122926 468.640625 465.140625 C470.94365165 454.98100669 470.78011002 444.43730776 470.7734375 434.07421875 C470.77263184 432.76428955 470.77182617 431.45436035 470.77099609 430.10473633 C470.69045984 417.23393692 470.03999585 404.5313669 467.12548828 391.96850586 C466.11999009 387.50655078 465.30545032 383.00640362 464.4609375 378.51171875 C464.18830078 377.07022461 464.18830078 377.07022461 463.91015625 375.59960938 C463.46747344 373.25805029 463.0260903 370.91625448 462.5859375 368.57421875 C462.54629883 369.21222412 462.50666016 369.85022949 462.46582031 370.50756836 C461.36946152 387.37241353 459.8887871 403.12920342 452.5859375 418.57421875 C452.20759766 419.37512939 451.82925781 420.17604004 451.43945312 421.0012207 C442.18697925 440.31976118 442.18697925 440.31976118 435.5859375 448.57421875 C435.10721191 449.17717773 434.62848633 449.78013672 434.13525391 450.40136719 C430.33949904 455.17089015 426.4802157 459.88494694 422.5859375 464.57421875 C421.9465625 465.34894531 421.3071875 466.12367188 420.6484375 466.921875 C412.01878621 477.0832894 402.60922073 486.06711065 391.5859375 493.57421875 C390.37641273 494.43792496 389.16952418 495.30533099 387.96484375 496.17578125 C387.342146 496.62542236 386.71944824 497.07506348 386.07788086 497.53833008 C385.46178955 497.98329834 384.84569824 498.4282666 384.2109375 498.88671875 C373.56433094 506.57421875 373.56433094 506.57421875 370.5859375 506.57421875 C371.28701111 512.2343151 372.48034781 517.67981287 373.84375 523.21484375 C374.18295975 524.59733307 374.18295975 524.59733307 374.52902222 526.00775146 C375.00955378 527.95813096 375.49210922 529.90801279 375.9765625 531.85742188 C376.6977717 534.77103033 377.40377094 537.68804834 378.109375 540.60546875 C380.97484544 552.26178343 384.53167718 563.38860428 388.83880615 574.58605957 C390.47251761 578.93345905 391.80888923 583.36164452 393.0859375 587.82421875 C393.34890625 588.68144531 393.611875 589.53867188 393.8828125 590.421875 C395.36982168 595.57103975 395.92120377 599.34271396 394.5859375 604.57421875 C392.21111372 606.68517322 390.81209226 606.57903055 387.6484375 606.51171875 C383.64222363 605.28532675 382.28192181 603.80197978 379.5859375 600.57421875 C378.00691082 597.3741019 376.82836749 594.06379244 375.6484375 590.69921875 C374.95591944 588.79112437 374.26190242 586.88357338 373.56640625 584.9765625 C373.23044434 584.0469873 372.89448242 583.11741211 372.54833984 582.15966797 C371.73584264 579.97693195 370.87691111 577.83860035 369.94921875 575.703125 C361.56683895 556.32024678 358.40512852 535.36638519 355.5859375 514.57421875 C354.67062256 514.95404907 354.67062256 514.95404907 353.73681641 515.34155273 C347.88383313 517.73218419 342.01867639 519.83004593 335.9609375 521.63671875 C335.10790039 521.89275879 334.25486328 522.14879883 333.37597656 522.41259766 C325.53624973 524.70270752 317.64533022 526.29101935 309.5859375 527.57421875 C308.52267323 535.08885455 308.75244552 542.09969184 309.4609375 549.63671875 C311.19144477 570.27774409 311.67834282 590.80732201 311.7109375 611.51171875 C311.71361633 612.47946228 311.71629517 613.44720581 311.71905518 614.4442749 C311.72494409 617.24674155 311.7231651 620.04909498 311.71875 622.8515625 C311.72171082 624.09879845 311.72171082 624.09879845 311.72473145 625.37123108 C311.66223393 641.49792232 311.66223393 641.49792232 308.5859375 644.57421875 C305.87004249 644.92241042 304.23441272 644.94477602 301.8359375 643.57421875 C299.85708819 640.40805986 299.88897557 637.27128323 299.5859375 633.57421875 C297.29899527 633.07042846 297.29899527 633.07042846 294.5859375 633.57421875 C289.90740403 637.91857126 288.20084207 642.49575809 286.5859375 648.57421875 C286.36808594 649.35539062 286.15023438 650.1365625 285.92578125 650.94140625 C284.14187173 657.95890464 284.84804359 663.13678779 288.22265625 669.5546875 C293.72460558 677.70513965 302.7126745 682.70281324 311.9609375 685.26171875 C312.67765625 685.47376953 313.394375 685.68582031 314.1328125 685.90429688 C325.79472367 689.24078229 340.38837186 691.20104222 351.5859375 685.57421875 C354.06208887 683.72628371 356.26693185 681.76805168 358.48046875 679.61328125 C360.38760075 677.76629998 362.34218967 676.22689008 364.4609375 674.63671875 C369.682607 670.05567074 370.46768602 664.68542274 370.98046875 657.9921875 C371.26704956 653.52152692 371.44586564 649.05168817 371.5859375 644.57421875 C371.05629395 644.84339111 370.52665039 645.11256348 369.98095703 645.38989258 C369.27567871 645.74591553 368.57040039 646.10193848 367.84375 646.46875 C367.14910645 646.82042236 366.45446289 647.17209473 365.73876953 647.53442383 C354.46448006 652.97978546 342.81936168 653.00345797 330.5859375 651.88671875 C329.78494629 651.82137939 328.98395508 651.75604004 328.15869141 651.6887207 C322.90265433 651.12024665 319.69848279 649.93493935 315.5859375 646.57421875 C313.97124566 643.34483508 314.00514472 640.06565122 314.5859375 636.57421875 C316.6484375 633.57421875 316.6484375 633.57421875 319.5859375 631.57421875 C323.2734375 631.13671875 323.2734375 631.13671875 326.5859375 631.57421875 C328.5859375 633.57421875 328.5859375 633.57421875 328.5859375 637.57421875 C346.94861817 638.07654132 359.59560789 636.4525336 373.34277344 623.74902344 C376.11773363 621.11379655 378.61685241 618.40757381 380.9609375 615.38671875 C383.5859375 612.57421875 383.5859375 612.57421875 386.7734375 611.88671875 C389.5859375 612.57421875 389.5859375 612.57421875 391.5859375 614.19921875 C392.5859375 616.57421875 392.5859375 616.57421875 391.96875 619.29296875 C390.31356519 623.22052594 388.12216288 626.15436828 385.4609375 629.44921875 C384.99300781 630.0421875 384.52507812 630.63515625 384.04296875 631.24609375 C382.89808158 632.69472649 381.74303433 634.13531974 380.5859375 635.57421875 C380.8746875 636.15171875 381.1634375 636.72921875 381.4609375 637.32421875 C381.8321875 638.06671875 382.2034375 638.80921875 382.5859375 639.57421875 C382.94945312 640.22003906 383.31296875 640.86585938 383.6875 641.53125 C387.85481326 651.00735798 382.91992906 665.44651516 379.41796875 674.640625 C374.09343809 685.92725147 364.4489153 694.59689653 353.5859375 700.57421875 C338.46635682 705.61407898 320.31100343 704.41830904 305.5859375 698.57421875 C304.60496094 698.24808594 303.62398438 697.92195313 302.61328125 697.5859375 C289.44821156 693.01974527 278.50030143 686.00555547 271.5859375 673.57421875 C266.69480303 661.85486685 269.21438773 647.06476287 273.5859375 635.57421875 C277.16245525 628.39026235 282.92715995 621.54648801 290.5859375 618.57421875 C293.8359375 618.44921875 293.8359375 618.44921875 296.5859375 618.57421875 C296.45316406 617.60484375 296.32039063 616.63546875 296.18359375 615.63671875 C296.00492393 614.28258958 295.82655547 612.92842062 295.6484375 611.57421875 C295.38740234 609.62515625 295.38740234 609.62515625 295.12109375 607.63671875 C293.30449515 591.68383094 293.29161533 575.60796917 293.0234375 559.57421875 C292.98014261 557.14192128 292.93652526 554.70962952 292.89257812 552.27734375 C292.78664979 546.37636279 292.68469128 540.47532391 292.5859375 534.57421875 C291.5959375 534.90421875 290.6059375 535.23421875 289.5859375 535.57421875 C287.01327932 535.64450996 284.46952319 535.66792707 281.8984375 535.63671875 C281.19654297 535.63220703 280.49464844 535.62769531 279.77148438 535.62304688 C278.04293212 535.61128802 276.31442385 535.59335329 274.5859375 535.57421875 C274.70034025 540.1786969 274.82614726 544.78279583 274.9609375 549.38671875 C274.9813913 550.08549133 275.00184509 550.78426392 275.0229187 551.50421143 C275.31573527 561.17999734 275.84399985 570.80024587 276.6484375 580.44921875 C277.36357282 589.38708587 277.84903097 598.2946289 277.9609375 607.26171875 C277.98679932 608.28313965 278.01266113 609.30456055 278.03930664 610.35693359 C278.06482841 620.19187097 274.61921645 626.09548787 267.9609375 633.07421875 C267.47109375 633.61046875 266.98125 634.14671875 266.4765625 634.69921875 C265.22741827 636.0371 263.91138441 637.31188836 262.5859375 638.57421875 C261.9259375 638.57421875 261.2659375 638.57421875 260.5859375 638.57421875 C260.8746875 639.36441406 261.1634375 640.15460937 261.4609375 640.96875 C265.14124469 652.15023886 267.61447285 666.07089604 262.6484375 677.26171875 C255.17025903 689.2268043 241.30249809 695.97814128 227.92578125 699.140625 C223.84794307 699.89628449 220.98653491 700.33129843 217.2734375 698.32421875 C215.36961216 696.34988136 214.84025138 695.28690016 214.5859375 692.57421875 C215.85755709 688.75935999 217.06834011 688.36517551 220.5859375 686.57421875 C222.38507533 685.98970005 224.19926471 685.4501705 226.0234375 684.94921875 C231.17723296 683.2887642 235.53833111 681.07775365 240.0859375 678.19921875 C240.6730249 677.83618652 241.2601123 677.4731543 241.86499023 677.09912109 C245.86428111 674.46990949 248.38077133 671.81903015 250.5859375 667.57421875 C251.10050694 664.41363427 251.10050694 664.41363427 250.8984375 661.26171875 C250.87394531 660.21371094 250.84945313 659.16570313 250.82421875 658.0859375 C250.86101483 655.63690797 250.86101483 655.63690797 249.5859375 654.57421875 C249.13133892 651.91958754 248.88350512 649.25232737 248.5859375 646.57421875 C246.9359375 646.57421875 245.2859375 646.57421875 243.5859375 646.57421875 C243.39773438 647.16847656 243.20953125 647.76273438 243.015625 648.375 C240.96074962 651.53591485 238.09425485 652.43526541 234.7109375 653.76171875 C233.77314453 654.15133789 233.77314453 654.15133789 232.81640625 654.54882812 C224.89319014 657.79014381 217.87241319 659.04228617 209.6484375 656.01171875 C204.11234581 653.58375941 199.37459847 650.22828409 194.5859375 646.57421875 C193.5546875 645.81109375 192.5234375 645.04796875 191.4609375 644.26171875 C186.98070887 640.07367894 182.34951596 635.10137566 179.5859375 629.57421875 C173.38867347 629.96978879 168.70338664 632.04910893 163.5859375 635.57421875 C161.44336546 639.85936284 162.05197961 643.96098427 163.50390625 648.34765625 C169.19382642 661.06237523 178.96244656 668.90204288 190.3984375 676.26171875 C191.19854248 676.77927734 191.99864746 677.29683594 192.82299805 677.83007812 C197.44717082 680.67631544 201.05737342 682.21664993 206.5859375 682.57421875 C208.58691208 682.90165095 210.58727064 683.23298294 212.5859375 683.57421875 C213.2734375 686.38671875 213.2734375 686.38671875 213.5859375 689.57421875 C211.79814092 692.16652379 210.62590935 692.5608948 207.5859375 693.57421875 C191.45021233 695.54199011 177.51231809 685.93995835 165.27929688 676.53076172 C156.01724854 669.11505138 147.83465436 658.43108948 145.5859375 646.57421875 C144.95394197 639.06927184 145.06293565 632.03880368 149.88671875 625.92578125 C156.32263988 619.63359037 165.8617293 616.79429599 174.5859375 615.57421875 C174.42778564 614.72931885 174.26963379 613.88441895 174.10668945 613.01391602 C172.11844846 599.88108557 174.35786065 587.70851324 177.26635742 574.91723633 C177.90234016 572.11955099 178.51464962 569.31747292 179.12304688 566.51367188 C179.52209245 564.7015262 179.92243704 562.88966599 180.32421875 561.078125 C180.59628899 559.84504356 180.59628899 559.84504356 180.87385559 558.58705139 C181.94935237 553.87444411 183.29859687 549.35615029 184.87019348 544.78700256 C186.0352414 541.18515735 186.83290297 537.5182336 187.62890625 533.8203125 C187.80222977 533.03398941 187.97555328 532.24766632 188.15412903 531.43751526 C188.69844281 528.96322028 189.23605817 526.48752796 189.7734375 524.01171875 C190.14473715 522.31826171 190.51647815 520.62490138 190.88867188 518.93164062 C191.79285706 514.81359826 192.69104443 510.69428992 193.5859375 506.57421875 C192.2805029 506.85774898 190.97755116 507.15273007 189.67578125 507.45263672 C188.9499585 507.61569305 188.22413574 507.77874939 187.47631836 507.94674683 C185.40061669 508.43423581 185.40061669 508.43423581 184.1484375 510.51953125 C183.9628125 511.23882813 183.7771875 511.958125 183.5859375 512.69921875 C183.3796875 513.42367187 183.1734375 514.148125 182.9609375 514.89453125 C182.7753125 515.72597656 182.7753125 515.72597656 182.5859375 516.57421875 C183.9059375 516.90421875 185.2259375 517.23421875 186.5859375 517.57421875 C186.5859375 519.22421875 186.5859375 520.87421875 186.5859375 522.57421875 C185.9259375 522.57421875 185.2659375 522.57421875 184.5859375 522.57421875 C184.245625 523.47140625 184.245625 523.47140625 183.8984375 524.38671875 C182.16871813 527.26958436 180.60944386 528.10365776 177.5859375 529.57421875 C166.80272952 531.0530587 158.81149476 529.26824915 150.140625 522.73046875 C142.84812282 516.6038525 137.22110263 509.18667453 131.5859375 501.57421875 C130.93625 500.70667969 130.2865625 499.83914063 129.6171875 498.9453125 C124.69619931 492.15658561 120.60656682 484.91659499 116.5859375 477.57421875 C116.04839844 476.61902344 115.51085937 475.66382813 114.95703125 474.6796875 C107.64489931 461.02910176 104.10081126 445.56412156 100.5859375 430.57421875 C100.55901266 432.86582194 100.53957626 435.15751421 100.5234375 437.44921875 C100.50603516 439.36347656 100.50603516 439.36347656 100.48828125 441.31640625 C100.35417181 444.46086527 100.35417181 444.46086527 101.5859375 446.57421875 C101.93370458 448.48218876 102.23934794 450.39792127 102.5234375 452.31640625 C102.69617188 453.46496094 102.86890625 454.61351562 103.046875 455.796875 C103.22476563 457.00214844 103.40265625 458.20742188 103.5859375 459.44921875 C103.93838735 461.82187025 104.29248539 464.19427765 104.6484375 466.56640625 C104.80441406 467.6219873 104.96039063 468.67756836 105.12109375 469.76513672 C105.50478466 472.08380667 106.00137684 474.30166063 106.5859375 476.57421875 C106.72264855 478.09118564 106.80501769 479.6139179 106.8359375 481.13671875 C106.87460937 482.28333984 106.87460937 482.28333984 106.9140625 483.453125 C106.49903032 486.13601162 105.74900705 486.97434473 103.5859375 488.57421875 C100.2109375 489.07421875 100.2109375 489.07421875 96.5859375 488.57421875 C92.32644883 484.98620999 89.81389175 480.95652918 87.2109375 476.13671875 C86.82881104 475.44384766 86.44668457 474.75097656 86.05297852 474.03710938 C82.37411915 467.31127625 78.93627932 460.46881284 75.5859375 453.57421875 C75.1528125 454.70859375 74.7196875 455.84296875 74.2734375 457.01171875 C73.7165625 458.18734375 73.1596875 459.36296875 72.5859375 460.57421875 C71.5959375 460.90421875 70.6059375 461.23421875 69.5859375 461.57421875 C69.3178125 462.23421875 69.0496875 462.89421875 68.7734375 463.57421875 C67.5859375 465.57421875 67.5859375 465.57421875 64.7734375 466.63671875 C61.5859375 466.57421875 61.5859375 466.57421875 59.29394531 464.47314453 C58.40030273 463.51649902 57.50666016 462.55985352 56.5859375 461.57421875 C55.56172083 460.55104507 54.53249964 459.53286303 53.49902344 458.51904297 C50.43208131 455.48802099 47.37151104 452.4506491 44.31298828 449.41113281 C43.00393233 448.11209927 41.6930824 446.81487084 40.38037109 445.51953125 C33.3284341 438.55816307 26.50043546 431.62594733 20.37182617 423.82373047 C18.71082913 421.73153269 16.97412982 419.77265377 15.1484375 417.82421875 C10.49430433 412.56537222 6.75301955 406.61038974 2.96826172 400.71166992 C1.96080177 399.1538614 0.93362719 397.60875051 -0.10498047 396.0715332 C-4.49607441 389.45037299 -7.69524135 382.7936534 -10.5390625 375.38671875 C-10.96574219 374.29319092 -11.39242187 373.19966309 -11.83203125 372.07299805 C-18.72670929 354.19981031 -22.81744977 337.8628038 -22.7265625 318.51171875 C-22.72164795 317.25528564 -22.7167334 315.99885254 -22.71166992 314.7043457 C-22.51539526 298.90071277 -20.54616413 284.1602382 -15.31689453 269.20068359 C-14.16639654 265.85372377 -13.07040499 262.48951362 -11.97265625 259.125 C-11.30340868 257.08280652 -10.63319437 255.04093377 -9.96243286 252.99923706 C-9.51726062 251.64394834 -9.07281037 250.28842224 -8.62911987 248.93264771 C-7.99714934 247.00689562 -7.3580462 245.08348883 -6.71875 243.16015625 C-6.34733887 242.03657715 -5.97592773 240.91299805 -5.59326172 239.75537109 C-4.40631555 236.55331962 -2.99237205 233.600014 -1.4140625 230.57421875 C-0.84429687 229.42308594 -0.27453125 228.27195312 0.3125 227.0859375 C5.2353398 217.157172 10.36088231 207.34700717 15.5859375 197.57421875 C14.49925781 197.46980469 13.41257813 197.36539063 12.29296875 197.2578125 C7.71130397 196.41293227 6.5605553 195.28422953 3.80859375 191.76171875 C1.67384706 187.94236365 1.08815077 183.8776669 0.5859375 179.57421875 C-0.17332031 179.45433594 -0.93257812 179.33445312 -1.71484375 179.2109375 C-5.61521982 178.29087773 -7.60569389 176.38258736 -10.4140625 173.57421875 C-13.78687165 166.67529094 -12.76863123 160.5713633 -10.5390625 153.57421875 C-9.34728739 149.38091106 -9.34728739 149.38091106 -10.375 145.30859375 C-11.95201229 143.27528857 -13.63712648 141.43407845 -15.4140625 139.57421875 C-25.43225559 126.47132778 -26.52940796 109.43826042 -25.4140625 93.57421875 C-24.2721761 85.07041436 -21.52342264 77.67188286 -16.48828125 70.72265625 C-15.05850898 67.8631117 -15.57767305 66.6279869 -16.4140625 63.57421875 C-17.58118333 61.08154142 -17.58118333 61.08154142 -19.07421875 58.58203125 C-19.61715576 57.63610107 -20.16009277 56.6901709 -20.71948242 55.71557617 C-21.58923706 54.22247925 -21.58923706 54.22247925 -22.4765625 52.69921875 C-23.66298462 50.63629371 -24.84787926 48.57248944 -26.03125 46.5078125 C-26.6097168 45.49960449 -27.18818359 44.49139648 -27.78417969 43.45263672 C-30.61945273 38.44546638 -33.27816271 33.35033377 -35.92578125 28.2421875 C-37.28367745 25.52257119 -37.28367745 25.52257119 -39.4140625 23.57421875 C-40.12555158 16.45932793 -38.15000935 11.25704571 -34.3515625 5.38671875 C-30.22063424 0.80514377 -24.22933281 -1.60466074 -18.4140625 -3.30078125 C-12.08774459 -3.56437783 -5.52582188 -3.48931006 0 0 Z M-24.4765625 12.13671875 C-26.41387549 14.40179234 -26.41387549 14.40179234 -27.4140625 16.57421875 C-21.65879074 18.79720895 -21.65879074 18.79720895 -15.6015625 19.69921875 C-12.17367493 17.93630514 -10.66755534 15.16102056 -9.4140625 11.57421875 C-9.52716335 8.73403488 -9.52716335 8.73403488 -10.4140625 6.57421875 C-15.49156044 6.57421875 -20.71364883 8.98815833 -24.4765625 12.13671875 Z M-4.4140625 20.57421875 C-4.8678125 21.37859375 -5.3215625 22.18296875 -5.7890625 23.01171875 C-7.4140625 25.57421875 -7.4140625 25.57421875 -9.4140625 26.57421875 C-9.4140625 27.23421875 -9.4140625 27.89421875 -9.4140625 28.57421875 C-12.7140625 28.90421875 -16.0140625 29.23421875 -19.4140625 29.57421875 C-18.21831921 33.9586108 -17.14185609 36.85393694 -13.4140625 39.57421875 C-7.98440865 41.06471196 -2.59210571 40.84159001 2.5859375 38.57421875 C4.95034294 36.15230563 4.95034294 36.15230563 4.5859375 32.57421875 C2.15638777 28.12459397 -0.83080106 24.15748019 -4.4140625 20.57421875 Z M1.4609375 52.07421875 C0.37425781 52.491875 0.37425781 52.491875 -0.734375 52.91796875 C-1.28867188 53.13453125 -1.84296875 53.35109375 -2.4140625 53.57421875 C-2.4140625 53.90421875 -2.4140625 54.23421875 -2.4140625 54.57421875 C0.4181055 54.90870134 0.4181055 54.90870134 3.5859375 54.57421875 C5.96313443 52.69919944 5.96313443 52.69919944 7.5859375 50.57421875 C5.22050034 50.57421875 3.66289486 51.22184816 1.4609375 52.07421875 Z M14.5859375 56.57421875 C14.2559375 57.56421875 13.9259375 58.55421875 13.5859375 59.57421875 C11.9609375 60.57421875 11.9609375 60.57421875 9.5859375 61.57421875 C8.98523438 61.83460938 8.38453125 62.095 7.765625 62.36328125 C6.0430372 63.10950349 4.31484505 63.84275786 2.5859375 64.57421875 C4.44594565 66.83761574 4.44594565 66.83761574 7.3359375 66.94921875 C11.41308137 66.47877907 13.42946394 65.15678803 16.5859375 62.57421875 C17.97462266 60.47382544 17.97462266 60.47382544 18.5859375 58.57421875 C17.2659375 57.91421875 15.9459375 57.25421875 14.5859375 56.57421875 Z M22.5859375 72.57421875 C21.6578125 73.35796875 20.7296875 74.14171875 19.7734375 74.94921875 C17.75558023 76.65318711 15.79818205 78.09938905 13.5859375 79.57421875 C15.0629378 82.64764721 15.0629378 82.64764721 17.5859375 85.57421875 C20.39451647 86.35703544 22.49684448 86.76137706 25.3359375 86.94921875 C26.38201172 87.05169922 26.38201172 87.05169922 27.44921875 87.15625 C29.15927329 87.32022783 30.87249167 87.45061196 32.5859375 87.57421875 C31.48763745 85.63338716 30.38207245 83.69666547 29.2734375 81.76171875 C28.35111328 80.14330078 28.35111328 80.14330078 27.41015625 78.4921875 C25.93202494 76.12781044 24.66083194 74.39374157 22.5859375 72.57421875 Z M-5.4140625 77.57421875 C-6.06409875 79.78131858 -6.70890995 81.98995767 -7.3515625 84.19921875 C-7.71121094 85.42898438 -8.07085937 86.65875 -8.44140625 87.92578125 C-12.32795618 102.50424566 -10.27137257 118.00221514 -2.9453125 131.26953125 C4.15352708 141.9540092 13.87533056 149.85759917 26.5859375 152.57421875 C34.19044116 154.1959892 34.19044116 154.1959892 41.27734375 152.42578125 C42.94876932 150.0608388 44.30236755 147.64068135 45.6484375 145.07421875 C46.25429687 143.92566406 46.86015625 142.77710938 47.484375 141.59375 C47.81663086 140.95775879 48.14888672 140.32176758 48.49121094 139.66650391 C49.69539084 137.36502716 50.90961385 135.06901516 52.125 132.7734375 C54.62399418 128.04652959 57.11871316 123.31779783 59.5859375 118.57421875 C60.17604614 117.45950195 60.17604614 117.45950195 60.77807617 116.32226562 C62.97767525 112.2318499 62.97767525 112.2318499 63.5234375 107.69921875 C62.6654684 105.23914723 62.6654684 105.23914723 59.5859375 103.57421875 C57.5280199 103.27307709 57.5280199 103.27307709 55.26171875 103.30078125 C54.40529785 103.28297607 53.54887695 103.2651709 52.66650391 103.24682617 C51.75304199 103.23111572 50.83958008 103.21540527 49.8984375 103.19921875 C37.50342579 102.79514947 26.32913065 101.10966125 15.5859375 94.57421875 C14.91304687 94.17976562 14.24015625 93.7853125 13.546875 93.37890625 C13.02351563 93.07210937 12.50015625 92.7653125 11.9609375 92.44921875 C8.82258143 90.55388376 8.82258143 90.55388376 6.10546875 89.80859375 C2.74187902 88.16069553 1.74877123 86.16755202 -0.1015625 82.94921875 C-1.15704762 81.12844841 -2.25003734 79.32758662 -3.4140625 77.57421875 C-4.0740625 77.57421875 -4.7340625 77.57421875 -5.4140625 77.57421875 Z M69.5859375 92.57421875 C69.9159375 93.56421875 70.2459375 94.55421875 70.5859375 95.57421875 C71.2459375 94.25421875 71.9059375 92.93421875 72.5859375 91.57421875 C71.3623307 91.49968315 71.3623307 91.49968315 69.5859375 92.57421875 Z M1.5859375 156.57421875 C0.9259375 159.87421875 0.2659375 163.17421875 -0.4140625 166.57421875 C0.9059375 166.24421875 2.2259375 165.91421875 3.5859375 165.57421875 C4.2459375 163.26421875 4.9059375 160.95421875 5.5859375 158.57421875 C4.2659375 157.91421875 2.9459375 157.25421875 1.5859375 156.57421875 Z M19.5859375 163.57421875 C18.379375 164.93546875 18.379375 164.93546875 17.1484375 166.32421875 C16.69597656 166.8346875 16.24351562 167.34515625 15.77734375 167.87109375 C13.4822144 171.15199996 13.46599592 174.41819136 13.5234375 178.32421875 C13.53246094 179.1234375 13.54148438 179.92265625 13.55078125 180.74609375 C13.56238281 181.349375 13.57398438 181.95265625 13.5859375 182.57421875 C20.57301858 178.28669172 21.67610279 172.24726056 23.5859375 164.57421875 C22.2659375 164.24421875 20.9459375 163.91421875 19.5859375 163.57421875 Z M460.5859375 360.57421875 C461.5859375 362.57421875 461.5859375 362.57421875 461.5859375 362.57421875 Z M170.5859375 388.57421875 C169.69220957 390.64958695 168.82152054 392.73488881 167.9609375 394.82421875 C167.47367188 395.984375 166.98640625 397.14453125 166.484375 398.33984375 C165.31673193 401.41282612 165.31673193 401.41282612 166.2734375 403.79296875 C167.54467213 405.51821575 168.810004 407.20208522 170.2109375 408.82421875 C170.9946875 409.73171875 171.7784375 410.63921875 172.5859375 411.57421875 C173.50915605 408.53516489 173.60756511 406.17427087 173.24609375 403.02734375 C173.15263672 402.18300781 173.05917969 401.33867188 172.96289062 400.46875 C172.85912109 399.59605469 172.75535156 398.72335937 172.6484375 397.82421875 C172.54853516 396.93605469 172.44863281 396.04789063 172.34570312 395.1328125 C172.09878349 392.94581004 171.84532115 390.75977208 171.5859375 388.57421875 C171.2559375 388.57421875 170.9259375 388.57421875 170.5859375 388.57421875 Z M341.5859375 400.57421875 C342.5859375 402.57421875 342.5859375 402.57421875 342.5859375 402.57421875 Z M160.5859375 420.57421875 C159.9259375 424.20421875 159.2659375 427.83421875 158.5859375 431.57421875 C160.349375 431.51234375 160.349375 431.51234375 162.1484375 431.44921875 C166.94555503 431.44069811 171.27285448 432.41767724 175.5859375 434.57421875 C175.82022063 429.78448665 175.82022063 429.78448665 173.5859375 425.57421875 C171.28211433 424.37880543 171.28211433 424.37880543 168.6484375 423.44921875 C167.77316406 423.11664062 166.89789063 422.7840625 165.99609375 422.44140625 C164.20098841 421.79551745 162.39580434 421.1775077 160.5859375 420.57421875 Z M65.5859375 426.57421875 C65.9159375 428.22421875 66.2459375 429.87421875 66.5859375 431.57421875 C66.9159375 430.91421875 67.2459375 430.25421875 67.5859375 429.57421875 C66.9259375 428.58421875 66.2659375 427.59421875 65.5859375 426.57421875 Z M67.5859375 432.57421875 C68.5859375 435.57421875 68.5859375 435.57421875 68.5859375 435.57421875 Z M68.5859375 435.57421875 C68.72824558 436.99124388 68.87494496 438.40782835 69.0234375 439.82421875 C69.10464844 440.613125 69.18585938 441.40203125 69.26953125 442.21484375 C69.77774369 446.8653137 69.77774369 446.8653137 72.6484375 450.32421875 C73.2878125 450.73671875 73.9271875 451.14921875 74.5859375 451.57421875 C73.92903131 447.79182204 72.8658065 444.35580349 71.5234375 440.76171875 C71.16121094 439.78589844 70.79898438 438.81007813 70.42578125 437.8046875 C70.14863281 437.06863281 69.87148437 436.33257813 69.5859375 435.57421875 C69.2559375 435.57421875 68.9259375 435.57421875 68.5859375 435.57421875 Z M158.7734375 446.94921875 C153.69874215 456.13809928 156.95168086 467.93360054 159.5859375 477.57421875 C162.82957979 487.54955801 166.74629623 497.81475684 172.5859375 506.57421875 C176.42924314 497.57432722 177.0006427 487.87752259 177.4609375 478.19921875 C177.533125 477.14605469 177.6053125 476.09289062 177.6796875 475.0078125 C178.07035758 468.99920683 178.07035758 468.99920683 175.69140625 463.65234375 C174.99660156 462.9665625 174.30179688 462.28078125 173.5859375 461.57421875 C172.64453125 459.14453125 172.64453125 459.14453125 172.0234375 456.69921875 C170.31757233 449.61857888 170.31757233 449.61857888 166.5859375 443.57421875 C162.51750628 442.55711095 161.04929502 443.72670825 158.7734375 446.94921875 Z M312.5859375 447.57421875 C313.5859375 449.57421875 313.5859375 449.57421875 313.5859375 449.57421875 Z M311.5859375 449.57421875 C310.60753906 450.43144531 309.62914062 451.28867187 308.62109375 452.171875 C289.15370271 469.17664356 289.15370271 469.17664356 282.5859375 471.57421875 C282.6478125 472.48171875 282.7096875 473.38921875 282.7734375 474.32421875 C282.5859375 477.57421875 282.5859375 477.57421875 281.1484375 479.32421875 C279.00768842 482.40689742 278.84410622 485.12174017 278.3984375 488.82421875 C278.23988281 490.0875 278.08132813 491.35078125 277.91796875 492.65234375 C277.80839844 493.6165625 277.69882812 494.58078125 277.5859375 495.57421875 C278.32199219 494.83171875 279.05804688 494.08921875 279.81640625 493.32421875 C281.43832845 491.71373465 283.0789606 490.12102696 284.76171875 488.57421875 C290.1859226 483.49708462 294.0483377 478.06330519 297.76171875 471.6875 C300.92012196 466.29724869 304.17902345 461.9811328 308.5859375 457.57421875 C310.01861312 455.62225618 311.29692413 453.6270919 312.5859375 451.57421875 C312.0909375 450.58421875 312.0909375 450.58421875 311.5859375 449.57421875 Z M258.94335938 485.42041016 C254.97616872 487.36209854 250.90946191 489.05748915 246.8359375 490.76171875 C245.58103516 491.29442383 245.58103516 491.29442383 244.30078125 491.83789062 C243.49253906 492.17755859 242.68429687 492.51722656 241.8515625 492.8671875 C241.12743164 493.17164795 240.40330078 493.4761084 239.65722656 493.78979492 C237.65028499 494.54984953 235.67694786 495.09976555 233.5859375 495.57421875 C233.5859375 496.23421875 233.5859375 496.89421875 233.5859375 497.57421875 C232.5959375 497.24421875 231.6059375 496.91421875 230.5859375 496.57421875 C230.5859375 497.23421875 230.5859375 497.89421875 230.5859375 498.57421875 C229.5753125 498.65671875 228.5646875 498.73921875 227.5234375 498.82421875 C223.13727828 499.36259208 218.91151116 500.43982562 214.6484375 501.57421875 C213.97353271 501.75243164 213.29862793 501.93064453 212.60327148 502.11425781 C209.32361312 502.81816152 209.32361312 502.81816152 206.5859375 504.57421875 C206.27753255 507.63689364 206.01545915 510.69365832 205.7734375 513.76171875 C205.08041017 521.75717503 204.03107572 529.6171923 202.5859375 537.51171875 C202.41989014 538.42783936 202.25384277 539.34395996 202.08276367 540.2878418 C201.4315472 543.73016887 200.7763729 547.01737227 199.640625 550.33837891 C198.38592525 554.18786744 197.53998048 558.04874746 196.7109375 562.0078125 C196.54094238 562.80397476 196.37094727 563.60013702 196.19580078 564.42042542 C195.65593806 566.95017986 195.12053042 569.48084586 194.5859375 572.01171875 C194.05099371 574.53894192 193.51499846 577.06592292 192.97607422 579.59230042 C192.6419656 581.15895909 192.31012119 582.726103 191.98095703 584.29380798 C191.25436222 587.70474842 190.45524554 591.02840971 189.48974609 594.38378906 C187.08897663 602.85846637 187.54701271 612.40637701 191.3359375 620.37890625 C197.10515915 630.51110177 206.44440983 640.46528656 217.5859375 644.57421875 C224.09090578 645.90370132 229.79817145 643.76740401 235.88671875 641.546875 C238.5859375 640.57421875 238.5859375 640.57421875 240.640625 640.1875 C248.52027424 637.70335355 254.15838772 628.7886954 258.11328125 622.0546875 C259.5859375 619.57421875 259.5859375 619.57421875 261.2578125 617.58203125 C265.05276962 611.84494901 262.51632469 601.59516585 261.85336304 594.98890686 C260.52721506 581.51307156 260.34877774 568.16678369 260.4609375 554.63671875 C260.47100965 552.4772178 260.48012785 550.31771218 260.48828125 548.15820312 C260.50990825 542.96342228 260.54419272 537.76887525 260.5859375 532.57421875 C259.55533203 532.39246094 259.55533203 532.39246094 258.50390625 532.20703125 C257.15232422 531.95566406 257.15232422 531.95566406 255.7734375 531.69921875 C254.88011719 531.53679688 253.98679687 531.374375 253.06640625 531.20703125 C250.5859375 530.57421875 250.5859375 530.57421875 247.5859375 528.57421875 C246.34779718 525.85031004 246.40043627 524.14758618 247.31640625 521.31640625 C249.97446987 514.98186384 249.97446987 514.98186384 253.5859375 512.57421875 C255.5859375 511.90755208 257.5859375 511.24088542 259.5859375 510.57421875 C262.82049164 508.91085918 262.82049164 508.91085918 263.2019043 505.96044922 C263.36686401 504.34227295 263.36686401 504.34227295 263.53515625 502.69140625 C263.66083984 501.52480469 263.78652344 500.35820313 263.91601562 499.15625 C264.03396484 497.93292969 264.15191406 496.70960938 264.2734375 495.44921875 C264.46776367 493.60263672 264.46776367 493.60263672 264.66601562 491.71875 C264.98490128 488.6716204 265.29097533 485.62374189 265.5859375 482.57421875 C263.21651623 482.57421875 261.0321126 484.3634563 258.94335938 485.42041016 Z " fill="#000000" transform="translate(151.4140625,535.42578125)"/>
<path d="M0 0 C1 1 1 1 1.0625 4.0625 C1.041875 5.031875 1.02125 6.00125 1 7 C2.10154419 7.11613647 2.10154419 7.11613647 3.2253418 7.23461914 C9.53221533 8.97435064 13.65288226 15.72676109 16.84521484 21.11376953 C18.53778746 24.39824314 20.13263825 27.71073699 21.6875 31.0625 C24.94090314 37.94576584 28.17704692 44.46291437 32.52905273 50.71459961 C35.38218852 55.14749655 37.4831317 59.97129948 39.6875 64.75 C40.62665121 66.76667669 41.56798413 68.78233911 42.51171875 70.796875 C42.91865967 71.67698242 43.32560059 72.55708984 43.74487305 73.46386719 C44.97876577 76.04342302 44.97876577 76.04342302 46.54321289 78.56958008 C48.71394362 82.19110252 50.19072434 86.02212138 51.75 89.9375 C52.09562988 90.80197754 52.44125977 91.66645508 52.79736328 92.55712891 C56.43108306 101.82303142 59.41354826 111.27954771 62.31396484 120.79589844 C62.87128273 122.5864557 63.47562525 124.3623266 64.09375 126.1328125 C69.83534685 144.29803701 69.61396263 165.66556821 67.203125 184.35546875 C66.65419165 190.39021676 68.25815275 193.89078814 71.5 198.875 C72.43670839 200.441626 73.3715922 202.00934433 74.3046875 203.578125 C74.99836426 204.71217773 74.99836426 204.71217773 75.70605469 205.86914062 C84.63835497 220.57878532 89.81858866 237.15521849 94.0625 253.75 C99.74191158 276.6493256 99.74191158 276.6493256 115.75 292.8125 C124.29419725 297.47394095 132.32251878 300.21306741 142 298 C144.02024799 297.3974699 146.03233469 296.75679435 148 296 C148 295.34 148 294.68 148 294 C149.43359375 292.58984375 149.43359375 292.58984375 151.4375 290.9375 C157.33505559 285.91830376 163.08253534 280.64127748 167.75 274.4375 C170 272 170 272 172.6875 271.5 C175 272 175 272 177 274 C177.125 276.625 177.125 276.625 177 279 C177.9590625 279.37125 177.9590625 279.37125 178.9375 279.75 C181 281 181 281 181.73901367 282.8515625 C182.05712388 285.47024333 181.56440763 286.37742949 180.23828125 288.625 C177.74637734 293.25175252 176.49908415 297.93434557 175.1875 303 C171.33173677 317.0571099 166.50662895 329.6943078 157 341 C156.43539062 341.67675781 155.87078125 342.35351562 155.2890625 343.05078125 C150.9285788 347.83093592 145.88548575 350.43028087 140 353 C140.66386719 353.81082031 141.32773437 354.62164062 142.01171875 355.45703125 C147.49072715 362.2741781 151.92539618 368.73037594 155 377 C155.36738281 377.96679688 155.73476563 378.93359375 156.11328125 379.9296875 C162.97399113 399.13967516 162.90007621 418.56983233 154.4375 437.1875 C150.95662299 443.6582487 146.31214843 449.01562455 141.40820312 454.43603516 C140.06972725 455.9225602 138.76052075 457.43528655 137.453125 458.94921875 C132.62633899 464.46005564 127.581235 469.23384561 121.828125 473.765625 C118.9440496 476.04420391 116.16443265 478.41938018 113.375 480.8125 C107.8303587 485.45840206 102.01650521 489.62690836 96.05029297 493.71411133 C91.98083292 496.51876515 88.20435864 499.44890616 84.5546875 502.78588867 C82.09409813 504.70745132 80.07598352 505.06835519 77 505 C74.625 503.9375 74.625 503.9375 73 502 C72.625 499.15234375 72.625 499.15234375 73 496 C74.8359375 493.7265625 74.8359375 493.7265625 77.375 491.625 C78.74785156 490.46871094 78.74785156 490.46871094 80.1484375 489.2890625 C81.08945312 488.53367187 82.03046875 487.77828125 83 487 C83.83789062 486.32710937 84.67578125 485.65421875 85.5390625 484.9609375 C87.18303976 483.65097466 88.8301976 482.34499371 90.48046875 481.04296875 C96.64795207 476.04204817 102.40179391 470.62376867 108 465 C108.92296875 464.11183594 109.8459375 463.22367187 110.796875 462.30859375 C117.66554754 455.66502896 123.49871323 448.84179446 129 441 C129.57621094 440.23042969 130.15242187 439.46085937 130.74609375 438.66796875 C139.22230337 426.93655644 141.03351993 413.20776129 139.375 399.0625 C136.05456666 379.72205386 126.92886872 364.47151782 114 350 C113.46375 349.39285156 112.9275 348.78570312 112.375 348.16015625 C108.24448559 343.77148469 103.47311957 340.21810519 98.70556641 336.56103516 C91.0181604 330.58511101 83.88324436 323.88324436 77 317 C76.60847656 313.47628908 76.58958192 311.62383549 78.5625 308.625 C81.81682503 306.45544998 84.17130414 306.70548493 88 307 C88.72896484 308.56814453 88.72896484 308.56814453 89.47265625 310.16796875 C92.13397893 314.81040757 95.8520487 316.78460464 100.4375 319.3125 C107.56381731 323.42314469 113.97035567 327.85517058 120.30078125 333.1015625 C123.0778489 335.05475335 124.63605516 335.81729373 128 336 C138.48676929 333.67340844 145.46801758 326.54148646 151.2578125 317.91015625 C154.52477461 312.45301103 157.27720767 306.74351937 160 301 C159.30390625 301.58265625 158.6078125 302.1653125 157.890625 302.765625 C147.94163016 310.45592912 138.6642481 313.64688841 126.20410156 312.32324219 C113.5012931 310.4603137 100.55720895 305.98341044 92 296 C91.52046875 295.44957031 91.0409375 294.89914062 90.546875 294.33203125 C86.0059785 288.77057973 83.49030697 282.68410613 81 276 C80.70818848 275.24638184 80.41637695 274.49276367 80.11572266 273.71630859 C76.83519326 265.04529867 74.46397668 256.14616254 72.078125 247.19921875 C68.52644217 233.93114646 63.78918558 221.49989042 57.8828125 209.07421875 C57 207 57 207 57 205 C55.2984375 204.7834375 55.2984375 204.7834375 53.5625 204.5625 C50 204 50 204 49 203 C48.94674616 200.9586027 48.90755769 198.91683224 48.875 196.875 C48.54615694 192.31105697 48.27998525 189.42010039 45 186.125 C43.69928906 185.04287326 42.36259267 184.00308944 41 183 C40.19820312 182.37222656 39.39640625 181.74445313 38.5703125 181.09765625 C37.00194384 179.87252482 35.41956597 178.66500056 33.8203125 177.48046875 C32 176 32 176 31 174 C30.8125 170.5 30.8125 170.5 31 167 C33 165 33 165 35.8125 164.6875 C39.38678255 165.03791986 41.06756157 165.99359476 44 168 C45.32651177 168.68013876 46.65883834 169.34922536 48 170 C48.84054455 139.89605271 40.87666159 109.35864435 27.18920898 82.45727539 C24.17556967 76.23015986 21.56845823 69.80045663 18.86254883 63.43408203 C15.3440568 55.16745559 11.6295938 47.07559226 7.50976562 39.08959961 C5.71112924 35.40885197 4.30597773 31.67765688 3.01953125 27.79296875 C2.15223515 25.7858767 2.15223515 25.7858767 -0.0637207 25.38793945 C-0.70269287 25.25991943 -1.34166504 25.13189941 -2 25 C-2.39832031 26.24652344 -2.79664063 27.49304688 -3.20703125 28.77734375 C-5.11110293 34.48064563 -7.3699525 40.01654358 -9.6875 45.5625 C-10.34842651 47.14587158 -10.34842651 47.14587158 -11.02270508 48.76123047 C-14.39510909 56.75052193 -18.06692445 64.51533349 -22.07519531 72.20166016 C-23.01145844 74.02228164 -23.91275692 75.85651157 -24.8046875 77.69921875 C-28.41304653 85.14245714 -32.34407007 92.1607809 -37 99 C-37.66008057 99.97356445 -37.66008057 99.97356445 -38.33349609 100.96679688 C-43.84222496 109.05388361 -49.34856401 116.8692767 -56.16015625 123.921875 C-58.1217819 126.13755408 -59.55444121 128.42411331 -61 131 C-59.948125 131.061875 -58.89625 131.12375 -57.8125 131.1875 C-49.48112874 132.23817027 -38.05827779 135.88810913 -32 142 C-31.5 145.3125 -31.5 145.3125 -32 148 C-35.13813885 149.65165202 -37.1783497 150.23720262 -40.625 149.2421875 C-43.12091976 148.2282201 -45.5698532 147.16224412 -48 146 C-48 145.34 -48 144.68 -48 144 C-49.5778125 143.814375 -49.5778125 143.814375 -51.1875 143.625 C-56.12920639 143.01611118 -61.03636294 142.20840512 -65.94921875 141.40234375 C-71.63160158 140.63434495 -71.63160158 140.63434495 -76.875 142.5625 C-80.71815177 144.33034982 -82.93586945 143.89410872 -87 143 C-87.33 142.01 -87.66 141.02 -88 140 C-107.74448056 141.16313871 -107.74448056 141.16313871 -127.375 143.5 C-128.56561035 143.67752808 -128.56561035 143.67752808 -129.78027344 143.85864258 C-134.03292497 144.54134404 -137.92512387 145.56720249 -142 147 C-143.67954619 147.40915261 -145.36730166 147.78649764 -147.0625 148.125 C-147.87847656 148.29257813 -148.69445312 148.46015625 -149.53515625 148.6328125 C-152.06063712 149.0090331 -154.45059508 149.06362151 -157 149 C-157.1546875 149.928125 -157.1546875 149.928125 -157.3125 150.875 C-158 153 -158 153 -161 155 C-163.20703125 154.8359375 -163.20703125 154.8359375 -165.8125 154.375 C-172.08568296 153.62958841 -177.09018855 155.15111241 -183.03125 157.08984375 C-186 158 -186 158 -189 158 C-189.37125 159.2065625 -189.37125 159.2065625 -189.75 160.4375 C-191 163 -191 163 -192.8125 164 C-195.88081044 164 -197.52984603 162.73578387 -200 161 C-201 160 -201 160 -201.5625 156.75 C-201 153 -201 153 -199.53125 151.56640625 C-194.66200562 148.46516132 -189.3041008 146.24488914 -184 144 C-183.34 143.67 -182.68 143.34 -182 143 C-183.00160156 142.2265625 -184.00320313 141.453125 -185.03515625 140.65625 C-192.0038936 135.21909366 -198.52673811 129.99286531 -204 123 C-204.67933594 122.2059375 -205.35867188 121.411875 -206.05859375 120.59375 C-222.21385412 101.55462167 -232.0974776 80.31517808 -241.08398438 57.21337891 C-241.60702148 55.87992432 -241.60702148 55.87992432 -242.140625 54.51953125 C-242.45032227 53.72264893 -242.76001953 52.9257666 -243.07910156 52.10473633 C-244.02848575 49.768055 -244.02848575 49.768055 -246 47 C-254.64379249 56.76483042 -263.07597341 66.59771082 -270.81640625 77.09765625 C-272.99113527 79.98821736 -275.252793 82.77900695 -277.5625 85.5625 C-281.95308397 90.87701555 -286.00838676 96.38217396 -290 102 C-290.58523438 102.79921875 -291.17046875 103.5984375 -291.7734375 104.421875 C-296.74503711 111.30562831 -300.88662255 118.58523649 -305 126 C-305.66 126 -306.32 126 -307 126 C-307.23976563 126.63808594 -307.47953125 127.27617187 -307.7265625 127.93359375 C-309.09041727 131.21772257 -310.61822953 134.38970009 -312.17333984 137.58642578 C-316.05788431 145.5907025 -319.44380861 153.46206123 -322 162 C-322.55936435 163.58444382 -323.12168025 165.16784998 -323.6875 166.75 C-330.00362066 185.97297592 -324.69241199 205.55878409 -316 223 C-312.24609186 229.53339758 -306.93991643 237.53004179 -300 241 C-299.86271484 239.77410156 -299.86271484 239.77410156 -299.72265625 238.5234375 C-298.84363464 234.23761321 -297.2473016 230.58864469 -295.4375 226.625 C-295.10814453 225.88894531 -294.77878906 225.15289062 -294.43945312 224.39453125 C-293.63252195 222.59355443 -292.8171174 220.79637819 -292 219 C-291.34 219 -290.68 219 -290 219 C-289.73058594 218.28070313 -289.46117187 217.56140625 -289.18359375 216.8203125 C-282.63241694 201.2099176 -270.1474236 191.27319879 -256 183 C-255.33742188 182.60506348 -254.67484375 182.21012695 -253.9921875 181.80322266 C-231.26573806 168.29589137 -231.26573806 168.29589137 -220 169 C-219.01 169.66 -218.02 170.32 -217 171 C-217.33 172.98 -217.66 174.96 -218 177 C-218.6084375 177.1959375 -219.216875 177.391875 -219.84375 177.59375 C-231.87686672 181.69916629 -243.79779036 187.35768545 -254 195 C-254.86882812 195.62003906 -255.73765625 196.24007812 -256.6328125 196.87890625 C-272.47601003 208.86060021 -280.06205301 226.29296941 -285.93579102 244.72290039 C-287.14639212 248.51633597 -288.41033113 252.11296716 -290.1875 255.6875 C-294.23460337 264.30664484 -295.50749868 274.30454919 -294.8125 283.73046875 C-295.05276429 286.6386678 -296.20473048 287.74171693 -298 290 C-298.61312622 291.69082384 -299.1725323 293.40174224 -299.6875 295.125 C-304.96867677 310.09495219 -320.63952133 323.69208814 -334 332 C-339.67828824 334.01321128 -344.46417771 333.0023187 -350 331 C-350 330.34 -350 329.68 -350 329 C-350.73347656 328.73832031 -351.46695313 328.47664063 -352.22265625 328.20703125 C-355.03815874 326.98341624 -357.05231275 325.60500348 -359.4375 323.6875 C-360.21351563 323.06488281 -360.98953125 322.44226563 -361.7890625 321.80078125 C-362.51867187 321.20652344 -363.24828125 320.61226563 -364 320 C-364.87785156 319.30970703 -364.87785156 319.30970703 -365.7734375 318.60546875 C-368.08164335 316.76007575 -370.04092507 314.94816157 -371.875 312.625 C-374.36317768 309.55136875 -377.19320702 307.28215255 -380.29296875 304.84375 C-382.39505817 302.57330102 -382.78311851 301.06098649 -383 298 C-381.5625 295.6875 -381.5625 295.6875 -380 294 C-374.91350556 294.36600237 -372.31801678 297.13711312 -368.875 300.5625 C-357.50890251 311.99276342 -357.50890251 311.99276342 -342.875 317.1875 C-339.92961412 317.11754799 -339.92961412 317.11754799 -337 316 C-336.3272242 314.66973877 -335.66212769 313.33559318 -335 312 C-333.28372034 310.01169563 -331.55268267 308.09308168 -329.75 306.1875 C-328.75365646 305.10830348 -327.75756073 304.02887811 -326.76171875 302.94921875 C-325.22557218 301.29701928 -323.67767811 299.67767811 -322.08203125 298.08203125 C-314.16661627 289.84104651 -313.0432933 277.05487411 -311.25 266.25 C-311.02957031 264.96867187 -310.80914062 263.68734375 -310.58203125 262.3671875 C-310.04632459 259.24611391 -309.5191483 256.12386274 -309 253 C-309.78246094 252.70270996 -310.56492187 252.40541992 -311.37109375 252.09912109 C-314.14376462 250.93989336 -315.8033971 249.65331477 -318 247.625 C-320.14747909 245.66216397 -322.18350322 243.87020504 -324.5625 242.1875 C-336.87282013 231.13977681 -345.09115269 212.08699557 -346.21875 195.85009766 C-347.02824155 177.94768605 -346.45775835 161.07169415 -338 145 C-337.34086336 143.6687324 -336.68589184 142.33539423 -336.03515625 141 C-335.37760417 139.66666667 -334.72005208 138.33333333 -334.0625 137 C-333.74087891 136.34 -333.41925781 135.68 -333.08789062 135 C-325.98325595 120.65059979 -316.19913808 107.28393184 -306 95 C-305.30519531 94.13246094 -304.61039062 93.26492187 -303.89453125 92.37109375 C-299.04844157 86.34135738 -293.9701842 80.59569612 -288.7109375 74.9296875 C-285.45362271 71.40953462 -282.25876984 67.83637447 -279.0703125 64.25390625 C-277.63749582 62.69402847 -276.16691891 61.16831435 -274.66796875 59.671875 C-271.42159151 56.42074464 -268.3082255 53.05866192 -265.1875 49.6875 C-260.78684894 44.94802914 -256.34043834 40.28735671 -251.72265625 35.7578125 C-249.88892632 33.88665951 -248.19632925 31.93362793 -246.5 29.9375 C-244.06954139 27.1408079 -241.5705096 24.48157648 -238.875 21.9375 C-238.25367188 21.34839844 -237.63234375 20.75929688 -236.9921875 20.15234375 C-235 19 -235 19 -232.3828125 19.12890625 C-230 20 -230 20 -228 23 C-228.24576206 26.11298614 -228.91551061 27.87001632 -230.625 30.5 C-232.20737584 32.85429012 -232.20737584 32.85429012 -231.875 35.25 C-231.441875 36.61125 -231.441875 36.61125 -231 38 C-230.649375 39.258125 -230.29875 40.51625 -229.9375 41.8125 C-228.18719379 46.95296242 -225.7309968 51.72326933 -223.26660156 56.54736328 C-220.27114778 62.41129857 -217.45503735 68.34666542 -214.70239258 74.328125 C-213.33393667 77.27742629 -211.95421277 80.07576082 -210.26953125 82.86328125 C-209 85 -209 85 -209 87 C-207.85337891 86.40251953 -207.85337891 86.40251953 -206.68359375 85.79296875 C-192.78868845 78.92075927 -177.30496046 75.21440592 -162.10546875 79.8203125 C-158.17596945 81.31302796 -154.40204962 83.03350042 -150.625 84.875 C-149.94671143 85.20242187 -149.26842285 85.52984375 -148.56958008 85.8671875 C-144.33610982 88.01832187 -141.13139742 90.33662773 -138 94 C-138 94.66 -138 95.32 -138 96 C-136.98164063 95.97679688 -135.96328125 95.95359375 -134.9140625 95.9296875 C-133.48439829 95.90971488 -132.05470687 95.89164077 -130.625 95.875 C-129.86566162 95.86186768 -129.10632324 95.84873535 -128.32397461 95.83520508 C-124.17577565 95.8160772 -120.29268802 96.04463751 -116.21484375 96.83203125 C-109.64736559 98.16207784 -109.64736559 98.16207784 -103 98 C-99.75155071 95.74313537 -97.88376709 93.34723835 -95.55078125 90.1640625 C-87.52140017 79.39029616 -69.926389 71.08067351 -57 69 C-44.11538462 68.29487179 -44.11538462 68.29487179 -39 70 C-38.75507813 69.19304687 -38.51015625 68.38609375 -38.2578125 67.5546875 C-36.738089 63.25981673 -34.8461589 59.22793998 -32.875 55.125 C-32.27449829 53.86381348 -32.27449829 53.86381348 -31.66186523 52.57714844 C-29.50267621 48.06174385 -27.29261834 43.57760496 -25.01660156 39.12011719 C-21.28979131 31.81526394 -17.89861107 24.39432459 -14.625 16.875 C-14.19582275 15.89047852 -13.76664551 14.90595703 -13.32446289 13.89160156 C-11.68057316 10.07806619 -10.10899332 6.33868393 -8.8359375 2.3828125 C-7.2018046 -2.27522988 -4.1462864 -0.8821886 0 0 Z M-48 83 C-63.02291106 85.73143837 -75.23233156 92.27065067 -86 103 C-87.53142917 104.36573356 -89.07240114 105.72088148 -90.625 107.0625 C-92.295625 108.5165625 -92.295625 108.5165625 -94 110 C-92.68 115.94 -91.36 121.88 -90 128 C-88.02 128 -86.04 128 -84 128 C-83.525625 127.195625 -83.05125 126.39125 -82.5625 125.5625 C-81.7890625 124.2940625 -81.7890625 124.2940625 -81 123 C-79.91332031 122.89042969 -78.82664062 122.78085938 -77.70703125 122.66796875 C-73.03847439 121.82674301 -71.99859373 120.44600271 -69.125 116.75 C-68.70428223 116.21568359 -68.28356445 115.68136719 -67.85009766 115.13085938 C-63.30272193 109.27668816 -59.11559798 103.16235333 -55 97 C-54.2201206 95.83719362 -53.44017241 94.67443339 -52.66015625 93.51171875 C-50.76623848 90.67916335 -48.87942582 87.84218346 -47 85 C-47.495 84.01 -47.495 84.01 -48 83 Z M-200 99 C-196.67585406 108.5547441 -188.75964865 116.49928315 -181.98828125 123.8203125 C-180.37949701 125.58396988 -178.89730245 127.36543898 -177.4375 129.25 C-175.42596522 131.51942385 -173.49337407 133.48465704 -171.1875 135.4375 C-170.58292969 135.95183594 -169.97835937 136.46617187 -169.35546875 136.99609375 C-163.66002139 139.42350664 -155.72378532 136.36110012 -149.875 135 C-144.93061928 133.86089393 -140.01915143 132.76971012 -135 132 C-137.67374586 127.6247795 -140.41911181 123.39525311 -143.4375 119.25 C-146.15530517 115.51662432 -147.82111495 111.97681448 -149.5 107.6875 C-151.638822 103.22636458 -153.53725032 101.2345871 -158.21191406 99.43896484 C-161.4512935 98.4117469 -164.66583575 97.67440268 -168 97 C-168.90878906 96.80921875 -169.81757813 96.6184375 -170.75390625 96.421875 C-178.98815288 95.23634966 -192.42068029 95.21034015 -200 99 Z M-137 106 C-136.01 106.495 -136.01 106.495 -135 107 C-133.99438477 108.828125 -133.99438477 108.828125 -133 111 C-132.3641157 112.2504247 -131.72738233 113.50041794 -131.08984375 114.75 C-130.37228757 116.16661183 -129.65484278 117.58328009 -128.9375 119 C-128.57333984 119.7115625 -128.20917969 120.423125 -127.83398438 121.15625 C-127.48529297 121.8471875 -127.13660156 122.538125 -126.77734375 123.25 C-126.46015381 123.87390625 -126.14296387 124.4978125 -125.81616211 125.140625 C-125 127 -125 127 -124 131 C-116.74 131 -109.48 131 -102 131 C-103.19147829 125.04260854 -104.2732286 119.64547987 -106.0625 113.9375 C-106.57490234 112.28041016 -106.57490234 112.28041016 -107.09765625 110.58984375 C-107.75433902 108.10063197 -107.75433902 108.10063197 -109 107 C-118.30335368 105.67094947 -127.62559956 105.90809411 -137 106 Z " fill="#000000" transform="translate(491,32)"/>
<path d="M0 0 C3.54054248 2.02240882 4.67231423 4.72058837 6.29296875 8.30078125 C6.62546631 8.9971167 6.95796387 9.69345215 7.30053711 10.41088867 C8.41933386 12.76234087 9.51357864 15.124223 10.60546875 17.48828125 C17.36243881 32.41800534 17.36243881 32.41800534 25.6484375 46.515625 C27.80093432 49.78518605 29.7767242 53.13361874 31.75952148 56.5078125 C37.08633931 65.55856872 42.77647396 74.19589848 48.91796875 82.7109375 C51.20985979 85.89740022 53.34579201 89.15337182 55.41796875 92.48828125 C57.9014194 96.46893181 60.59875563 100.12051485 63.52734375 103.78125 C66.31704727 107.41520591 68.92096218 111.16983511 71.54296875 114.92578125 C75.40266092 120.4396272 79.33693913 125.82225555 83.609375 131.02734375 C86.02714667 134.00815814 88.34437852 137.05892298 90.66796875 140.11328125 C93.92253143 144.37458048 97.27304677 148.49853074 100.8515625 152.4921875 C102.87575738 154.79589259 104.80153788 157.16674872 106.73046875 159.55078125 C111.99097791 166.01700982 117.46901358 172.28733042 122.94140625 178.57421875 C136.79820659 194.51279191 150.15705502 210.69319893 161.60546875 228.48828125 C162.11722656 229.27332031 162.62898437 230.05835938 163.15625 230.8671875 C167.68181427 238.07637479 171.19948809 245.76271133 174.70214844 253.50488281 C175.46621435 255.18252374 176.25572252 256.84854184 177.05078125 258.51171875 C189.57830231 286.00923353 192.38684975 324.00039107 182.34765625 352.484375 C177.94958889 363.22653341 171.00488104 373.36772879 163.5078125 382.16796875 C160.61544288 385.6958282 158.1545711 389.51937573 155.66015625 393.3359375 C153.03441826 396.08647292 151.35883039 396.37348428 147.60546875 396.48828125 C144.73046875 394.86328125 144.73046875 394.86328125 142.60546875 392.48828125 C142.1236277 389.28671518 142.39234366 387.84197821 144.07421875 385.05078125 C144.74453125 384.20515625 145.41484375 383.35953125 146.10546875 382.48828125 C150.03240603 377.34287939 153.41684278 372.06853725 156.74609375 366.53125 C158.60546875 363.48828125 158.60546875 363.48828125 160.671875 360.59765625 C162.90673545 357.00382006 164.10602284 353.58487073 165.29296875 349.55078125 C165.50501953 348.87337891 165.71707031 348.19597656 165.93554688 347.49804688 C171.60992158 328.82810107 169.24724377 307.37488576 165.60546875 288.48828125 C165.25742187 286.62816406 165.25742187 286.62816406 164.90234375 284.73046875 C159.84559004 262.56998926 148.02639272 242.51365477 134.60546875 224.48828125 C133.25081022 222.59279935 131.89664192 220.69696698 130.54296875 218.80078125 C127.67070177 214.84791481 124.65310981 211.14577324 121.38671875 207.515625 C119.37981049 205.23144652 117.49242956 202.87238366 115.60546875 200.48828125 C113.17335495 197.42007615 110.70361507 194.41710074 108.10546875 191.48828125 C104.8775081 187.84592024 101.85643468 184.06505736 98.8359375 180.25 C96.78926988 177.71585988 94.69720979 175.23317258 92.57836914 172.75976562 C76.60546875 154.1131947 76.60546875 154.1131947 76.60546875 150.48828125 C75.94546875 150.48828125 75.28546875 150.48828125 74.60546875 150.48828125 C73.41967773 149.11816406 73.41967773 149.11816406 72.1015625 147.19140625 C71.61284668 146.48612793 71.12413086 145.78084961 70.62060547 145.05419922 C70.09998535 144.28994629 69.57936523 143.52569336 69.04296875 142.73828125 C67.952011 141.16172819 66.85955465 139.58621114 65.765625 138.01171875 C65.22695801 137.23538086 64.68829102 136.45904297 64.13330078 135.65917969 C62.14844199 132.83889136 60.07723501 130.10145543 57.98046875 127.36328125 C53.71244811 121.73444244 49.81899038 115.89735876 45.9375 110 C44.07631967 107.17787195 42.14558911 104.41801855 40.16796875 101.67578125 C35.37390171 94.90031833 31.19054161 87.72397508 26.90600586 80.62084961 C25.71259788 78.66394729 24.4897234 76.72966097 23.2578125 74.796875 C10.43718887 54.33027756 -0.86321927 32.80912403 -7.39453125 9.48828125 C-7.72453125 8.49828125 -8.05453125 7.50828125 -8.39453125 6.48828125 C-4.12059006 -0.88058287 -4.12059006 -0.88058287 0 0 Z " fill="#000000" transform="translate(577.39453125,542.51171875)"/>
<path d="M0 0 C3.375 -0.5 3.375 -0.5 7 0 C10.8659553 3.85847763 12.45047365 8.24590733 14.3125 13.25 C16.70382805 19.41163552 19.27147331 24.44334695 23.71484375 29.43359375 C25 31 25 31 25 33 C25.56074219 33.2578125 26.12148437 33.515625 26.69921875 33.78125 C29.27040312 35.14323561 31.47797437 36.76473055 33.8125 38.5 C38.96631829 42.13264726 42.67873742 44.1328505 49.125 43.875 C52.48914952 42.85112841 54.33212109 41.257436 57 39 C57.78375 38.7525 58.5675 38.505 59.375 38.25 C63.60801175 36.23428012 66.06046354 32.57593095 69 29 C70.36271314 27.34397908 71.73770978 25.69798715 73.125 24.0625 C73.74632812 23.31097656 74.36765625 22.55945313 75.0078125 21.78515625 C77.37103264 19.66752565 78.85291253 19.1890296 82 19 C84.375 20.625 84.375 20.625 86 23 C85.7902309 27.79241718 83.52709863 29.93501583 80.25 33.25 C62.64220754 51.64081721 48.49398683 73.57627774 41 98 C40.75378906 98.80050781 40.50757813 99.60101563 40.25390625 100.42578125 C35.60244828 118.99953411 39.90371862 135.63930442 49.328125 151.6875 C55.6194022 162.03795604 63.4668863 169.6697572 73 177 C74.13115234 177.88751953 74.13115234 177.88751953 75.28515625 178.79296875 C79.351383 181.81216004 83.5771533 184.34175837 88.03515625 186.734375 C89.39447266 187.46442749 89.39447266 187.46442749 90.78125 188.20922852 C92.61634903 189.18460814 94.45875253 190.14638321 96.30859375 191.09350586 C97.15679687 191.54089111 98.005 191.98827637 98.87890625 192.44921875 C99.6479126 192.84455811 100.41691895 193.23989746 101.20922852 193.6472168 C103 195 103 195 103.84350586 197.01489258 C104 199 104 199 102.625 201.3125 C99.23004874 203.49496867 97.41474438 203.18344918 93.52734375 202.5625 C89.2742931 201.61591686 85.13344747 200.37206294 81 199 C81 198.34 81 197.68 81 197 C79.75283203 196.64615234 79.75283203 196.64615234 78.48046875 196.28515625 C74.39468464 194.77648849 70.97696758 192.76346005 67.3125 190.4375 C66.26292114 189.77693604 66.26292114 189.77693604 65.19213867 189.10302734 C59.05512617 185.17021755 53.52403612 180.7560378 48 176 C47.154375 175.34644531 46.30875 174.69289063 45.4375 174.01953125 C37.41118469 167.36952321 32.25052989 157.84053585 27 149 C26.57589844 148.37609375 26.15179688 147.7521875 25.71484375 147.109375 C17.50332566 134.74526412 18.8490919 116.67553331 21.31030273 102.69482422 C24.17493481 89.0828299 32.03213823 69.96786177 42 60 C41.24976563 59.79246094 40.49953125 59.58492188 39.7265625 59.37109375 C25.02166548 54.94480863 14.093629 45.56000493 6.484375 32.1796875 C4.43612897 27.7921289 2.75578526 23.30716162 1.125 18.75 C0.8141748 17.88584473 0.50334961 17.02168945 0.18310547 16.13134766 C-1.34345361 11.66916451 -2.59345504 7.77658933 -2 3 C-1.34 2.01 -0.68 1.02 0 0 Z " fill="#000000" transform="translate(109,348)"/>
<path d="M0 0 C2.375 0.625 2.375 0.625 4.3125 2.8125 C5.375 5.625 5.375 5.625 4.6875 8.3125 C3.375 10.625 3.375 10.625 1.375 12.625 C-0.42255761 24.43752146 8.60584256 35.97049581 15.19970703 45.05859375 C17.64760139 48.32109691 20.23802139 51.02613857 23.375 53.625 C24.27347656 54.38941406 25.17195313 55.15382813 26.09765625 55.94140625 C35.00842019 63.27618413 45.37184723 69.95728241 56.375 73.625 C56.375 74.285 56.375 74.945 56.375 75.625 C57.03757812 75.73972656 57.70015625 75.85445312 58.3828125 75.97265625 C61.34771075 76.61905052 64.2020668 77.47709217 67.09448242 78.38964844 C77.67711648 81.6930508 88.01545648 83.45363673 99.09765625 83.85546875 C100.09321533 83.89188477 101.08877441 83.92830078 102.11450195 83.96582031 C104.09305645 84.02935998 106.0721826 84.07735529 108.05151367 84.10839844 C109.41046753 84.14562012 109.41046753 84.14562012 110.796875 84.18359375 C111.60737305 84.19704834 112.41787109 84.21050293 113.25292969 84.22436523 C115.88742503 84.72174292 116.82028088 85.46112749 118.375 87.625 C117.94021739 93.05978261 117.94021739 93.05978261 116.375 94.625 C94.95524842 98.05313277 73.35490486 95.77680118 53.375 87.625 C52.58722168 87.3170752 51.79944336 87.00915039 50.98779297 86.69189453 C22.25051735 75.37149522 2.87978523 56.71120511 -9.625 28.625 C-11.85589627 22.76258004 -13.07519449 16.68554457 -10.90234375 10.6015625 C-8.42303844 6.00430812 -5.26195075 1.25284542 0 0 Z " fill="#000000" transform="translate(243.625,454.375)"/>
<path d="M0 0 C6.875 0.875 6.875 0.875 8 2 C8.40834578 5.21082843 8.17740036 6.70417915 6.49609375 9.5078125 C5.81675781 10.37148438 5.13742187 11.23515625 4.4375 12.125 C1.70177614 15.70908422 -0.84899071 19.27057263 -3.1875 23.125 C-6.35921729 28.19245635 -9.8742318 32.94075868 -13.5 37.6875 C-14.03391357 38.3882666 -14.56782715 39.0890332 -15.11791992 39.81103516 C-18.89606042 44.70988379 -22.88061389 49.38586543 -27 54 C-27.81726563 54.92167969 -28.63453125 55.84335937 -29.4765625 56.79296875 C-30.18554688 57.58316406 -30.89453125 58.37335938 -31.625 59.1875 C-32.33914063 59.98542969 -33.05328125 60.78335938 -33.7890625 61.60546875 C-36.12952215 64.14027753 -38.55326817 66.56763958 -41 69 C-42.09386633 70.12622824 -43.18620829 71.25393828 -44.27734375 72.3828125 C-60.36480245 88.89935812 -77.11120144 101.7850999 -99.375 108.8125 C-100.35533203 109.1228418 -100.35533203 109.1228418 -101.35546875 109.43945312 C-105.57182074 110.71466345 -109.64322519 111.47651155 -114 112 C-115.5625 110.375 -115.5625 110.375 -117 108 C-116.875 104.875 -116.875 104.875 -116 102 C-112.9246489 99.94976593 -110.93847168 99.40767466 -107.375 98.625 C-101.85337666 97.28582493 -97.0630828 95.54721658 -92 93 C-90.87851562 92.46761719 -89.75703125 91.93523437 -88.6015625 91.38671875 C-78.76599702 86.56950944 -71.01028392 80.40087754 -63 73 C-61.71805169 71.83787529 -60.43548919 70.67642777 -59.15234375 69.515625 C-57.89191234 68.36602546 -56.63276057 67.21502106 -55.375 66.0625 C-54.79484131 65.53116455 -54.21468262 64.9998291 -53.61694336 64.45239258 C-50.43306548 61.48725082 -47.69301846 58.43018024 -45 55 C-43.6696875 53.948125 -43.6696875 53.948125 -42.3125 52.875 C-38.39277484 49.73331074 -35.47601614 45.80211422 -32.359375 41.890625 C-30.14370022 39.17605656 -27.83046561 36.62049772 -25.4375 34.0625 C-21.3967964 29.63529432 -18.15162486 24.91576193 -14.90625 19.88671875 C-12.65964597 16.48458683 -10.21175844 13.3021997 -7.67578125 10.11328125 C-5.0454445 6.79623653 -2.52648794 3.39641419 0 0 Z " fill="#000000" transform="translate(580,435)"/>
<path d="M0 0 C3.0625 0.1875 3.0625 0.1875 5.0625 2.1875 C5.7813414 4.54192387 6.41569433 6.862636 7 9.25 C8.26937386 14.21760058 9.59351786 19.12267838 11.296875 23.9609375 C11.86730881 25.61985216 12.39130085 27.29487645 12.890625 28.9765625 C14.97778808 35.8217499 17.80200472 41.60901403 21.57421875 47.69140625 C23.0625 50.1875 23.0625 50.1875 24.0625 53.1875 C25.733125 53.125625 25.733125 53.125625 27.4375 53.0625 C31.0625 53.1875 31.0625 53.1875 33.0625 55.1875 C33.62270605 60.4534369 33.62270605 60.4534369 31.81640625 62.8203125 C29.71490493 64.45845384 28.31977599 64.79708849 25.6875 65.125 C24.56214844 65.29322266 24.56214844 65.29322266 23.4140625 65.46484375 C18.79497928 64.92006815 16.39402921 61.58947917 13.5625 58.15625 C12.72170628 57.0054136 11.88847053 55.84902106 11.0625 54.6875 C10.44375 53.86378906 10.44375 53.86378906 9.8125 53.0234375 C2.89458768 43.38159721 0.0489667 32.27723731 -2.3125 20.8125 C-2.58449219 19.58144531 -2.85648437 18.35039062 -3.13671875 17.08203125 C-5.28423177 6.91713627 -5.28423177 6.91713627 -3.9375 1.1875 C-2.9375 0.1875 -2.9375 0.1875 0 0 Z " fill="#000000" transform="translate(359.9375,483.8125)"/>
<path d="M0 0 C2.25 1.25 2.25 1.25 3.25 2.25 C3.48529412 7.77941176 3.48529412 7.77941176 2.25 10.25 C1.59 10.25 0.93 10.25 0.25 10.25 C0.17483154 11.0656543 0.09966309 11.88130859 0.0222168 12.72167969 C-0.26679673 15.80885975 -0.56420922 18.89509452 -0.86694336 21.98095703 C-1.05755507 23.94894561 -1.23886311 25.91782831 -1.41992188 27.88671875 C-4.12653441 55.23044534 -4.12653441 55.23044534 -13.75 63.25 C-16.79631086 63.17384223 -18.31676382 62.57492713 -20.75 60.75 C-22.41742337 56.58144157 -20.43916696 53.21811085 -18.75 49.25 C-18.43893311 48.663396 -18.12786621 48.07679199 -17.80737305 47.47241211 C-14.21749156 40.35193772 -13.53419925 33.02925239 -12.6875 25.1875 C-10.41983339 4.6387983 -10.41983339 4.6387983 -5.375 0.125 C-2.75 -0.75 -2.75 -0.75 0 0 Z " fill="#000000" transform="translate(468.75,483.75)"/>
<path d="" fill="#000000" transform="translate(0,0)"/>
<path d="" fill="#000000" transform="translate(0,0)"/>
<path d="" fill="#000000" transform="translate(0,0)"/>
<path d="" fill="#000000" transform="translate(0,0)"/>
</svg>
