<?xml version="1.0" encoding="UTF-8" standalone="no"?>
<!-- Uploaded to: SVG Repo, www.svgrepo.com, Generator: SVG Repo Mixer Tools -->

<svg
   fill="#000000"
   width="800px"
   height="800px"
   viewBox="0 0 32 32"
   version="1.1"
   id="svg1"
   sodipodi:docname="KoFiIcon.svg"
   inkscape:version="1.4.2 (f4327f4, 2025-05-13)"
   xmlns:inkscape="http://www.inkscape.org/namespaces/inkscape"
   xmlns:sodipodi="http://sodipodi.sourceforge.net/DTD/sodipodi-0.dtd"
   xmlns="http://www.w3.org/2000/svg"
   xmlns:svg="http://www.w3.org/2000/svg">
  <defs
     id="defs1" />
  <sodipodi:namedview
     id="namedview1"
     pagecolor="#505050"
     bordercolor="#ffffff"
     borderopacity="1"
     inkscape:showpageshadow="0"
     inkscape:pageopacity="0"
     inkscape:pagecheckerboard="1"
     inkscape:deskcolor="#505050"
     inkscape:zoom="1.06"
     inkscape:cx="400"
     inkscape:cy="400"
     inkscape:window-width="1920"
     inkscape:window-height="1057"
     inkscape:window-x="-8"
     inkscape:window-y="-8"
     inkscape:window-maximized="1"
     inkscape:current-layer="svg1" />
  <path
     d="M 30.872847,12.074627 C 29.906561,7.1710623 24.805472,6.561717 24.805472,6.561717 H 1.959184 c -0.7565493,0 -0.8492453,0.9567711 -0.8492453,0.9567711 0,0 -0.1020592,8.7909539 -0.025281,14.1913549 0.2059911,2.905416 3.2284427,3.205138 3.2284427,3.205138 0,0 10.3192193,-0.0279 14.9371653,-0.0603 3.043987,-0.511238 3.351101,-3.080929 3.315521,-4.482333 5.438165,0.290721 9.265855,-3.398653 8.306124,-8.297717 z M 17.061142,16.28964 c -1.555233,1.738929 -5.007457,4.767654 -5.007457,4.767654 0,0 -0.150748,0.144911 -0.390446,0.0279 -0.0927,-0.0657 -0.131086,-0.108008 -0.131086,-0.108008 C 10.975041,20.447949 7.3271253,17.320217 6.4937976,16.232936 5.6108448,15.07455 5.1969899,12.993595 6.3823751,11.779405 c 1.184449,-1.20969 3.7499749,-1.303297 5.4465929,0.486936 0,0 1.950361,-2.137659 4.330495,-1.152986 2.374516,0.985574 2.287438,3.614669 0.901679,5.176285 z m 7.705941,0.572443 c -1.161041,0.14041 -2.10111,0.0324 -2.10111,0.0324 v -6.816205 h 2.208787 c 0,0 2.463467,0.661549 2.463467,3.164636 0,2.29697 -1.229393,3.201538 -2.570208,3.619169 z"
     id="path1"
     style="stroke-width:0.918016;fill:#ffffff;fill-opacity:1" />
</svg>
