<svg xmlns:inkscape="http://www.inkscape.org/namespaces/inkscape" xmlns:sodipodi="http://sodipodi.sourceforge.net/DTD/sodipodi-0.dtd" xmlns:xlink="http://www.w3.org/1999/xlink" xmlns="http://www.w3.org/2000/svg" xmlns:svg="http://www.w3.org/2000/svg" version="1.1" id="svg12" sodipodi:docname="EnvenusP.svg" inkscape:version="1.4.2 (f4327f4, 2025-05-13)" viewBox="0 21 1155 168">
  <defs id="defs12">
    <linearGradient id="swatch25" inkscape:swatch="solid">
      <stop style="stop-color:#000000;stop-opacity:1;" offset="0" id="stop25"/>
    </linearGradient>
    <linearGradient id="linearGradient20" inkscape:swatch="gradient">
      <stop style="stop-color:#ffffff;stop-opacity:1;" offset="0" id="stop21"/>
      <stop style="stop-color:#ffffff;stop-opacity:0;" offset="1" id="stop22"/>
    </linearGradient>
    <linearGradient id="linearGradient17" inkscape:collect="always">
      <stop style="stop-color:#66002f;stop-opacity:1;" offset="0.41399416" id="stop18"/>
      <stop style="stop-color:#ff0059;stop-opacity:1;" offset="0.50728863" id="stop20"/>
      <stop style="stop-color:#ff5c9d;stop-opacity:1;" offset="0.56851315" id="stop19"/>
    </linearGradient>
    <linearGradient inkscape:collect="always" xlink:href="#linearGradient17" id="linearGradient24" gradientUnits="userSpaceOnUse" x1="577.49988" y1="661.5" x2="577.49994" y2="-493.5"/>
    <filter style="color-interpolation-filters:sRGB;" inkscape:label="Drop Shadow" id="filter106" x="-0.045714286" y="-0.038095238" width="1.1161905" height="1.1079365">
      <feFlood result="flood" in="SourceGraphic" flood-opacity="0.376471" flood-color="rgb(0,0,0)" id="feFlood105"/>
      <feGaussianBlur result="blur" in="SourceGraphic" stdDeviation="2.000000" id="feGaussianBlur105"/>
      <feOffset result="offset" in="blur" dx="2.600000" dy="4.000000" id="feOffset105"/>
      <feComposite result="comp1" operator="in" in="flood" in2="offset" id="feComposite105"/>
      <feComposite result="comp2" operator="over" in="SourceGraphic" in2="comp1" id="feComposite106"/>
    </filter>
    <filter style="color-interpolation-filters:sRGB;" inkscape:label="Drop Shadow" id="filter108" x="-0.045714286" y="-0.038095238" width="1.1161905" height="1.1079365">
      <feFlood result="flood" in="SourceGraphic" flood-opacity="0.376471" flood-color="rgb(0,0,0)" id="feFlood106"/>
      <feGaussianBlur result="blur" in="SourceGraphic" stdDeviation="2.000000" id="feGaussianBlur106"/>
      <feOffset result="offset" in="blur" dx="2.600000" dy="4.000000" id="feOffset106"/>
      <feComposite result="comp1" operator="in" in="flood" in2="offset" id="feComposite107"/>
      <feComposite result="comp2" operator="over" in="SourceGraphic" in2="comp1" id="feComposite108"/>
    </filter>
    <filter style="color-interpolation-filters:sRGB;" inkscape:label="Drop Shadow" id="filter110" x="-0.045714286" y="-0.038095238" width="1.1161905" height="1.1079365">
      <feFlood result="flood" in="SourceGraphic" flood-opacity="0.376471" flood-color="rgb(0,0,0)" id="feFlood108"/>
      <feGaussianBlur result="blur" in="SourceGraphic" stdDeviation="2.000000" id="feGaussianBlur108"/>
      <feOffset result="offset" in="blur" dx="2.600000" dy="4.000000" id="feOffset108"/>
      <feComposite result="comp1" operator="in" in="flood" in2="offset" id="feComposite109"/>
      <feComposite result="comp2" operator="over" in="SourceGraphic" in2="comp1" id="feComposite110"/>
    </filter>
    <filter style="color-interpolation-filters:sRGB;" inkscape:label="Drop Shadow" id="filter112" x="-0.045714286" y="-0.038095238" width="1.1161905" height="1.1079365">
      <feFlood result="flood" in="SourceGraphic" flood-opacity="0.376471" flood-color="rgb(0,0,0)" id="feFlood110"/>
      <feGaussianBlur result="blur" in="SourceGraphic" stdDeviation="2.000000" id="feGaussianBlur110"/>
      <feOffset result="offset" in="blur" dx="2.600000" dy="4.000000" id="feOffset110"/>
      <feComposite result="comp1" operator="in" in="flood" in2="offset" id="feComposite111"/>
      <feComposite result="comp2" operator="over" in="SourceGraphic" in2="comp1" id="feComposite112"/>
    </filter>
    <filter style="color-interpolation-filters:sRGB;" inkscape:label="Drop Shadow" id="filter114" x="-0.045714286" y="-0.038095238" width="1.1161905" height="1.1079365">
      <feFlood result="flood" in="SourceGraphic" flood-opacity="0.376471" flood-color="rgb(0,0,0)" id="feFlood112"/>
      <feGaussianBlur result="blur" in="SourceGraphic" stdDeviation="2.000000" id="feGaussianBlur112"/>
      <feOffset result="offset" in="blur" dx="2.600000" dy="4.000000" id="feOffset112"/>
      <feComposite result="comp1" operator="in" in="flood" in2="offset" id="feComposite113"/>
      <feComposite result="comp2" operator="over" in="SourceGraphic" in2="comp1" id="feComposite114"/>
    </filter>
    <filter style="color-interpolation-filters:sRGB;" inkscape:label="Drop Shadow" id="filter116" x="-0.045714286" y="-0.038095238" width="1.1161905" height="1.1079365">
      <feFlood result="flood" in="SourceGraphic" flood-opacity="0.376471" flood-color="rgb(0,0,0)" id="feFlood114"/>
      <feGaussianBlur result="blur" in="SourceGraphic" stdDeviation="2.000000" id="feGaussianBlur114"/>
      <feOffset result="offset" in="blur" dx="2.600000" dy="4.000000" id="feOffset114"/>
      <feComposite result="comp1" operator="in" in="flood" in2="offset" id="feComposite115"/>
      <feComposite result="comp2" operator="over" in="SourceGraphic" in2="comp1" id="feComposite116"/>
    </filter>
    <filter style="color-interpolation-filters:sRGB;" inkscape:label="Drop Shadow" id="filter118" x="-0.045714286" y="-0.038095238" width="1.1161905" height="1.1079365">
      <feFlood result="flood" in="SourceGraphic" flood-opacity="0.376471" flood-color="rgb(0,0,0)" id="feFlood116"/>
      <feGaussianBlur result="blur" in="SourceGraphic" stdDeviation="2.000000" id="feGaussianBlur116"/>
      <feOffset result="offset" in="blur" dx="2.600000" dy="4.000000" id="feOffset116"/>
      <feComposite result="comp1" operator="in" in="flood" in2="offset" id="feComposite117"/>
      <feComposite result="comp2" operator="over" in="SourceGraphic" in2="comp1" id="feComposite118"/>
    </filter>
    <filter style="color-interpolation-filters:sRGB;" inkscape:label="Drop Shadow" id="filter120" x="-0.045714286" y="-0.038095238" width="1.1161905" height="1.1079365">
      <feFlood result="flood" in="SourceGraphic" flood-opacity="0.376471" flood-color="rgb(0,0,0)" id="feFlood118"/>
      <feGaussianBlur result="blur" in="SourceGraphic" stdDeviation="2.000000" id="feGaussianBlur118"/>
      <feOffset result="offset" in="blur" dx="2.600000" dy="4.000000" id="feOffset118"/>
      <feComposite result="comp1" operator="in" in="flood" in2="offset" id="feComposite119"/>
      <feComposite result="comp2" operator="over" in="SourceGraphic" in2="comp1" id="feComposite120"/>
    </filter>
    <filter style="color-interpolation-filters:sRGB;" inkscape:label="Drop Shadow" id="filter122" x="-0.045714286" y="-0.038095238" width="1.1161905" height="1.1079365">
      <feFlood result="flood" in="SourceGraphic" flood-opacity="0.376471" flood-color="rgb(0,0,0)" id="feFlood120"/>
      <feGaussianBlur result="blur" in="SourceGraphic" stdDeviation="2.000000" id="feGaussianBlur120"/>
      <feOffset result="offset" in="blur" dx="2.600000" dy="4.000000" id="feOffset120"/>
      <feComposite result="comp1" operator="in" in="flood" in2="offset" id="feComposite121"/>
      <feComposite result="comp2" operator="over" in="SourceGraphic" in2="comp1" id="feComposite122"/>
    </filter>
  </defs>
  <sodipodi:namedview id="namedview12" pagecolor="#505050" bordercolor="#ffffff" borderopacity="1" inkscape:showpageshadow="0" inkscape:pageopacity="0" inkscape:pagecheckerboard="1" inkscape:deskcolor="#505050" inkscape:zoom="1.0866793" inkscape:cx="521.7731" inkscape:cy="257.66573" inkscape:window-width="1920" inkscape:window-height="1057" inkscape:window-x="-8" inkscape:window-y="-8" inkscape:window-maximized="1" inkscape:current-layer="svg12"/>
  <path d="m 0,0 c 381.15,0 762.3,0 1155,0 0,55.44 0,110.88 0,168 C 773.85,168 392.7,168 0,168 0,112.56 0,57.12 0,0 Z" transform="translate(0,21)" id="path1" style="display:inline;fill:url(#linearGradient24);fill-opacity:1;fill-rule:nonzero" fill="#FF005B"/>
  <path id="path28" style="display:inline;fill:#ffffff;filter:url(#filter106)" d="M 0 0 L 0 126 L 105 126 L 105 105 L 21 105 L 21 84 L 105 84 L 105 0 L 0 0 z M 21 21 L 84 21 L 84 63 L 21 63 L 21 21 z " transform="translate(399,42)"/>
  <path id="path29" style="display:inline;fill:#ffffff;filter:url(#filter108)" d="M 0 0 L 0 126 L 105 126 L 105 105 L 21 105 L 21 84 L 105 84 L 105 0 L 0 0 z M 21 21 L 84 21 L 84 63 L 21 63 L 21 21 z " transform="translate(21,42)"/>
  <path d="M0 0 C34.65 0 69.3 0 105 0 C105 6.93 105 13.86 105 21 C77.28 21 49.56 21 21 21 C21 27.93 21 34.86 21 42 C48.72 42 76.44 42 105 42 C105 69.72 105 97.44 105 126 C70.35 126 35.7 126 0 126 C0 119.07 0 112.14 0 105 C27.72 105 55.44 105 84 105 C84 91.14 84 77.28 84 63 C56.28 63 28.56 63 0 63 C0 42.21 0 21.42 0 0 Z " fill="#FFFFFF" id="path4" transform="translate(777,42)" style="filter:url(#filter118)"/>
  <path d="M0 0 C6.93 0 13.86 0 21 0 C21 34.65 21 69.3 21 105 C41.79 105 62.58 105 84 105 C84 70.35 84 35.7 84 0 C90.93 0 97.86 0 105 0 C105 41.58 105 83.16 105 126 C70.35 126 35.7 126 0 126 C0 84.42 0 42.84 0 0 Z " fill="#FFFFFF" transform="translate(1029,42)" id="path5" style="filter:url(#filter122)"/>
  <path d="M0 0 C6.93 0 13.86 0 21 0 C21 34.65 21 69.3 21 105 C41.79 105 62.58 105 84 105 C84 70.35 84 35.7 84 0 C90.93 0 97.86 0 105 0 C105 41.58 105 83.16 105 126 C70.35 126 35.7 126 0 126 C0 84.42 0 42.84 0 0 Z " fill="#FFFFFF" transform="translate(651,42)" id="path6" style="filter:url(#filter116)"/>
  <path d="M0 0 C34.65 0 69.3 0 105 0 C105 41.58 105 83.16 105 126 C98.07 126 91.14 126 84 126 C84 91.35 84 56.7 84 21 C63.21 21 42.42 21 21 21 C21 55.65 21 90.3 21 126 C14.07 126 7.14 126 0 126 C0 84.42 0 42.84 0 0 Z " fill="#FFFFFF" transform="translate(525,42)" id="path7" style="filter:url(#filter114)"/>
  <path d="M0 0 C6.93 0 13.86 0 21 0 C21 20.79 21 41.58 21 63 C27.93 63 34.86 63 42 63 C42 76.86 42 90.72 42 105 C48.93 105 55.86 105 63 105 C63 91.14 63 77.28 63 63 C69.93 63 76.86 63 84 63 C84 42.21 84 21.42 84 0 C90.93 0 97.86 0 105 0 C105 27.72 105 55.44 105 84 C98.07 84 91.14 84 84 84 C84 97.86 84 111.72 84 126 C63.21 126 42.42 126 21 126 C21 112.14 21 98.28 21 84 C14.07 84 7.14 84 0 84 C0 56.28 0 28.56 0 0 Z " fill="#FFFFFF" transform="translate(273,42)" id="path8" style="filter:url(#filter112)"/>
  <path d="M0 0 C34.65 0 69.3 0 105 0 C105 41.58 105 83.16 105 126 C98.07 126 91.14 126 84 126 C84 91.35 84 56.7 84 21 C63.21 21 42.42 21 21 21 C21 55.65 21 90.3 21 126 C14.07 126 7.14 126 0 126 C0 84.42 0 42.84 0 0 Z " fill="#FFFFFF" transform="translate(147,42)" id="path9" style="filter:url(#filter110)"/>
  <path d="m 0,0 c 6.93,0 13.86,0 21,0 0,34.65 0,69.3 0,105 27.72,0 55.44,0 84,0 0,6.93 0,13.86 0,21 -34.65,0 -69.3,0 -105,0 C 0,84.42 0,42.84 0,0 Z" fill="#ffffff" transform="translate(903,42)" id="path10" style="display:inline;filter:url(#filter120)"/>
</svg>