<svg xmlns="http://www.w3.org/2000/svg" preserveAspectRatio="none" width="32" height="32" xmlns:v="https://vecta.io/nano"><defs><g id="A" stroke="none"><path fill="#ff005b" d="M1.85 32.1q-.014.051-.05.1-.001.077-.05.15L7 32.4h0l-.15-.45-.3-1.45q-2.549 1.052-4.7 1.6m11.3-5.15q.1-.138.1-.35.05-.431.05-.85L12 25.6h-.15v.15q0 .95-.5 2.25-.165.412-.4.55.353 1.769 1.05 3.4.057.128.1.25.082.141.15.25l3.85.05-.4-1.3 1.4-.2-.1-1.5q-2.476-.585-3.85-2.55m6.1-.45h-.05q-.724-.134-1.4-.3-.526 1.486.25 2.6-.078.151-.2.3l-.25.25v.25q.184.627.2 1.15.039.096.05.2l2-.25.4 1.85 4.05.05q.07-.2.15-.4.19-.597.35-1.2l-1.8-.4-.05-.05.3-.55q-.6-.15-1.25-.65l-1.25-.75q-.9-.85-1.5-2.1M17.05-.45l1.8.1q.298.043.55.05 1.619.191 3.5 1.15 2.55 1.3 3.7 3Q28.7 7 29.1 11.6q.65 7.7.55 11.75-.119 5.165-1.3 8.85h3.85V-.45H17.05m-7.9.4l.15-.4H-1V32.2H.95q1.094-1.957 1.6-3.35 1.35-3.7-.05-8.1-.85-2.8-1.1-4.05-.6-3.3-.05-6.85.35-2.5 1.75-4.8 2.15-3.5 6.05-5.1z"/><path fill="#000" d="M15.7 31.2l.4 1.3.55 1.7 3.9-.1-.3-1.55-.4-1.85-2 .25-.75.05-1.4.2M13 24.15q-1.414-1.044-2.2-2.5-.489 3.676.15 6.9.235-.138.4-.55.5-1.3.5-2.25v-.15H12l1.3.15q-.028-.823-.3-1.6m5.75-12.35q-1.55-1.5-4.15-1.05-.3 0-.85.15-.508 1.139-.95 2.2 1.337-.85 2.95-.85 1.9.15 3.1 1.25 0-1.163-.1-1.7M23 14.35q-.05-.4-.2-.45-.2-.05-.45.3-.25.45-.4 1.05-.15.65-.1 1.05.05.45.25.5.15.05.4-.35.25-.4.4-1 .15-.6.1-1.1m3.35 4.2q-.035-.689-.1-1.4.003.115 0 .2-.15 2.4-.45 3.7-.5 1.85-1.7 3.1-1.6 1.6-4.8 2.35-.011.018-.05 0 .6 1.25 1.5 2.1l1.25.75q.65.5 1.25.65l-.3.55.05.05 1.8.4q1.874-5.964 1.55-12.45m-3.1-6.95q1.1 0 1.6.25.331.12.6.3-.166-.812-.4-1.65-.567-.4-1.55-.4-1.15.25-2.15 1-.4.234-.6.5v1.75q.4-.5.75-.85.85-.7 1.75-.9m-7.65 5q.15-.65.1-1.2-.05-.45-.2-.5-.2-.05-.45.35-.25.5-.4 1.15-.15.7-.1 1.15.05.5.25.55.15.05.4-.4.25-.4.4-1.1M22.5 4q-.303.108-1 .6-1.298.842-2.15 1.45-.974-.601-2-1.2-.67 1.027-1.3 2h7.55q.102 0 .2 0-.585-1.433-1.3-2.85z"/><path fill="#401d22" d="M9.3-.45l-.15.4q-3.9 1.6-6.05 5.1-1.4 2.3-1.75 4.8-.55 3.55.05 6.85.25 1.25 1.1 4.05 1.4 4.4.05 8.1-.506 1.393-1.6 3.35-.033.075-.1.15h.9q.049-.073.05-.15.036-.049.05-.1 2.151-.548 4.7-1.6l.3 1.45.15.45h0l.1.1.25.6q.4.8.9 1.45l.2.3q.25.35.4.4.45.1.45-.25.45.35 1.15.45l.1-.1q.1-.2-.05-.35l-.25-.2q-.35-.2-.85-.8l-.45-.5-.5-.7-.2-.4 4 .05q-.068-.109-.15-.25-.043-.122-.1-.25-.697-1.631-1.05-3.4-.639-3.224-.15-6.9.063-.219.1-.45.65-4.5 1.35-6.5.219-.687.5-1.4.034-.097.05-.2.442-1.061.95-2.2.987-1.939 2.3-4.05.63-.973 1.3-2 1.026.599 2 1.2.852-.608 2.15-1.45.697-.492 1-.6.715 1.417 1.3 2.85.729 1.799 1.25 3.65.234.838.4 1.65.271 1.105.45 2.2.025.15.05.3.191 1.251.3 2.5.065.711.1 1.4.324 6.486-1.55 12.45-.16.603-.35 1.2-.08.2-.15.4l3.9.05q.101-.222.15-.45 1.181-3.685 1.3-8.85.1-4.05-.55-11.75-.4-4.6-2.5-7.75-1.15-1.7-3.7-3-1.881-.959-3.5-1.15-.252-.007-.55-.05l-1.8-.1L9.45-1l-.15.55z"/><path fill="#d58d8d" d="M17.8 30.75q-.016-.523-.2-1.15v-.25l.25-.25q.122-.149.2-.3-.776-1.114-.25-2.6-1.545-.389-2.8-.95-1.117-.476-2-1.1.272.777.3 1.6 0 .419-.05.85 0 .212-.1.35 1.374 1.965 3.85 2.55l.1 1.5.75-.05q-.011-.104-.05-.2z"/><path fill="#fff" d="M25.95 14.65q-.025-.15-.05-.3-.244-1.213-1.05-1.75-.95-.6-2.1.05-1.1.75-1.8 2.25-.65 1.55-.45 3.05.2 1.55 1.15 2.1 1 .65 2.1-.1 1.1-.7 1.75-2.2.65-1.55.45-3.1m-3.15-.75q.15.05.2.45.05.5-.1 1.1-.15.6-.4 1-.25.4-.4.35-.2-.05-.25-.5-.05-.4.1-1.05.15-.6.4-1.05.25-.35.45-.3m-3.95 4.5q.5-1.6-.1-3.1-.6-1.4-2-1.85-1.4-.4-2.7.5-1.3.9-1.8 2.5-.45 1.65.15 3.1.6 1.45 2 1.85 1.4.45 2.7-.5 1.3-.85 1.75-2.5m-3.15-3q.05.55-.1 1.2-.15.7-.4 1.1-.25.45-.4.4-.2-.05-.25-.55-.05-.45.1-1.15.15-.65.4-1.15.25-.4.45-.35.15.05.2.5z"/><path fill="#fcf1e5" d="M23.8 6.85q-.098 0-.2 0h-7.55q-1.313 2.111-2.3 4.05.55-.15.85-.15 2.6-.45 4.15 1.05.1.537.1 1.7-1.2-1.1-3.1-1.25-1.613 0-2.95.85-.016.103-.05.2-.281.712-.5 1.4-.7 2-1.35 6.5-.037.231-.1.45.786 1.456 2.2 2.5.883.624 2 1.1 1.255.561 2.8.95.676.166 1.4.3h.05q.039.018.05 0 3.2-.75 4.8-2.35 1.2-1.25 1.7-3.1.3-1.3.45-3.7.003-.085 0-.2-.109-1.249-.3-2.5.2 1.55-.45 3.1-.65 1.5-1.75 2.2-1.1.75-2.1.1-.95-.55-1.15-2.1-.2-1.5.45-3.05.7-1.5 1.8-2.25 1.15-.65 2.1-.05.806.537 1.05 1.75-.179-1.095-.45-2.2-.269-.18-.6-.3-.5-.25-1.6-.25-.9.2-1.75.9-.35.35-.75.85V11.6q.2-.266.6-.5 1-.75 2.15-1 .983 0 1.55.4-.521-1.851-1.25-3.65m-3.5 16.8q.65-.55.9-1.1-.25.55-.9 1.1-.85.75-1.65.55-.85-.25-1.55-1.15l-.2-.35.2.35q.7.9 1.55 1.15.8.2 1.65-.55m-1.55-8.35q.6 1.5.1 3.1-.45 1.65-1.75 2.5-1.3.95-2.7.5-1.4-.4-2-1.85-.6-1.45-.15-3.1.5-1.6 1.8-2.5 1.3-.9 2.7-.5 1.4.45 2 1.85z"/></g><path id="B" stroke="#000" stroke-width=".3" stroke-linejoin="round" stroke-linecap="round" fill="none" d="M16.9 22.7l.2.35q.7.9 1.55 1.15.8.2 1.65-.55.65-.55.9-1.1"/></defs><use href="#A" x="-.094" y=".5"/><use href="#A"/><use href="#B"/></svg>