<svg xmlns="http://www.w3.org/2000/svg" preserveAspectRatio="none" width="32" height="32" xmlns:v="https://vecta.io/nano"><path d="M-1.369-.587H32.8V32.8H-1.369z" fill="#ff005b"/><path fill="#e49289" d="M23.75 30.8c.06-.13.709-.234.749-.404.244-.62.259-2.855.416-3.568-.402.516-1.627 1.523-2.292 2.007-.167.134-.581.359-.781.492-1.451.862-4.586 2.954-5.902 3.326l7.348.046c.222-.408.653-.519.831-.977m6.431-1.572c-.013.033-1.301.36-1.322.393-.473.779-1.181 1.564-1.808 2.018l3.529-.461a1.74 1.74 0 0 0-.05-.25l-.709-2.711m-.438-9.831c-.126-.28-.033-.463-.273-.916-.34-.627-2.196-2.027-2.756-2.999.456.833.678 2.925.989 3.691.69 1.62 1.437 2.969 1.58 4.416a11.37 11.37 0 0 1 .05 1.2v.1.3a3.92 3.92 0 0 1-.05.5c0 .21-.016.41-.05.6.009.057.009.107 0 .15-.066.445-.19.772-.324 1.16a.71.71 0 0 1-.05.25c0 .056-.016.106-.05.15-.174.628-1.182.568-1.474 1.14-.389.745-.508 1.407-1.02 1.962-.099.128-.291 1.306-.392 1.411l1.472.184c.58.376 1.322.511.98.173.894-.869 1.055-2.717 1.561-3.981a3.51 3.51 0 0 0 .15-.5 1.03 1.03 0 0 0 .1-.35c.026-.006.042-.022.05-.05v-.05c.143-.454.21-.986.267-1.499.027-.021.043-.054.05-.1-.003-.024-.003-.057 0-.1a4.07 4.07 0 0 0 .05-.4c.021-.285.021-.585 0-.9a1.91 1.91 0 0 0 0-.4l-.05-.7c-.011-.075-.027-.158-.05-.25-.172-1.085-.151-2.483-.713-3.731m-6.561-6.479a7.5 7.5 0 0 1-.703.292c.395 1.158.097 2.42.335 3.562.415 1.964.795 4.322.813 6.291.187.085 1.707.021 1.887.07l-.318-4.168-.667-3.099c-.241-.979-.987-1.894-1.345-2.948z"/><path d="M3.163 3.717H7.63v8.314H3.163zm21.246-.226h4.041v8.313h-4.041z" fill="#f9bcc2"/><path d="M1.55 30.15l-.15.45c-.067.3-.2.717-.4 1.25l-.05.25H2.8l.694.328c-.613-.59-1.458-1.927-1.912-2.638m12.008 1.824c-.576-.204-1.181-.211-1.772-.507-.587-.192-.799-.697-1.269-1.099l-.555-.406c-.3-.367-.523-1.09-.89-2.39l-2.06-4.286c.027 1.428-.74 4.485-.534 5.724.192 1.063 1.481 2.063 1.789 3a.49.49 0 0 1 .05.1l.15.35 5.775.243M4.001 20.872l.1-.35c.386-1.281.659-3.984 1.173-5.169-1.751 2.24-2.978 6.215-3.69 8.654-.333 1.667-.403 3.076-.303 4.009.074.387.191.787.35 1.2.036.041.052.074.05.1l.428.822c.144.238.202.723.394.988.253.299.747.702 1.294 1.303L4.5 32.1l1.759.234c-.836-.703-1.627-2.174-2.125-3.038-.277-.519-.54-.804-.697-1.384-.335-1.494-.677-2.704-.275-4.409l.15-.45c.132-.621.455-1.319.589-1.932.045-.068.078-.152.1-.25M8.75 13.2a.58.58 0 0 0-.05-.05c-.059.366-.886.832-.961 1.165l-1.311 7.419c-.157.367.429.829.425.862.158.223 1.606 1.094 1.781 1.271l-.127-5.018c.395-2.291.171-4.125.343-5.5a1.48 1.48 0 0 0-.1-.15m7.178 14.597c.493-.339 1.425-1.505 1.766-2 .026-.026.043-.076.05-.15-1.007-.076-3.351-.01-4.344.166l.35.5c.468.468 1.713 1.469 2.078 1.534.047.002.081-.014.1-.05z"/><path fill="#21202d" d="M14.45 9.75c-.193.722-.51 1.389-.95 2a6.06 6.06 0 0 1-2.25 1.85c-.3.133-.533.217-.7.25-.267.067-.5.067-.7 0-.376-.029-.869-.407-1.16-.711l-1.33 5.492c-.144 1.232.43 1.965.474 3.033.639.644 1.025 2.801 1.919 3.124 1.125.406 3.725-.282 4.834-.489l.25-.05c-.7-.367-1.333-1.516-1.633-2.416-.635-1.461-1.642-1.399-1.241-2.972.067.867-.041 1.155.459 2.022.433.767 1.017 1.354 1.75 1.887 1.367 1.067 4.82 2.1 6.787 2.367-.8-.167-1.202-2.555-1.869-3.189-.633-.567.43-2.134.097-2.934-.567-1.2.255-.856.255-2.989 0-1.814-4.308-3.974-4.042-6.127a8.13 8.13 0 0 1-.95-.15M5.2-.05H3.6L3.3 1A43.2 43.2 0 0 0 2 8.85l-.05 1.4c0 .567.05 1.017.15 1.35a6.21 6.21 0 0 0 .3.95c.114-.033.231-.05.35-.05.333 0 .617.133.85.4.087.099.154.199.2.3a1.45 1.45 0 0 1 .15.65c0 .367-.117.683-.35.95s-.517.4-.85.4H2.7l-1.45 2.75C.45 19.65 0 21.2-.1 22.6a10.91 10.91 0 0 0 0 3.15c.114.79.314 1.557.6 2.3s.632 1.447 1.05 2.1a10.7 10.7 0 0 0 1.6 1.95H2.8l.7.65.6.5c.267.267.6.35 1 .25.1 0 .183-.05.25-.15v-.25c-.1-.333-.06 17.362-.527 17.029h-.5l-1.2-1.35-.55-.8-.35-.65c.002-.026-.014-.059-.05-.1-.159-.413-.276-.813-.35-1.2-.1-.933.017-2.233.35-3.9.713-2.439 1.663-4.906 2.85-7.4-.514 1.186-.964 2.419-1.35 3.7l-.1.35c-.022.098-.055.182-.1.25l-.4 1.85-.15.45c-.402 1.706-.435 3.306-.1 4.8a7.84 7.84 0 0 0 .65 1.65c.498.864 1.164 1.647 2 2.35L8.5 32.1l-.15-.35a.49.49 0 0 0-.05-.1c-.308-.937-.249-1.628-.441-2.691-.206-1.239-.08-2.859-.129-4.331.016-.174.016-.357 0-.55l.05-1.05.05-.65c.005-.09.005-.19 0-.3.021-.114.038-.247.05-.4a.91.91 0 0 0 0-.15c.176-1.883.377-3.991.967-7.008L8.7 13.15c-.3-.383-.45-.817-.45-1.3 0-.933.417-1.767 1.25-2.5a5.17 5.17 0 0 1 .75-.75 3.83 3.83 0 0 1-.85-.65c-.263-.251-.496-.518-.7-.8a4.18 4.18 0 0 1-.6-1.65c-.067-.733.117-1.417.55-2.05.184-.323.401-.589.65-.8L5.2-.05m1.7 13c.267.267.4.583.4.95s-.133.683-.4.95-.583.4-.95.4a1.3 1.3 0 0 1-.5-.1 1.25 1.25 0 0 1-.45-.3c-.267-.267-.4-.583-.4-.95a1.81 1.81 0 0 1 .1-.6c.1-.015.15-.065.15-.15v-.05l.15-.15c.267-.267.583-.4.95-.4s.683.133.95.4M4.319 3.744l.1.15C4.886 4.561 5.55 5.95 6.35 6.75l.638.681a10.97 10.97 0 0 0-.95.85c-.414.487-1.603 1.573-1.739 3.364-.012-.195-.045-.412-.1-.65l-.216-1.111c-.15-1.961.012-4.269.236-5.641.042-.162.075-.329.1-.5M16.05 4.8l.05-.75a12.07 12.07 0 0 0-1.85.15l.4.75z"/><path fill="#fff" d="M25.597 24.412c.007-.319-.129-.243-.136-.591-.004-.075-.078-.435-.074-.527-.012-.083-.416-.209-.437-.293-.18-.049-.363-.115-.55-.2-.703-.208-.315-1.63-.911-2.055-.311-.211-.898-.262-1.187-.551-.967-.933-2.523-2.282-2.856-3.515.067 1.1.251 3.351.884 4.318a7.23 7.23 0 0 0 1.6 1.75c.272.2.603.219.897.386-.32-.061-.828-.409-1.141-.481-1.138-.276-1.309-1.045-2.105-1.47-1.467-.767-2.964-1.755-3.43-2.922 0 .933.201 2.983.867 3.983.733.833 1.781 1.29 2.481 1.857-1.967-.267-3.633-.933-5-2a6.1 6.1 0 0 1-1.75-1.95c-.5-.867-.783-1.733-.85-2.6-.402 1.573-.285 3.089.35 4.55.3.9.8 1.533 1.5 1.9l-.25.05c-1.109.206-2.225.106-3.35-.3-.866-.305-1.121-.8-1.77-1.45a4.87 4.87 0 0 1-.5-.6l-.05.4v.3l-.05.65-.05 1.05c.016.193.016.376 0 .55L8 27.5c.367 1.3.7 2.133 1 2.5l.4.45a4.72 4.72 0 0 0 1.6.9 15.37 15.37 0 0 0 1.75.75h5.45c1.316-.371 2.699-.988 4.15-1.85l.55-.4c.664-.484 1.198-.984 1.6-1.5.083-.334.702-.396.752-.763.093-.478.154-.846.194-1.367.011-.05.171-.36.16-.443.053-.349-.047-.407-.033-.791M17.1 26a4.81 4.81 0 0 1-1.25 1.25c-.019.036-.053.052-.1.05-.365-.065-.782-.332-1.25-.8-.106-.132-.222-.299-.35-.5a11.96 11.96 0 0 1 3-.15c-.007.074-.024.124-.05.15m-1.75 4.2a1.59 1.59 0 0 0 1.45-.1c.567-.333 1.033-.733 1.4-1.2a10.44 10.44 0 0 0 .75-.95 10.44 10.44 0 0 1-.75.95c-.367.467-.833.867-1.4 1.2a1.59 1.59 0 0 1-1.45.1 15.32 15.32 0 0 1-1.55-1 5.85 5.85 0 0 1-1-.8 5.85 5.85 0 0 0 1 .8 15.32 15.32 0 0 0 1.55 1z"/><path fill="#fcefe0" d="M22.75 13.5c-.6 0-1.017-.05-1.25-.15L20 13c-.733-.333-1.333-.85-1.8-1.55a4.28 4.28 0 0 1-.65-1.55 11.03 11.03 0 0 1-2.15 0c-.267 2.153-.4 4.137-.4 5.95 0 2.133.283 3.8.85 5 .333.8.817 1.483 1.45 2.05.667.633 1.4 1.033 2.2 1.2-.7-.567-1.417-1.267-2.15-2.1-.667-1-1-1.967-1-2.9.467 1.167 1.433 2.133 2.9 2.9.795.425 1.762.775 2.9 1.05l.95.2a8.64 8.64 0 0 1-.85-.55c-.619-.485-1.153-1.068-1.6-1.75-.633-.967-.983-2-1.05-3.1.333 1.233.983 2.317 1.95 3.25a6.2 6.2 0 0 0 .9.75c.597.425 1.879 1 2.583 1.208-.018-1.969.476-4.006.061-5.97-.238-1.143-1.699-2.558-2.095-3.716-.011.024-.227.119-.249.128m6-13.55h-1.6c-1.366.679-2.683 1.596-3.95 2.75.429.414.696.881.8 1.4.133.4.133 1.117 0 2.15-.101.326-.218.609-.35.85-.281.546-.631.963-1.05 1.25-.164.143-.481.277-.95.4a4.21 4.21 0 0 1 2.2 2.25c.333.8.333 1.417 0 1.85-.087.145-.387.329-.9.55l.9 3.05.7 3.05c.225 1.241.359 2.407.4 3.5a2.37 2.37 0 0 1 .05.25v.25 1c-.014.384-.047.751-.1 1.1.011.083.011.15 0 .2-.041.522-.107 1.022-.2 1.5-.051.367-.117.717-.2 1.05a13.14 13.14 0 0 1-.6 2 2.37 2.37 0 0 1-.15.45 11.28 11.28 0 0 1-.6 1.3l1.352 18.029c.101-.105.201-.221.3-.35a9.02 9.02 0 0 0 1.35-1.95c.293-.572.526-1.172.7-1.8a.24.24 0 0 0 .05-.15.72.72 0 0 0 .05-.25c.134-.389.234-.805.3-1.25.009-.043.009-.093 0-.15a3.34 3.34 0 0 0 .05-.6c.027-.157.043-.323.05-.5v-.3-.1c.005-.389-.012-.789-.05-1.2-.143-1.447-.559-2.98-1.25-4.6-.311-.767-.695-1.567-1.15-2.4l1.35 2.4.55 1.1c.561 1.248.928 2.415 1.1 3.5l.05.25.05.7a1.91 1.91 0 0 1 0 .4c.021.315.021.615 0 .9l-.05.4c-.003.043-.003.076 0 .1a.15.15 0 0 1-.05.1 7.67 7.67 0 0 1-.3 1.45v.05c-.008.028-.025.045-.05.05a1.06 1.06 0 0 1-.1.35 3.44 3.44 0 0 1-.15.5c-.506 1.265-1.206 2.331-2.1 3.2a.32.32 0 0 1-.15.15L28.85 32.1c.627-.454 1.177-1.071 1.65-1.85.021-.033.037-.067.05-.1a9.85 9.85 0 0 0 .65-1.25c.326-.66.609-1.393.85-2.2v-6.55c-.195-.542-.428-1.092-.7-1.65-.433-.967-1.05-2.133-1.85-3.5l-.35-.6a.4.4 0 0 1-.2.05 1.33 1.33 0 0 1-.9-.35 1 1 0 0 1-.35-.8c0-.316.1-.583.3-.8l.05-.05a1.46 1.46 0 0 1 .9-.3c.117 0 .217.017.3.05.813-1.395 1.096-3.211.85-5.45-.1-.867-.317-2.033-.65-3.5l-.7-3.3m-.9 7.65c0 1.691-.15 2.958-.45 3.8-.627-1.201-1.177-2.101-1.65-2.7a5.78 5.78 0 0 0-1.25-1.15l3.25-3.8c.067.833.1 2.117.1 3.85m-.95 5.65c.057.093.091.193.1.3a1.02 1.02 0 0 1 .1.45c0 .4-.133.733-.4 1a1.01 1.01 0 0 1-.1.1c-.217.2-.483.3-.8.3-.367 0-.683-.133-.95-.4-.233-.267-.35-.6-.35-1s.117-.733.35-1c.267-.267.583-.4.95-.4a1.14 1.14 0 0 1 .9.4c.078.078.145.161.2.25m-10.8-9.2l-.05.75c.719-.026 1.353.024 1.9.15l.35-.75c-.183-.023-.333-.056-.45-.1-.625-.051-1.209-.068-1.75-.05z"/><path stroke="#000" stroke-width=".3" stroke-linejoin="round" stroke-linecap="round" fill="none" d="M12.8 28.4q.45.45 1 .8.75.55 1.55 1 .75.3 1.45-.1.85-.5 1.4-1.2.4-.45.75-.95"/></svg>