<?xml version="1.0" encoding="UTF-8" standalone="no"?>
<svg
   preserveAspectRatio="none"
   width="32"
   height="32"
   version="1.1"
   id="svg8"
   sodipodi:docname="nemo.svg"
   inkscape:version="1.4.2 (f4327f4, 2025-05-13)"
   xmlns:inkscape="http://www.inkscape.org/namespaces/inkscape"
   xmlns:sodipodi="http://sodipodi.sourceforge.net/DTD/sodipodi-0.dtd"
   xmlns="http://www.w3.org/2000/svg"
   xmlns:svg="http://www.w3.org/2000/svg">
  <defs
     id="defs8" />
  <sodipodi:namedview
     id="namedview8"
     pagecolor="#505050"
     bordercolor="#ffffff"
     borderopacity="1"
     inkscape:showpageshadow="0"
     inkscape:pageopacity="0"
     inkscape:pagecheckerboard="1"
     inkscape:deskcolor="#505050"
     inkscape:zoom="11.313709"
     inkscape:cx="4.9055533"
     inkscape:cy="18.826718"
     inkscape:window-width="1440"
     inkscape:window-height="938"
     inkscape:window-x="-6"
     inkscape:window-y="-6"
     inkscape:window-maximized="1"
     inkscape:current-layer="svg8" />
  <path
     d="M-1.369-.587H32.8V32.8H-1.369z"
     fill="#ff005b"
     id="path1" />
  <path
     fill="#e49289"
     d="M23.75 30.8c.06-.13.709-.234.749-.404.244-.62.259-2.855.416-3.568-.402.516-1.627 1.523-2.292 2.007-.167.134-.581.359-.781.492-1.451.862-4.586 2.954-5.902 3.326l7.348.046c.222-.408.653-.519.831-.977m6.431-1.572c-.013.033-1.301.36-1.322.393-.473.779-1.181 1.564-1.808 2.018l3.529-.461a1.74 1.74 0 0 0-.05-.25l-.709-2.711m-.438-9.831c-.126-.28-.033-.463-.273-.916-.34-.627-2.196-2.027-2.756-2.999.456.833.678 2.925.989 3.691.69 1.62 1.437 2.969 1.58 4.416a11.37 11.37 0 0 1 .05 1.2v.1.3a3.92 3.92 0 0 1-.05.5c0 .21-.016.41-.05.6.009.057.009.107 0 .15-.066.445-.19.772-.324 1.16a.71.71 0 0 1-.05.25c0 .056-.016.106-.05.15-.174.628-1.182.568-1.474 1.14-.389.745-.508 1.407-1.02 1.962-.099.128-.291 1.306-.392 1.411l1.472.184c.58.376 1.322.511.98.173.894-.869 1.055-2.717 1.561-3.981a3.51 3.51 0 0 0 .15-.5c.05-.096.083-.213.1-.35.026-.006.042-.022.05-.05v-.05c.143-.454.21-.986.267-1.499.027-.021.043-.054.05-.1-.003-.024-.003-.057 0-.1.021-.116.038-.249.05-.4.021-.285.021-.585 0-.9.014-.127.014-.26 0-.4l-.05-.7c-.011-.075-.027-.158-.05-.25-.172-1.085-.151-2.483-.713-3.731m-6.561-6.479a7.5 7.5 0 0 1-.703.292c.395 1.158.097 2.42.335 3.562.415 1.964.795 4.322.813 6.291.187.085 1.707.021 1.887.07l-.318-4.168-.667-3.099c-.241-.979-.987-1.894-1.345-2.948z"
     id="path2" />
  <path
     d="M3.163 3.717H7.63v8.314H3.163zm21.246-.226h4.041v8.313h-4.041z"
     fill="#f9bcc2"
     id="path3" />
  <path
     d="M1.55 30.15l-.15.45c-.067.3-.2.717-.4 1.25l-.05.25H2.8l.694.328c-.613-.59-1.458-1.927-1.912-2.638M12.75 32.1c-.576-.204-1.159-.454-1.75-.75a4.72 4.72 0 0 1-1.6-.9L9 30c-.3-.367-.633-1.2-1-2.5l-.8-2.85c.027 1.428.144 2.761.35 4 .192 1.063.442 2.063.75 3 .022.035.039.068.05.1l.15.35h4.25M4.001 20.872l.1-.35c.386-1.281.659-3.984 1.173-5.169-1.751 2.24-2.978 6.215-3.69 8.654-.333 1.667-.403 3.076-.303 4.009.074.387.191.787.35 1.2.036.041.052.074.05.1l.428.822c.144.238.202.723.394.988.253.299.747.702 1.294 1.303L4.5 32.1l1.759.234c-.836-.703-1.627-2.174-2.125-3.038-.277-.519-.54-.804-.697-1.384-.335-1.494-.677-2.704-.275-4.409l.15-.45c.132-.621.455-1.319.589-1.932.045-.068.078-.152.1-.25M8.75 13.2c-.011-.013-.028-.03-.05-.05-.059.366-.886.832-.961 1.165l-1.311 7.419c-.157.367.429.829.425.862.158.223 1.606 1.094 1.781 1.271l-.127-5.018c.395-2.291.171-4.125.343-5.5a1.48 1.48 0 0 0-.1-.15m7.178 14.597c.493-.339 1.425-1.505 1.766-2 .026-.026.043-.076.05-.15-1.007-.076-3.351-.01-4.344.166l.35.5c.468.468 1.713 1.469 2.078 1.534.047.002.081-.014.1-.05z"
     id="path4" />
  <path
     fill="#21202d"
     d="m 14.45,9.75 c -0.193,0.722 -0.51,1.389 -0.95,2 -0.588432,0.79043 -1.360742,1.42544 -2.25,1.85 -0.3,0.133 -0.533,0.217 -0.7,0.25 -0.267,0.067 -0.5,0.067 -0.7,0 C 9.474,13.821 8.9808438,13.443063 8.6898438,13.139063 L 7.359375,18.63125 c -0.144,1.232 -0.10025,1.987469 -0.05625,3.055469 0.639,0.644 1.554875,2.779281 2.448875,3.102281 1.125,0.406 3.725,-0.282 4.834,-0.489 l 0.25,-0.05 c -0.7,-0.367 -1.333,-1.516 -1.633,-2.416 -0.635,-1.461 -1.642,-1.399 -1.241,-2.972 0.067,0.867 -0.041,1.155 0.459,2.022 0.433,0.767 1.017,1.354 1.75,1.887 1.367,1.067 4.82,2.1 6.787,2.367 -0.8,-0.167 -1.202,-2.555 -1.869,-3.189 -0.633,-0.567 0.43,-2.134 0.097,-2.934 -0.567,-1.2 0.255,-0.856 0.255,-2.989 0,-1.814 -4.308,-3.974 -4.042,-6.127 -0.312,-0.03 -0.628,-0.08 -0.95,-0.15 M 5.2,-0.05 H 3.6 L 3.3,1 C 2.6260972,3.5711025 2.1909184,6.1989128 2,8.85 l -0.05,1.4 c 0,0.567 0.05,1.017 0.15,1.35 0.082,0.348 0.182,0.665 0.3,0.95 0.114,-0.033 0.231,-0.05 0.35,-0.05 0.333,0 0.617,0.133 0.85,0.4 0.087,0.099 0.154,0.199 0.2,0.3 0.1,0.203 0.15,0.42 0.15,0.65 0,0.367 -0.117,0.683 -0.35,0.95 -0.233,0.267 -0.517,0.4 -0.85,0.4 H 2.7 L 1.25,17.95 C 0.45,19.65 0,21.2 -0.1,22.6 c -0.15237922,1.044472 -0.15237922,2.105528 0,3.15 0.114,0.79 0.314,1.557 0.6,2.3 0.286,0.743 0.632,1.447 1.05,2.1 0.454585,0.71081 0.9916492,1.365357 1.6,1.95 H 2.8 l 0.7,0.65 0.6,0.5 c 0.267,0.267 0.6,0.35 1,0.25 0.1,0 0.183,-0.05 0.25,-0.15 V 33.1 C 5.25,32.767 5.2897666,50.461818 4.8227666,50.128818 h -0.5 l -1.2,-1.35 -0.55,-0.8 -0.35,-0.65 c 0.002,-0.026 -0.014,-0.059 -0.05,-0.1 -0.159,-0.413 -0.276,-0.813 -0.35,-1.2 -0.1,-0.933 0.017,-2.233 0.35,-3.9 0.713,-2.439 1.663,-4.906 2.85,-7.4 -0.514,1.186 -0.964,2.419 -1.35,3.7 l -0.1,0.35 c -0.022,0.098 -0.055,0.182 -0.1,0.25 l -0.4,1.85 -0.15,0.45 c -0.402,1.706 -0.435,3.306 -0.1,4.8 0.1535638,0.572814 0.3716252,1.126355 0.65,1.65 0.498,0.864 1.164,1.647 2,2.35 L 8.5,32.1 8.35,31.75 C 8.339,31.718 8.322,31.685 8.3,31.65 7.992,30.713 7.742,29.713 7.55,28.65 7.344,27.411 7.227,26.078 7.2,24.65 7.216,24.476 7.216,24.293 7.2,24.1 L 7.25,23.05 7.3,22.4 c 0.005,-0.09 0.005,-0.19 0,-0.3 0.021,-0.114 0.038,-0.247 0.05,-0.4 0.004,-0.033 0.004,-0.083 0,-0.15 0.176,-1.883 0.9076563,-4.012688 1.4976563,-7.029688 L 8.7,13.15 C 8.4,12.767 8.25,12.333 8.25,11.85 8.25,10.917 8.667,10.083 9.5,9.35 9.7236265,9.0749487 9.9749487,8.8236265 10.25,8.6 9.952,8.435 9.668,8.218 9.4,7.95 9.137,7.699 8.904,7.432 8.7,7.15 8.3854459,6.6486782 8.1809353,6.0862741 8.1,5.5 8.033,4.767 8.217,4.083 8.65,3.45 8.834,3.127 9.051,2.861 9.3,2.65 l -4.1,-2.7 m 1.7,13 c 0.267,0.267 0.4,0.583 0.4,0.95 0,0.367 -0.133,0.683 -0.4,0.95 -0.267,0.267 -0.583,0.4 -0.95,0.4 -0.1716338,0 -0.3415688,-0.03399 -0.5,-0.1 C 5.292,15.092 5.142,14.992 5,14.85 4.733,14.583 4.6,14.267 4.6,13.9 4.5992476,13.695791 4.6330583,13.492927 4.7,13.3 4.8,13.285 4.85,13.235 4.85,13.15 V 13.1 L 5,12.95 c 0.267,-0.267 0.583,-0.4 0.95,-0.4 0.367,0 0.683,0.133 0.95,0.4 M 4.35,4.4 4.45,4.55 c 0.467,0.667 1.1,1.4 1.9,2.2 L 7.55,7.9 C 7.2171249,8.1646793 6.8999229,8.4484917 6.6,8.75 6.186,9.237 5.536,10.221 4.65,11.7 4.638,11.505 4.605,11.288 4.55,11.05 L 4.35,9.9 C 4.059,7.939 4.026,6.272 4.25,4.9 4.292,4.738 4.325,4.571 4.35,4.4 M 16.05,4.8 16.1,4.05 C 15.480397,4.05244 14.861902,4.10259 14.25,4.2 l 0.4,0.75 z"
     id="path5"
     sodipodi:nodetypes="ccccccccccccccccccscccccccccsccsssccccsccccccccccccccccccccccccccccccccccccccscccccccccssscsccscsscccccccccccccccc" />
  <path
     fill="#ffffff"
     d="m 25.597,24.412 c 0.007,-0.319 -0.129,-0.243 -0.136,-0.591 -0.004,-0.075 -0.078,-0.435 -0.074,-0.527 -0.012,-0.083 -0.416,-0.209 -0.437,-0.293 -0.18,-0.049 -0.363,-0.115 -0.55,-0.2 -0.703,-0.208 -0.315,-1.63 -0.911,-2.055 -0.311,-0.211 -0.898,-0.262 -1.187,-0.551 -0.967,-0.933 -2.523,-2.282 -2.856,-3.515 0.067,1.1 0.251,3.351 0.884,4.318 a 7.23,7.23 0 0 0 1.6,1.75 c 0.272,0.2 0.603,0.219 0.897,0.386 -0.32,-0.061 -0.828,-0.409 -1.141,-0.481 -1.138,-0.276 -1.309,-1.045 -2.105,-1.47 -1.467,-0.767 -2.964,-1.755 -3.43,-2.922 0,0.933 0.201,2.983 0.867,3.983 0.733,0.833 1.781,1.29 2.481,1.857 -1.967,-0.267 -3.633,-0.933 -5,-2 -0.733,-0.533 -1.317,-1.183 -1.75,-1.95 -0.5,-0.867 -0.783,-1.733 -0.85,-2.6 -0.402,1.573 -0.285,3.089 0.35,4.55 0.3,0.9 0.8,1.533 1.5,1.9 l -0.25,0.05 c -1.109,0.206 -2.225,0.106 -3.35,-0.3 a 6.12,6.12 0 0 1 -2.3,-1.45 4.87,4.87 0 0 1 -0.5,-0.6 l -0.05,0.4 v 0.3 l -0.05,0.65 -0.05,1.05 c 0.016,0.193 0.016,0.376 0,0.55 L 8,27.5 c 0.367,1.3 0.7,2.133 1,2.5 l 0.4,0.45 a 4.72,4.72 0 0 0 1.6,0.9 c 0.591,0.296 1.174,0.546 1.75,0.75 h 5.45 c 1.316,-0.371 2.699,-0.988 4.15,-1.85 l 0.55,-0.4 c 0.664,-0.484 1.198,-0.984 1.6,-1.5 0.083,-0.334 0.702,-0.396 0.752,-0.763 0.093,-0.478 0.154,-0.846 0.194,-1.367 0.011,-0.05 0.171,-0.36 0.16,-0.443 0.053,-0.349 -0.047,-0.407 -0.033,-0.791 M 17.1,26 c -0.34,0.495 -0.757,0.911 -1.25,1.25 -0.019,0.036 -0.053,0.052 -0.1,0.05 C 15.385,27.235 14.968,26.968 14.5,26.5 14.394,26.368 14.278,26.201 14.15,26 a 11.96,11.96 0 0 1 3,-0.15 C 17.143,25.924 17.126,25.974 17.1,26 m -1.75,4.2 a 1.59,1.59 0 0 0 1.45,-0.1 c 0.567,-0.333 1.033,-0.733 1.4,-1.2 a 10.44,10.44 0 0 0 0.75,-0.95 10.44,10.44 0 0 1 -0.75,0.95 c -0.367,0.467 -0.833,0.867 -1.4,1.2 a 1.59,1.59 0 0 1 -1.45,0.1 15.32,15.32 0 0 1 -1.55,-1 5.85,5.85 0 0 1 -1,-0.8 5.85,5.85 0 0 0 1,0.8 15.32,15.32 0 0 0 1.55,1 z"
     id="path6"
     style="display:inline" />
  <path
     fill="#fcefe0"
     d="m 22.75,13.5 c -0.6,0 -1.016667,-0.05 -1.25,-0.15 L 20,13 c -0.733333,-0.333333 -1.333333,-0.85 -1.8,-1.55 -0.325333,-0.488667 -0.542,-1.005333 -0.65,-1.55 -0.692667,0.07 -1.409333,0.07 -2.15,0 -0.266667,2.153333 -0.4,4.136667 -0.4,5.95 0,2.133333 0.283333,3.8 0.85,5 0.333333,0.8 0.816667,1.483333 1.45,2.05 0.666667,0.633333 1.4,1.033333 2.2,1.2 -0.7,-0.566667 -1.416667,-1.266667 -2.15,-2.1 -0.666667,-1 -1,-1.966667 -1,-2.9 0.466667,1.166667 1.433333,2.133333 2.9,2.9 0.795333,0.424667 1.762,0.774667 2.9,1.05 0.313333,0.072 0.63,0.138667 0.95,0.2 -0.294,-0.166667 -0.577333,-0.35 -0.85,-0.55 -0.619333,-0.484667 -1.152667,-1.068 -1.6,-1.75 -0.633333,-0.966667 -0.983333,-2 -1.05,-3.1 0.333333,1.233333 0.983333,2.316667 1.95,3.25 0.288667,0.288667 0.588667,0.538667 0.9,0.75 0.596667,0.425333 1.879479,0.999812 2.582812,1.207812 -0.018,-1.969333 0.476271,-4.006312 0.06094,-5.970312 -0.238,-1.142667 -1.699198,-2.558292 -2.094531,-3.715625 C 22.987889,13.395875 22.772,13.49067 22.75,13.5 m 6,-13.55 h -1.6 c -1.366,0.67933333 -2.682667,1.596 -3.95,2.75 0.429333,0.414 0.696,0.8806667 0.8,1.4 0.133333,0.4 0.133333,1.1166667 0,2.15 -0.101333,0.326 -0.218,0.6093333 -0.35,0.85 -0.280667,0.546 -0.630667,0.9626667 -1.05,1.25 -0.164,0.1433333 -0.480667,0.2766667 -0.95,0.4 1.023333,0.4653333 1.756667,1.2153333 2.2,2.25 0.333333,0.8 0.333333,1.416667 0,1.85 -0.08733,0.145333 -0.387333,0.328667 -0.9,0.55 0.358667,1.054 0.658667,2.070667 0.9,3.05 0.292,1.061333 0.525333,2.078 0.7,3.05 0.225333,1.240667 0.358667,2.407333 0.4,3.5 0.02133,0.08333 0.038,0.166667 0.05,0.25 -0.004,0.092 -0.004,0.175333 0,0.25 0.0067,0.348 0.0067,0.681333 0,1 -0.014,0.384 -0.04733,0.750667 -0.1,1.1 0.01133,0.08333 0.01133,0.15 0,0.2 -0.04067,0.522 -0.107333,1.022 -0.2,1.5 -0.05067,0.366667 -0.117333,0.716667 -0.2,1.05 -0.156,0.712667 -0.356,1.379333 -0.6,2 -0.04,0.17 -0.09,0.32 -0.15,0.45 -0.178,0.458 -0.378,0.891333 -0.6,1.3 l 1.352305,18.028818 c 0.101334,-0.104666 0.201334,-0.221333 0.3,-0.35 0.511334,-0.555333 0.961334,-1.205333 1.35,-1.95 0.292667,-0.572 0.526,-1.172 0.7,-1.8 0.03333,-0.04333 0.05,-0.09333 0.05,-0.15 0.03067,-0.076 0.04733,-0.159333 0.05,-0.25 0.134,-0.388666 0.234,-0.805333 0.3,-1.25 0.0087,-0.04267 0.0087,-0.09267 0,-0.15 0.034,-0.19 0.05067,-0.39 0.05,-0.6 0.02667,-0.156666 0.04333,-0.323333 0.05,-0.5 0.0033,-0.092 0.0033,-0.192 0,-0.3 6.67e-4,-0.02733 6.67e-4,-0.06067 0,-0.1 0.0047,-0.389333 -0.012,-0.789333 -0.05,-1.2 -0.142666,-1.446666 -0.559333,-2.98 -1.25,-4.6 -0.311333,-0.766666 -0.694666,-1.566666 -1.15,-2.4 0.56,0.972667 1.01,1.772667 1.35,2.4 0.240667,0.452667 0.424,0.819334 0.55,1.1 0.561334,1.248 0.928,2.414667 1.1,3.5 0.02267,0.092 0.03933,0.175334 0.05,0.25 0.02733,0.231334 0.044,0.464667 0.05,0.7 0.014,0.139334 0.014,0.272667 0,0.4 0.02133,0.315334 0.02133,0.615334 0,0.9 -0.01267,0.150667 -0.02933,0.284 -0.05,0.4 -0.0033,0.04267 -0.0033,0.076 0,0.1 -0.0067,0.04533 -0.02333,0.07867 -0.05,0.1 -0.05733,0.512667 -0.157333,0.996 -0.3,1.45 v 0.05 c -0.008,0.028 -0.02467,0.04467 -0.05,0.05 -0.01733,0.136667 -0.05067,0.253334 -0.1,0.35 -0.04,0.179334 -0.09,0.346 -0.15,0.5 -0.506,1.264667 -1.206,2.331334 -2.1,3.2 -0.02733,0.06133 -0.07733,0.111334 -0.15,0.15 L 28.85,32.1 c 0.626667,-0.454 1.176667,-1.070667 1.65,-1.85 0.02067,-0.03333 0.03733,-0.06667 0.05,-0.1 0.24,-0.388667 0.456667,-0.805333 0.65,-1.25 0.326,-0.66 0.609333,-1.393333 0.85,-2.2 V 20.15 C 31.855333,19.608 31.622,19.058 31.35,18.5 30.916667,17.533333 30.3,16.366667 29.5,15 c -0.116667,-0.197333 -0.233333,-0.397333 -0.35,-0.6 -0.05933,0.03333 -0.126,0.05 -0.2,0.05 -0.333333,0 -0.633333,-0.116667 -0.9,-0.35 -0.233333,-0.2 -0.35,-0.466667 -0.35,-0.8 0,-0.316 0.1,-0.582667 0.3,-0.8 l 0.05,-0.05 c 0.266667,-0.2 0.566667,-0.3 0.9,-0.3 0.117333,0 0.217333,0.01667 0.3,0.05 C 30.062667,10.805333 30.346,8.9886667 30.1,6.75 30,5.8833333 29.783333,4.7166667 29.45,3.25 29.117333,1.7393333 28.884,0.63933333 28.75,-0.05 m -0.9,7.65 c 0,1.6913333 -0.15,2.958 -0.45,3.8 C 26.772667,10.198667 26.222667,9.2986667 25.75,8.7 25.356667,8.2246667 24.94,7.8413333 24.5,7.55 l 3.25,-3.8 c 0.06667,0.8333333 0.1,2.1166667 0.1,3.85 m -0.95,5.65 c 0.05733,0.09267 0.09067,0.192667 0.1,0.3 0.06667,0.138 0.1,0.288 0.1,0.45 0,0.4 -0.133333,0.733333 -0.4,1 -0.03133,0.036 -0.06467,0.06933 -0.1,0.1 -0.216667,0.2 -0.483333,0.3 -0.8,0.3 -0.366667,0 -0.683333,-0.133333 -0.95,-0.4 -0.233333,-0.266667 -0.35,-0.6 -0.35,-1 0,-0.4 0.116667,-0.733333 0.35,-1 0.266667,-0.266667 0.583333,-0.4 0.95,-0.4 0.366667,0 0.666667,0.133333 0.9,0.4 0.078,0.078 0.144667,0.161333 0.2,0.25 M 16.1,4.05 C 16.08667,4.2966667 16.07,4.5466667 16.05,4.8 16.769333,4.774 17.402667,4.824 17.95,4.95 18.046,4.7353333 18.162667,4.4853333 18.3,4.2 18.117333,4.1773333 17.967333,4.144 17.85,4.1 17.224667,4.0486667 16.641333,4.032 16.1,4.05 Z"
     id="path7"
     style="display:inline"
     sodipodi:nodetypes="ccccccsccccccccccccccccccccccccccccccccccccccccccccccccccccccccccccccccccccccccccccccccccscsccsccccccccccccsccscscscccccccc" />
  <path
     stroke="#000000"
     stroke-width="0.3"
     stroke-linejoin="round"
     stroke-linecap="round"
     fill="none"
     d="m 12.8,28.4 q 0.45,0.45 1,0.8 0.75,0.55 1.55,1 0.75,0.3 1.45,-0.1 0.85,-0.5 1.4,-1.2 0.4,-0.45 0.75,-0.95"
     id="path8"
     style="display:inline" />
</svg>
